<svg xmlns="http://www.w3.org/2000/svg" width="14.563" height="220.808" viewBox="0 0 14.563 220.808"><g transform="translate(-6953.168 -1105.548)"><path d="M6957.385,1111.892l-.9-1.932,8.071-3.744.894,1.916Zm-.153-1.659.425.912,7.044-3.285-.418-.9Zm8.838-2.353-.894-1.917.893-.415.893,1.916Z" fill="red"/><path d="M6959.111,1130.108l-.908-1.948,4.108-1.916a3.169,3.169,0,0,0,.9-.627,2.479,2.479,0,0,0,.739-1.921,3.29,3.29,0,0,0-.33-1.236,3.045,3.045,0,0,0-.885-1.156,3.435,3.435,0,0,0-1.131-.583,3.257,3.257,0,0,0-1.13-.125,2.552,2.552,0,0,0-.878.2l-3.978,1.835-.886-1.9,8.049-3.753.894,1.919-1.879.853.1.005a4.3,4.3,0,0,1,2.773,1.228,4.99,4.99,0,0,1,1.4,2.94,3.825,3.825,0,0,1-.163,1.569,3.983,3.983,0,0,1-.834,1.43,4.725,4.725,0,0,1-1.558,1.114Zm-.161-1.676.432.927,3.9-1.835a4.171,4.171,0,0,0,1.377-.979,3.438,3.438,0,0,0,.719-1.227,3.283,3.283,0,0,0,.139-1.34,4.414,4.414,0,0,0-1.235-2.594,3.829,3.829,0,0,0-1.117-.76,3.761,3.761,0,0,0-.92-.269,4.256,4.256,0,0,1,.838.5,3.574,3.574,0,0,1,1.054,1.365,3.848,3.848,0,0,1,.383,1.449,3.047,3.047,0,0,1-.9,2.344,3.737,3.737,0,0,1-1.065.739Zm-3.466-7.432.412.883,3.469-1.6a2.659,2.659,0,0,1,.675-.2l-.059-.127,2.95-1.339-.417-.894Z" fill="red"/><path d="M6961.225,1157.034a5.92,5.92,0,0,1-.875-.076,3.743,3.743,0,0,1-1.169-.41,4.988,4.988,0,0,1-1.212-.944,6.178,6.178,0,0,1-1.1-1.691,6.615,6.615,0,0,1-.632-2.175,4.5,4.5,0,0,1,.2-1.875,3.982,3.982,0,0,1,.93-1.505,5.11,5.11,0,0,1,1.5-1.049,4.715,4.715,0,0,1,2.078-.486,4.478,4.478,0,0,1,1.817.405,4.716,4.716,0,0,1,1.454,1.058,5.669,5.669,0,0,1,1,1.474,6.059,6.059,0,0,1,.517,1.8,4.548,4.548,0,0,1-.148,1.874,4.354,4.354,0,0,1-.972,1.688,5.14,5.14,0,0,1-1.922,1.264l-.246.1-3.258-6.947a2.244,2.244,0,0,0-.511.452,2.127,2.127,0,0,0-.422.84,2.835,2.835,0,0,0-.056,1.06,4.159,4.159,0,0,0,.374,1.229,3.481,3.481,0,0,0,.644.981,2.817,2.817,0,0,0,.7.532,2.08,2.08,0,0,0,.641.218,3.606,3.606,0,0,0,.549.047l.253,0,.239,2.134-.31.005Zm-.355-9.65a4.208,4.208,0,0,0-1.77.435,4.552,4.552,0,0,0-1.336.932,3.431,3.431,0,0,0-.8,1.294,3.945,3.945,0,0,0-.171,1.642,6.076,6.076,0,0,0,.582,1.988,5.611,5.611,0,0,0,1,1.537,4.423,4.423,0,0,0,1.072.839,3.2,3.2,0,0,0,.991.351c.19.029.365.049.523.06l-.113-1.013c-.114-.008-.24-.022-.379-.043a2.661,2.661,0,0,1-.818-.274,3.386,3.386,0,0,1-.836-.636,4.027,4.027,0,0,1-.755-1.139,4.686,4.686,0,0,1-.422-1.4,3.378,3.378,0,0,1,.069-1.27,2.69,2.69,0,0,1,.534-1.058,2.9,2.9,0,0,1,.943-.739l.258-.13,3.282,7a4.408,4.408,0,0,0,1.47-1.016,3.81,3.81,0,0,0,.85-1.471,3.957,3.957,0,0,0,.129-1.643,5.468,5.468,0,0,0-.469-1.633,5.085,5.085,0,0,0-.9-1.326,4.125,4.125,0,0,0-1.281-.933,3.9,3.9,0,0,0-1.59-.353Zm1.9,7.37-2.9-6.227.309-.095a2.957,2.957,0,0,1,1.25-.119,3.065,3.065,0,0,1,1.1.359,3.379,3.379,0,0,1,.882.715,4.017,4.017,0,0,1,.627.959h0a4.231,4.231,0,0,1,.334,1.1,3.668,3.668,0,0,1,0,1.178,3.056,3.056,0,0,1-.408,1.1,2.522,2.522,0,0,1-.93.876Zm-2.113-5.862,2.357,5.054a1.847,1.847,0,0,0,.471-.511,2.51,2.51,0,0,0,.333-.9,3.079,3.079,0,0,0,0-1,3.64,3.64,0,0,0-.289-.954,3.46,3.46,0,0,0-.539-.824,2.823,2.823,0,0,0-.735-.6,2.5,2.5,0,0,0-.9-.292A2.271,2.271,0,0,0,6960.656,1148.892Z" fill="red"/><path d="M6959.111,1176.116l-.908-1.948,4.108-1.916a3.208,3.208,0,0,0,.9-.627,2.48,2.48,0,0,0,.739-1.922,3.286,3.286,0,0,0-.33-1.235,3.029,3.029,0,0,0-.885-1.156,3.432,3.432,0,0,0-1.131-.583,3.282,3.282,0,0,0-1.13-.126,2.575,2.575,0,0,0-.878.2l-3.978,1.836-.886-1.9,8.049-3.753.894,1.919-1.879.853.1.005a4.29,4.29,0,0,1,2.773,1.229,4.99,4.99,0,0,1,1.4,2.94,3.827,3.827,0,0,1-.163,1.569,3.981,3.981,0,0,1-.834,1.429,4.745,4.745,0,0,1-1.558,1.115Zm-.161-1.676.432.926,3.9-1.834a4.2,4.2,0,0,0,1.377-.979,3.437,3.437,0,0,0,.719-1.227,3.286,3.286,0,0,0,.139-1.34,4.415,4.415,0,0,0-1.235-2.594,3.834,3.834,0,0,0-1.117-.76,3.763,3.763,0,0,0-.92-.27,4.25,4.25,0,0,1,.838.5,3.578,3.578,0,0,1,1.054,1.366,3.844,3.844,0,0,1,.383,1.449,3.05,3.05,0,0,1-.9,2.344,3.732,3.732,0,0,1-1.065.738Zm-3.466-7.433.412.883,3.469-1.6a2.664,2.664,0,0,1,.675-.2l-.059-.127,2.95-1.339-.417-.894Z" fill="red"/><path d="M6957.628,1190.092l-1.5-3.218,6.519-7.035.97,2.081-5.693,6.085,8.321-.45.963,2.065Zm-.081-1.5.431.923,8.365-.411-.448-.963Zm-.75-1.609.437.938,5.712-6.1-.456-.978Z" fill="red"/><path d="M6957.385,1203.275l-.9-1.932,8.071-3.744.894,1.916Zm-.153-1.659.425.911,7.044-3.284-.418-.9Zm8.838-2.353-.894-1.917.893-.415.893,1.915Z" fill="red"/><path d="M6964.645,1215.471l-.07-.35a4.042,4.042,0,0,0-.74-1.726,3.741,3.741,0,0,0-1.161-1.009,3.083,3.083,0,0,0-1.255-.372,2.15,2.15,0,0,0-1.028.154l-4,1.826-.878-1.884,8.049-3.753.9,1.936-1.972.883c.065,0,.13.008.195.013a4.6,4.6,0,0,1,1.579.413,4.3,4.3,0,0,1,1.358,1.009,5.006,5.006,0,0,1,.976,1.665l.09.243Zm-1.993-3.721c.1.042.191.089.286.139a4.3,4.3,0,0,1,1.339,1.158,4.368,4.368,0,0,1,.769,1.617l.93-.433a4.269,4.269,0,0,0-.768-1.24,3.755,3.755,0,0,0-1.18-.879A4.075,4.075,0,0,0,6962.652,1211.75Zm-6.394.632.405.869,3.492-1.593a2.224,2.224,0,0,1,.608-.179l-.057-.12,3-1.346-.423-.908Z" fill="red"/><path d="M6961.208,1233.449a4.719,4.719,0,0,1-1.742-.33,5.045,5.045,0,0,1-1.552-.981,5.118,5.118,0,0,1-1.61-3.452,5.032,5.032,0,0,1,.246-1.82,4.719,4.719,0,0,1,.89-1.573,4.332,4.332,0,0,1,1.486-1.121h0a4.347,4.347,0,0,1,1.815-.418,4.807,4.807,0,0,1,1.777.329,5.027,5.027,0,0,1,1.552.982,5.116,5.116,0,0,1,1.61,3.452,5.065,5.065,0,0,1-.247,1.82,4.716,4.716,0,0,1-.889,1.572,4.462,4.462,0,0,1-3.3,1.54Zm-.432-9.133h-.031a3.8,3.8,0,0,0-1.581.365h0a3.775,3.775,0,0,0-1.3.976,4.152,4.152,0,0,0-.784,1.385,4.478,4.478,0,0,0-.218,1.618,4.557,4.557,0,0,0,1.428,3.062,4.482,4.482,0,0,0,1.379.873,4.153,4.153,0,0,0,1.566.29,3.906,3.906,0,0,0,2.877-1.341,4.159,4.159,0,0,0,.784-1.386,4.507,4.507,0,0,0,.218-1.618,4.56,4.56,0,0,0-1.428-3.062,4.521,4.521,0,0,0-1.379-.873A4.172,4.172,0,0,0,6960.776,1224.316Zm.636,7.846-.113,0a3.508,3.508,0,0,1-1.248-.289,3.868,3.868,0,0,1-1.123-.75,3.789,3.789,0,0,1-.836-1.167,3.854,3.854,0,0,1-.365-1.407,4.128,4.128,0,0,1,.139-1.352,3.373,3.373,0,0,1,.576-1.162,2.645,2.645,0,0,1,2.222-1.036,3.263,3.263,0,0,1,1.255.31,4.11,4.11,0,0,1,1.11.772,3.962,3.962,0,0,1,.833,1.184,3.921,3.921,0,0,1,.364,1.384,3.864,3.864,0,0,1-.131,1.336,3.392,3.392,0,0,1-.574,1.14,2.639,2.639,0,0,1-2.109,1.039Zm-.861-6.6a2.072,2.072,0,0,0-.888.195h0a2.082,2.082,0,0,0-.776.625,2.781,2.781,0,0,0-.479.969,3.557,3.557,0,0,0-.119,1.168,3.291,3.291,0,0,0,.312,1.2,3.243,3.243,0,0,0,.713,1,3.309,3.309,0,0,0,.96.643,2.937,2.937,0,0,0,1.048.243,2.073,2.073,0,0,0,.977-.193,2.1,2.1,0,0,0,.777-.626,2.829,2.829,0,0,0,.479-.951,3.371,3.371,0,0,0-.2-2.328,3.421,3.421,0,0,0-.714-1.016,3.537,3.537,0,0,0-.957-.667,2.71,2.71,0,0,0-1.04-.258Z" fill="red"/><path d="M6959.111,1252.856l-.908-1.948,4.108-1.916a3.166,3.166,0,0,0,.9-.627,2.479,2.479,0,0,0,.739-1.921,3.29,3.29,0,0,0-.33-1.236,3.033,3.033,0,0,0-.885-1.155,3.432,3.432,0,0,0-1.131-.583,3.258,3.258,0,0,0-1.13-.126,2.575,2.575,0,0,0-.878.2l-3.978,1.836-.886-1.9,8.049-3.753.894,1.919-1.879.853.1.005a4.3,4.3,0,0,1,2.773,1.228,5,5,0,0,1,1.4,2.941,3.829,3.829,0,0,1-.163,1.569,3.989,3.989,0,0,1-.834,1.429,4.729,4.729,0,0,1-1.558,1.114Zm-.161-1.676.432.926,3.9-1.834a4.184,4.184,0,0,0,1.377-.979,3.437,3.437,0,0,0,.719-1.227,3.281,3.281,0,0,0,.139-1.339,4.421,4.421,0,0,0-1.235-2.6,3.828,3.828,0,0,0-1.117-.759,3.721,3.721,0,0,0-.92-.27,4.256,4.256,0,0,1,.838.5,3.571,3.571,0,0,1,1.054,1.366,3.839,3.839,0,0,1,.383,1.449,3.046,3.046,0,0,1-.9,2.343,3.755,3.755,0,0,1-1.065.739Zm-3.466-7.432.412.883,3.469-1.6a2.62,2.62,0,0,1,.675-.2l-.059-.128,2.95-1.339-.417-.894Z" fill="red"/><path d="M6960.687,1277.782l-.908-1.948,3.971-1.851a3.106,3.106,0,0,0,1.734-1.6,2.708,2.708,0,0,0-.248-2.172,3.085,3.085,0,0,0-.769-1.012,2.708,2.708,0,0,0-.993-.54,3.13,3.13,0,0,0-1.125-.1,3.363,3.363,0,0,0-1.137.308l-3.848,1.794-.923-1.978,4.017-1.873a2.964,2.964,0,0,0,1.672-1.572,2.653,2.653,0,0,0-.244-2.127,3.023,3.023,0,0,0-.759-.992,2.812,2.812,0,0,0-1-.543,3.015,3.015,0,0,0-1.126-.113,3.335,3.335,0,0,0-1.137.307l-3.834,1.747-.864-1.853,8.049-3.753.881,1.889-1.811.821a4.343,4.343,0,0,1,1.444.308,4.09,4.09,0,0,1,1.272.818,4.3,4.3,0,0,1,.936,1.321,4.449,4.449,0,0,1,.441,1.7,3.852,3.852,0,0,1-.237,1.519,3.62,3.62,0,0,1-.794,1.24c-.06.061-.121.12-.184.177.124-.006.247-.007.37,0a4.382,4.382,0,0,1,1.5.308,4.022,4.022,0,0,1,1.28.834,4.951,4.951,0,0,1,1.418,3.129,3.482,3.482,0,0,1-.3,1.555,3.846,3.846,0,0,1-.959,1.282,6.1,6.1,0,0,1-1.486.957Zm-.161-1.676.432.927,3.79-1.785a5.566,5.566,0,0,0,1.351-.868,3.28,3.28,0,0,0,.82-1.093,2.931,2.931,0,0,0,.248-1.306,3.992,3.992,0,0,0-.412-1.547,3.906,3.906,0,0,0-.833-1.193,3.47,3.47,0,0,0-1.1-.719,3.648,3.648,0,0,0-.653-.194,3.411,3.411,0,0,1,.661.438,3.66,3.66,0,0,1,.911,1.193,3.251,3.251,0,0,1,.272,2.618,3.635,3.635,0,0,1-2.025,1.915Zm-3.337-7.157.447.959,3.339-1.557a3.949,3.949,0,0,1,.706-.253l-.027-.057.233-.153a3.856,3.856,0,0,0,1.059-.763,3.049,3.049,0,0,0,.671-1.048,3.272,3.272,0,0,0,.2-1.3,3.878,3.878,0,0,0-.389-1.48,3.757,3.757,0,0,0-.811-1.149,3.532,3.532,0,0,0-1.1-.707,3.616,3.616,0,0,0-.7-.2,3.47,3.47,0,0,1,.671.441,3.59,3.59,0,0,1,.9,1.174,3.221,3.221,0,0,1,.269,2.567,3.489,3.489,0,0,1-1.963,1.892Zm-3.273-7.019.391.838,3.323-1.515a3.927,3.927,0,0,1,.738-.26l-.048-.1,3.028-1.375-.4-.864Z" fill="red"/><path d="M6961.225,1294.094a5.8,5.8,0,0,1-.875-.077,3.69,3.69,0,0,1-1.169-.41,4.967,4.967,0,0,1-1.212-.944,6.16,6.16,0,0,1-1.1-1.691,6.609,6.609,0,0,1-.632-2.175,4.5,4.5,0,0,1,.2-1.875,3.978,3.978,0,0,1,.93-1.5,5.072,5.072,0,0,1,1.5-1.049,4.715,4.715,0,0,1,2.078-.487,4.478,4.478,0,0,1,1.817.406,4.716,4.716,0,0,1,1.454,1.058,5.666,5.666,0,0,1,1,1.473,6.065,6.065,0,0,1,.517,1.8,4.55,4.55,0,0,1-.148,1.874,4.356,4.356,0,0,1-.972,1.688,5.153,5.153,0,0,1-1.922,1.264l-.246.1-3.258-6.946a2.261,2.261,0,0,0-.511.451,2.141,2.141,0,0,0-.422.84,2.84,2.84,0,0,0-.056,1.061,4.159,4.159,0,0,0,.374,1.229,3.482,3.482,0,0,0,.644.981,2.841,2.841,0,0,0,.7.531,2.084,2.084,0,0,0,.641.219,3.151,3.151,0,0,0,.549.046h.253l.239,2.134-.31.005Zm-.355-9.65a4.219,4.219,0,0,0-1.77.434,4.532,4.532,0,0,0-1.336.933,3.423,3.423,0,0,0-.8,1.294,3.944,3.944,0,0,0-.171,1.642,6.075,6.075,0,0,0,.582,1.988,5.626,5.626,0,0,0,1,1.537,4.447,4.447,0,0,0,1.072.839,3.175,3.175,0,0,0,.991.35c.19.03.365.05.523.061l-.113-1.013c-.114-.008-.24-.023-.379-.043a2.661,2.661,0,0,1-.818-.274,3.416,3.416,0,0,1-.836-.636,4.036,4.036,0,0,1-.755-1.14,4.671,4.671,0,0,1-.422-1.4,3.378,3.378,0,0,1,.069-1.27,2.7,2.7,0,0,1,.534-1.059,2.915,2.915,0,0,1,.943-.739l.258-.129,3.282,7a4.392,4.392,0,0,0,1.47-1.016,3.8,3.8,0,0,0,.85-1.47,3.958,3.958,0,0,0,.129-1.643,5.467,5.467,0,0,0-.469-1.633,5.072,5.072,0,0,0-.9-1.326,4.144,4.144,0,0,0-1.281-.934,3.922,3.922,0,0,0-1.59-.352Zm1.9,7.37-2.9-6.228.309-.094a2.957,2.957,0,0,1,1.25-.119,3.046,3.046,0,0,1,1.1.359,3.359,3.359,0,0,1,.882.715,4,4,0,0,1,.627.959h0a4.232,4.232,0,0,1,.334,1.1,3.669,3.669,0,0,1,0,1.178,3.055,3.055,0,0,1-.408,1.1,2.521,2.521,0,0,1-.93.876Zm-2.113-5.862,2.357,5.054a1.843,1.843,0,0,0,.471-.511,2.51,2.51,0,0,0,.333-.9,3.078,3.078,0,0,0,0-1,3.638,3.638,0,0,0-.289-.954,3.489,3.489,0,0,0-.539-.825,2.818,2.818,0,0,0-.735-.6,2.5,2.5,0,0,0-.9-.292A2.268,2.268,0,0,0,6960.656,1285.952Z" fill="red"/><path d="M6959.111,1313.175l-.908-1.948,4.108-1.916a3.169,3.169,0,0,0,.9-.627,2.479,2.479,0,0,0,.739-1.921,3.29,3.29,0,0,0-.33-1.236,3.044,3.044,0,0,0-.885-1.156,3.432,3.432,0,0,0-1.131-.583,3.257,3.257,0,0,0-1.13-.125,2.53,2.53,0,0,0-.878.2l-3.978,1.835-.886-1.9,8.049-3.752.894,1.919-1.879.852.1.006a4.284,4.284,0,0,1,2.773,1.228,4.99,4.99,0,0,1,1.4,2.94,3.825,3.825,0,0,1-.163,1.569,3.984,3.984,0,0,1-.834,1.43,4.725,4.725,0,0,1-1.558,1.114Zm-.161-1.676.432.927,3.9-1.835a4.169,4.169,0,0,0,1.377-.979,3.438,3.438,0,0,0,.719-1.227,3.283,3.283,0,0,0,.139-1.34,4.414,4.414,0,0,0-1.235-2.594,3.829,3.829,0,0,0-1.117-.76,3.761,3.761,0,0,0-.92-.269,4.215,4.215,0,0,1,.838.5,3.567,3.567,0,0,1,1.054,1.365,3.844,3.844,0,0,1,.383,1.449,3.047,3.047,0,0,1-.9,2.344,3.737,3.737,0,0,1-1.065.739Zm-3.466-7.432.412.883,3.469-1.6a2.659,2.659,0,0,1,.675-.2l-.059-.127,2.95-1.339-.417-.894Z" fill="red"/><path d="M6957.967,1326.356l-.483-1.035a4.3,4.3,0,0,1-.4-1.449,3.359,3.359,0,0,1,.181-1.421,3.556,3.556,0,0,1,.812-1.269,4.889,4.889,0,0,1,1.466-1.006q.825-.384,1.638-.773.69-.33,1.388-.656l-.25-.536,1.459-.68.249.536,2.324-1.084.88,1.886-2.325,1.084.685,1.468-1.458.68-.684-1.468q-.621.291-1.238.586-.747.359-1.5.708a3.665,3.665,0,0,0-1.166.77,1.462,1.462,0,0,0-.386.755,1.773,1.773,0,0,0,.083.831,9.054,9.054,0,0,0,.394.981l.119.255Zm5.1-7.873.25.536-.255.119q-.825.384-1.638.773t-1.643.775a4.33,4.33,0,0,0-1.3.886,3.045,3.045,0,0,0-.687,1.068,2.806,2.806,0,0,0-.149,1.185,3.7,3.7,0,0,0,.345,1.258l.245.525.778-.363c-.117-.269-.219-.532-.3-.785a2.335,2.335,0,0,1-.1-1.091,2.015,2.015,0,0,1,.523-1.047,4.129,4.129,0,0,1,1.348-.905q.747-.348,1.492-.7t1.5-.708l.255-.119.684,1.468.439-.2-.685-1.468,2.324-1.084-.4-.866-2.324,1.083-.25-.535Z" fill="red"/></g></svg>