<svg xmlns="http://www.w3.org/2000/svg" width="288.781" height="19.432" viewBox="0 0 288.781 19.432"><g transform="translate(-1601.445 -1338.269)"><rect width="288.781" height="19.37" transform="translate(1601.445 1338.269)" fill="#fff"/><path d="M1625.337,1354.619l-5.144-11.031,7-3.264a5.278,5.278,0,0,1,1.408-.439,3.8,3.8,0,0,1,1.344.017,2.85,2.85,0,0,1,1.177.534,2.918,2.918,0,0,1,.861,1.111,2.661,2.661,0,0,1,.27,1.764,2.953,2.953,0,0,1-.67,1.278c-.053.059-.107.115-.163.17.131-.016.264-.028.4-.034a3.149,3.149,0,0,1,1.061.128,2.857,2.857,0,0,1,1,.545,3.085,3.085,0,0,1,.8,1.092,3.131,3.131,0,0,1,.124,2.79,4.655,4.655,0,0,1-2.344,2.018Zm-4.4-10.759,4.668,10.011,6.611-3.083a4.126,4.126,0,0,0,2.077-1.756,2.568,2.568,0,0,0-.129-2.3,2.539,2.539,0,0,0-.648-.9,2.3,2.3,0,0,0-.8-.44,2.629,2.629,0,0,0-.873-.106,4.467,4.467,0,0,0-.877.129,5.693,5.693,0,0,0-.754.245,4.989,4.989,0,0,0-.5.23l-.264.15-.271-.576.256-.119c.2-.093.476-.234.828-.423a3.327,3.327,0,0,0,.9-.71,2.39,2.39,0,0,0,.542-1.038,2.119,2.119,0,0,0-.234-1.389,2.368,2.368,0,0,0-.692-.9,2.277,2.277,0,0,0-.947-.429,3.256,3.256,0,0,0-1.147-.014,4.716,4.716,0,0,0-1.256.394Zm5.073,8.9-1.885-4.043,5.684-2.65a5.279,5.279,0,0,1,.971-.344,2.616,2.616,0,0,1,.981-.061,1.965,1.965,0,0,1,.9.363,2.22,2.22,0,0,1,.683.883,2.127,2.127,0,0,1,.117,1.736,2.834,2.834,0,0,1-1.565,1.373Zm-1.137-3.771,1.409,3.023,5.373-2.505a2.363,2.363,0,0,0,1.28-1.072,1.567,1.567,0,0,0-.1-1.289,1.692,1.692,0,0,0-.505-.666,1.375,1.375,0,0,0-.641-.26,2.058,2.058,0,0,0-.773.049,4.666,4.666,0,0,0-.866.308Zm-1.123-1.077-1.693-3.63,5.745-2.678a3.323,3.323,0,0,1,.869-.273,2.382,2.382,0,0,1,.848.007,1.884,1.884,0,0,1,.74.322,1.7,1.7,0,0,1,.536.664,1.838,1.838,0,0,1,.181,1.165,2.2,2.2,0,0,1-.4.879,2.576,2.576,0,0,1-.666.613,5.687,5.687,0,0,1-.6.338Zm-.945-3.358,1.217,2.61,5.051-2.355a5.254,5.254,0,0,0,.536-.3,2.022,2.022,0,0,0,.52-.48,1.645,1.645,0,0,0,.3-.657,1.291,1.291,0,0,0-.141-.807,1.134,1.134,0,0,0-.356-.447,1.313,1.313,0,0,0-.52-.225,1.822,1.822,0,0,0-.647,0,2.779,2.779,0,0,0-.722.227Z" fill="red"/><path d="M1644.95,1352.572l-3.743-8.071,1.915-.894,3.761,8.064Zm-3-7.8,3.271,7.052.911-.426-3.285-7.044Zm-1-.893-.415-.892,1.916-.894.417.892Z" fill="red"/><path d="M1655.718,1353.545l-3.753-8.048,1.936-.9.883,1.972c0-.065.007-.13.012-.194a4.648,4.648,0,0,1,.413-1.58,4.289,4.289,0,0,1,1.01-1.358,4.991,4.991,0,0,1,1.665-.976l.243-.09.952,2.043-.351.07a4.048,4.048,0,0,0-1.726.74,3.752,3.752,0,0,0-1.009,1.161,3.065,3.065,0,0,0-.371,1.255,2.131,2.131,0,0,0,.154,1.029l1.826,4Zm-3.006-7.776,3.278,7.029.869-.405-1.594-3.492a2.221,2.221,0,0,1-.178-.608l-.121.057-1.345-3.005Zm5.126-2.689a4.247,4.247,0,0,0-1.239.769,3.72,3.72,0,0,0-.88,1.18,4.063,4.063,0,0,0-.361,1.375c.042-.1.088-.191.139-.286a4.286,4.286,0,0,1,1.157-1.338,4.372,4.372,0,0,1,1.617-.77Z" fill="red"/><path d="M1672.252,1351.98a3.307,3.307,0,0,1-1.124-.193,3.563,3.563,0,0,1-1.269-.811,4.9,4.9,0,0,1-1.006-1.467q-.384-.825-.773-1.638-.33-.69-.656-1.388l-.535.25-.68-1.459.535-.249-1.084-2.324,1.886-.88,1.084,2.325,1.468-.685.68,1.458-1.468.684q.291.621.586,1.238.359.747.708,1.5a3.648,3.648,0,0,0,.77,1.166,1.46,1.46,0,0,0,.755.386,1.776,1.776,0,0,0,.831-.083,9.079,9.079,0,0,0,.981-.394l.255-.119.837,1.794-1.035.483a4.284,4.284,0,0,1-1.449.4Q1672.4,1351.98,1672.252,1351.98Zm-4.556-6.245.119.255q.384.825.773,1.638t.775,1.643a4.33,4.33,0,0,0,.887,1.3,3.027,3.027,0,0,0,1.067.687,2.788,2.788,0,0,0,1.185.149,3.708,3.708,0,0,0,1.258-.345l.525-.245-.363-.778c-.268.118-.532.219-.784.3a2.339,2.339,0,0,1-1.092.106,2.013,2.013,0,0,1-1.047-.523,4.145,4.145,0,0,1-.905-1.349q-.348-.747-.7-1.492t-.708-1.5l-.119-.255,1.469-.684-.2-.439-1.468.685-1.084-2.324-.866.4,1.084,2.324-.536.25.2.438Z" fill="red"/><path d="M1683.122,1354.319l-5.179-11.107,1.933-.9,2.273,4.94c0-.032,0-.063,0-.094a4.218,4.218,0,0,1,.349-1.488,4.362,4.362,0,0,1,.877-1.286,4.818,4.818,0,0,1,1.423-.981,4.743,4.743,0,0,1,1.518-.421,3.826,3.826,0,0,1,1.566.164,3.977,3.977,0,0,1,1.428.835,4.725,4.725,0,0,1,1.114,1.558l2.075,4.407-1.948.909-1.916-4.109a3.13,3.13,0,0,0-.619-.89,2.587,2.587,0,0,0-1.94-.77,3.464,3.464,0,0,0-2.414,1.21,3.223,3.223,0,0,0-.569,1.129,3.283,3.283,0,0,0-.1,1.137,2.72,2.72,0,0,0,.209.886l1.835,3.979Zm-4.431-10.835,4.7,10.088.9-.419-1.6-3.469a2.751,2.751,0,0,1-.2-.673l-.122.056-2.764-6.008Zm7.447,1.038a3.142,3.142,0,0,1,2.28.935,3.716,3.716,0,0,1,.731,1.05l1.678,3.6.926-.432-1.834-3.9a4.172,4.172,0,0,0-.979-1.377,3.442,3.442,0,0,0-1.226-.72,3.249,3.249,0,0,0-1.337-.139,4.161,4.161,0,0,0-1.338.371,4.274,4.274,0,0,0-1.258.864,3.8,3.8,0,0,0-.764,1.119,3.618,3.618,0,0,0-.241.78,4.148,4.148,0,0,1,.441-.721,4.026,4.026,0,0,1,2.853-1.432Z" fill="red"/><path d="M1711.788,1352.572l-3.743-8.071,1.915-.894,3.761,8.064Zm-3-7.8,3.27,7.052.912-.426-3.285-7.044Zm-1-.893-.415-.892,1.916-.894.417.892Z" fill="red"/><path d="M1723.711,1352.965a4.186,4.186,0,0,1-.7-.055,3.845,3.845,0,0,1-1.2-.39,4.284,4.284,0,0,1-.8-.545l-.221-.2,1.461-1.474.2.179a2.716,2.716,0,0,0,.448.311,1.936,1.936,0,0,0,.659.209,3.178,3.178,0,0,0,.964-.024,4.964,4.964,0,0,0,1.3-.434,9.007,9.007,0,0,0,.866-.466,3.922,3.922,0,0,0,.753-.584,1.778,1.778,0,0,0,.421-.634.755.755,0,0,0-.046-.6.512.512,0,0,0-.493-.359,2.423,2.423,0,0,0-.98.247l-1.636.763a10.251,10.251,0,0,1-1.334.507,5.166,5.166,0,0,1-1.388.233,2.836,2.836,0,0,1-1.278-.262,2.091,2.091,0,0,1-.972-1.013,2.066,2.066,0,0,1-.159-1.382,3.127,3.127,0,0,1,.625-1.243,5.63,5.63,0,0,1,1.136-1.051,9.262,9.262,0,0,1,1.444-.836,6.544,6.544,0,0,1,1.29-.446,5.373,5.373,0,0,1,1.338-.142,4.385,4.385,0,0,1,1.284.216,3.3,3.3,0,0,1,1.141.658l.223.194-1.415,1.463-.2-.188a1.742,1.742,0,0,0-1.244-.447,3.885,3.885,0,0,0-1.7.415,9.042,9.042,0,0,0-.918.491,3.743,3.743,0,0,0-.689.528,1.669,1.669,0,0,0-.368.511.422.422,0,0,0,0,.364.4.4,0,0,0,.237.233,1.206,1.206,0,0,0,.5.044,3.159,3.159,0,0,0,.683-.148,7.985,7.985,0,0,0,.755-.289q.381-.168.739-.345c.245-.12.459-.223.644-.309a9.333,9.333,0,0,1,1.239-.473,4.306,4.306,0,0,1,1.274-.194,2.2,2.2,0,0,1,2.08,1.386,2.556,2.556,0,0,1,.2,1.687,3.457,3.457,0,0,1-.715,1.378,5.478,5.478,0,0,1-1.207,1.054,10.949,10.949,0,0,1-1.311.735,7.441,7.441,0,0,1-2.018.654A6.255,6.255,0,0,1,1723.711,1352.965Zm-2.1-1.225a4.484,4.484,0,0,0,.463.286,3.312,3.312,0,0,0,1.029.33,4.71,4.71,0,0,0,1.423-.017,6.873,6.873,0,0,0,1.861-.608,10.313,10.313,0,0,0,1.243-.7,4.919,4.919,0,0,0,1.083-.945,2.879,2.879,0,0,0,.6-1.153,2,2,0,0,0-.162-1.316,1.639,1.639,0,0,0-1.572-1.057,3.718,3.718,0,0,0-1.108.171,8.7,8.7,0,0,0-1.163.443q-.273.127-.634.305t-.76.354a8.463,8.463,0,0,1-.808.31,3.719,3.719,0,0,1-.8.173,1.762,1.762,0,0,1-.73-.071.962.962,0,0,1-.566-.528.986.986,0,0,1-.01-.823,2.223,2.223,0,0,1,.488-.689,4.4,4.4,0,0,1,.792-.609,9.732,9.732,0,0,1,.974-.521,4.592,4.592,0,0,1,1.937-.467h.006a2.376,2.376,0,0,1,1.412.422l.622-.643a2.716,2.716,0,0,0-.714-.363,3.819,3.819,0,0,0-1.12-.188,4.823,4.823,0,0,0-1.2.128,5.984,5.984,0,0,0-1.18.407,8.706,8.706,0,0,0-1.356.786,5.07,5.07,0,0,0-1.024.944,2.588,2.588,0,0,0-.516,1.02,1.49,1.49,0,0,0,.119,1.009,1.518,1.518,0,0,0,.7.748,2.308,2.308,0,0,0,1.026.209,4.648,4.648,0,0,0,1.237-.209,9.6,9.6,0,0,0,1.26-.479l1.635-.763a2.808,2.808,0,0,1,1.223-.3,1.066,1.066,0,0,1,1,.684,1.3,1.3,0,0,1,.064,1.031,2.359,2.359,0,0,1-.55.837,4.472,4.472,0,0,1-.861.668,9.834,9.834,0,0,1-.919.495,5.534,5.534,0,0,1-1.455.48,3.777,3.777,0,0,1-1.135.024,2.45,2.45,0,0,1-.853-.277,3.827,3.827,0,0,1-.335-.213Z" fill="red"/><path d="M1751.118,1353.266a3.006,3.006,0,0,1-.961-.154,2.894,2.894,0,0,1-.95-.536,2.546,2.546,0,0,1-.672-.878,2.357,2.357,0,0,1-.208-1.474,3.39,3.39,0,0,1,.587-1.309,6.418,6.418,0,0,1,1.064-1.14c.409-.347.834-.685,1.265-1s.843-.623,1.242-.915a7.846,7.846,0,0,0,.813-.673l-.19-.408-5.612,2.617-.794-1.7,7.376-3.439,3.753,8.049-1.8.839-1.248-2.822c0,.136-.007.272-.014.407a7.144,7.144,0,0,1-.312,1.744,4.777,4.777,0,0,1-.762,1.483,3.45,3.45,0,0,1-1.292,1.028,2.99,2.99,0,0,1-1.141.285C1751.214,1353.265,1751.166,1353.266,1751.118,1353.266Zm2.262-9.239.593,1.271-.134.139a7.864,7.864,0,0,1-1.022.873q-.6.436-1.239.913c-.421.311-.837.642-1.235.981a5.883,5.883,0,0,0-.973,1.039,2.837,2.837,0,0,0-.491,1.092,1.766,1.766,0,0,0,.166,1.125,1.968,1.968,0,0,0,.524.686,2.334,2.334,0,0,0,.768.433,2.465,2.465,0,0,0,.9.122,2.425,2.425,0,0,0,.928-.232,2.9,2.9,0,0,0,1.084-.862,4.225,4.225,0,0,0,.672-1.309,6.41,6.41,0,0,0,.233-1.051c-.053.151-.11.3-.173.441a4.634,4.634,0,0,1-.739,1.187,3.25,3.25,0,0,1-1.1.826,1.78,1.78,0,0,1-1.323.117,1.478,1.478,0,0,1-.934-.808h0a1.32,1.32,0,0,1-.065-1,2.672,2.672,0,0,1,.519-.879,6.275,6.275,0,0,1,.847-.805q.481-.384.989-.753t.973-.722a8.689,8.689,0,0,0,.785-.663l.284-.275.3.653.081-.038,1.707,3.86.77-.359-3.278-7.03-6.357,2.964.319.683Zm-2.98,6.745a.924.924,0,0,0,.594.509,1.221,1.221,0,0,0,.916-.089,2.7,2.7,0,0,0,.907-.685,4.055,4.055,0,0,0,.65-1.044,6.205,6.205,0,0,0,.4-1.3,8.771,8.771,0,0,0,.143-1.282c-.156.134-.327.272-.512.412q-.479.363-.983.73t-.968.737a5.626,5.626,0,0,0-.771.731,2.109,2.109,0,0,0-.412.691.76.76,0,0,0,.041.586Z" fill="red"/><path d="M1779.085,1352.785a4.657,4.657,0,0,1-1.184-.152,4.341,4.341,0,0,1-1.624-.835,4.576,4.576,0,0,1-1.243-1.66,4.624,4.624,0,0,1-.475-2.066,4.3,4.3,0,0,1,.434-1.824,4.988,4.988,0,0,1,1.1-1.462,6.03,6.03,0,0,1,1.525-1.024,5.889,5.889,0,0,1,1.446-.462,4.867,4.867,0,0,1,1.473-.042,4.478,4.478,0,0,1,1.411.427,4.231,4.231,0,0,1,1.259.966l.189.208-1.416,1.289-.19-.2a2.607,2.607,0,0,0-1.522-.809,3.279,3.279,0,0,0-1.886.336,3.8,3.8,0,0,0-.978.656,2.955,2.955,0,0,0-.669.9,2.6,2.6,0,0,0-.249,1.087,2.718,2.718,0,0,0,.282,1.215,2.637,2.637,0,0,0,.739.981,2.56,2.56,0,0,0,.971.482,2.945,2.945,0,0,0,1.1.051,3.762,3.762,0,0,0,1.091-.318,3.461,3.461,0,0,0,1.482-1.221,2.469,2.469,0,0,0,.4-1.663l-.027-.272,1.942-.253.031.286a4.066,4.066,0,0,1-.125,1.577,4.769,4.769,0,0,1-.634,1.354,5.177,5.177,0,0,1-1.012,1.1,6.074,6.074,0,0,1-1.276.8,5.854,5.854,0,0,1-1.751.5A5.014,5.014,0,0,1,1779.085,1352.785Zm.862-9a4.4,4.4,0,0,0-.78.071,5.331,5.331,0,0,0-1.309.418,5.469,5.469,0,0,0-1.381.928,4.405,4.405,0,0,0-.98,1.3,3.751,3.751,0,0,0-.376,1.588,4.076,4.076,0,0,0,.423,1.815,4.03,4.03,0,0,0,1.087,1.461,3.754,3.754,0,0,0,1.413.728,4.168,4.168,0,0,0,1.582.1,5.3,5.3,0,0,0,1.582-.456,5.539,5.539,0,0,0,1.158-.725,4.587,4.587,0,0,0,.9-.983,4.179,4.179,0,0,0,.56-1.2,3.4,3.4,0,0,0,.127-1.073l-.832.109a3.034,3.034,0,0,1-.5,1.754,4.02,4.02,0,0,1-1.715,1.423,4.308,4.308,0,0,1-1.254.365,3.481,3.481,0,0,1-1.3-.062,3.1,3.1,0,0,1-1.185-.586,3.182,3.182,0,0,1-.9-1.185,3.3,3.3,0,0,1-.335-1.465,3.179,3.179,0,0,1,.3-1.318,3.5,3.5,0,0,1,.794-1.07,4.361,4.361,0,0,1,1.122-.753,3.836,3.836,0,0,1,2.209-.382,3.146,3.146,0,0,1,1.644.784l.6-.543a3.577,3.577,0,0,0-.9-.638,3.9,3.9,0,0,0-1.234-.374A4.092,4.092,0,0,0,1779.947,1343.783Z" fill="red"/><path d="M1794.28,1354.319l-5.179-11.107,1.933-.9,2.273,4.94c0-.032,0-.063,0-.094a4.213,4.213,0,0,1,.349-1.488,4.362,4.362,0,0,1,.877-1.286,4.821,4.821,0,0,1,1.423-.981,4.743,4.743,0,0,1,1.518-.421,3.825,3.825,0,0,1,1.566.164,3.979,3.979,0,0,1,1.428.835,4.728,4.728,0,0,1,1.114,1.558l2.075,4.407-1.948.909-1.916-4.109a3.13,3.13,0,0,0-.619-.89,2.587,2.587,0,0,0-1.94-.77,3.059,3.059,0,0,0-1.232.313,3.1,3.1,0,0,0-1.183.9,3.239,3.239,0,0,0-.568,1.129,3.286,3.286,0,0,0-.1,1.137,2.723,2.723,0,0,0,.209.886l1.835,3.979Zm-4.431-10.835,4.7,10.088.9-.419-1.6-3.469a2.751,2.751,0,0,1-.2-.673l-.122.056-2.764-6.008Zm7.447,1.038a3.142,3.142,0,0,1,2.28.935,3.715,3.715,0,0,1,.731,1.05l1.678,3.6.926-.432-1.834-3.9a4.175,4.175,0,0,0-.979-1.377,3.442,3.442,0,0,0-1.226-.72,3.247,3.247,0,0,0-1.337-.139,4.16,4.16,0,0,0-1.338.371,4.273,4.273,0,0,0-1.258.864,3.783,3.783,0,0,0-.764,1.119,3.558,3.558,0,0,0-.241.78,4.156,4.156,0,0,1,.441-.721,4.026,4.026,0,0,1,2.853-1.432Z" fill="red"/><path d="M1813.374,1353.266a3.006,3.006,0,0,1-.961-.154,2.894,2.894,0,0,1-.95-.536,2.545,2.545,0,0,1-.671-.878,2.344,2.344,0,0,1-.208-1.474,3.374,3.374,0,0,1,.586-1.309,6.453,6.453,0,0,1,1.064-1.14c.409-.347.834-.685,1.265-1s.843-.623,1.242-.915a7.846,7.846,0,0,0,.813-.673l-.19-.408-5.612,2.617-.794-1.7,7.376-3.439,3.753,8.049-1.8.839-1.248-2.822c0,.136-.006.272-.014.407a7.191,7.191,0,0,1-.311,1.744,4.776,4.776,0,0,1-.763,1.483,3.441,3.441,0,0,1-1.292,1.028,2.989,2.989,0,0,1-1.141.285C1813.47,1353.265,1813.422,1353.266,1813.374,1353.266Zm2.262-9.239.593,1.271-.134.139a7.847,7.847,0,0,1-1.022.873q-.6.436-1.239.913c-.42.311-.836.642-1.235.981a5.84,5.84,0,0,0-.972,1.039,2.841,2.841,0,0,0-.492,1.092,1.773,1.773,0,0,0,.166,1.125,1.968,1.968,0,0,0,.524.686,2.345,2.345,0,0,0,.768.433,2.47,2.47,0,0,0,.9.122,2.424,2.424,0,0,0,.927-.232,2.891,2.891,0,0,0,1.084-.862,4.181,4.181,0,0,0,.672-1.309,6.41,6.41,0,0,0,.233-1.051q-.079.227-.172.441a4.66,4.66,0,0,1-.74,1.187,3.24,3.24,0,0,1-1.095.826,1.78,1.78,0,0,1-1.323.117,1.48,1.48,0,0,1-.934-.808h0a1.31,1.31,0,0,1-.065-1,2.649,2.649,0,0,1,.518-.879,6.275,6.275,0,0,1,.847-.805q.481-.384.989-.753t.973-.722a8.7,8.7,0,0,0,.785-.663l.284-.275.3.653.082-.038,1.706,3.86.77-.359-3.278-7.03-6.357,2.964.319.683Zm-2.98,6.745a.924.924,0,0,0,.594.509,1.221,1.221,0,0,0,.916-.089,2.7,2.7,0,0,0,.908-.685,4.079,4.079,0,0,0,.649-1.044,6.084,6.084,0,0,0,.4-1.3,8.623,8.623,0,0,0,.143-1.282c-.156.134-.327.272-.512.412q-.478.363-.983.73t-.968.737a5.683,5.683,0,0,0-.771.731,2.109,2.109,0,0,0-.412.691.76.76,0,0,0,.041.586Z" fill="red"/><path d="M1828.931,1354.319l-3.753-8.048,1.919-.9.853,1.879c0-.032,0-.065.005-.1a4.293,4.293,0,0,1,1.229-2.772,4.981,4.981,0,0,1,2.94-1.4,3.825,3.825,0,0,1,1.569.163,3.972,3.972,0,0,1,1.429.834,4.743,4.743,0,0,1,1.115,1.558l2.074,4.407-1.947.909-1.916-4.109a3.191,3.191,0,0,0-.628-.905,2.478,2.478,0,0,0-1.921-.739,3.313,3.313,0,0,0-1.236.331,3.013,3.013,0,0,0-1.155.885,3.415,3.415,0,0,0-.583,1.13,3.259,3.259,0,0,0-.126,1.13,2.576,2.576,0,0,0,.2.878l1.836,3.978Zm-3.006-7.776,3.278,7.029.883-.412-1.6-3.469a2.659,2.659,0,0,1-.2-.675l-.128.06-1.338-2.95Zm6.1-2.007a3.044,3.044,0,0,1,1.138.211,3.115,3.115,0,0,1,1.051.7,3.746,3.746,0,0,1,.739,1.065l1.678,3.6.927-.432-1.835-3.9a4.173,4.173,0,0,0-.978-1.376,3.44,3.44,0,0,0-1.228-.72,3.247,3.247,0,0,0-1.339-.138,4.151,4.151,0,0,0-1.341.373,4.2,4.2,0,0,0-1.254.861,3.826,3.826,0,0,0-.759,1.117,3.715,3.715,0,0,0-.27.921,4.225,4.225,0,0,1,.5-.839,3.59,3.59,0,0,1,1.366-1.054,3.847,3.847,0,0,1,1.449-.382C1831.926,1344.537,1831.978,1344.536,1832.029,1344.536Z" fill="red"/><path d="M1849.019,1357.7l-.849-1.587,7.127-4.274-.038-.081-6.721,3.153-1.362-2.921a3.94,3.94,0,0,1-2.514-2.155,4.063,4.063,0,0,1-.383-1.681,4.23,4.23,0,0,1,.325-1.676,4.781,4.781,0,0,1,.981-1.477,5.213,5.213,0,0,1,1.57-1.107,5.306,5.306,0,0,1,1.831-.5,4.712,4.712,0,0,1,1.345.083,1.714,1.714,0,0,1,.128-.512,1.841,1.841,0,0,1,1.011-.879l.254-.119.673,1.443-.277.11c-.37.146-.489.284-.527.354-.018.031-.032.059-.044.083a3.848,3.848,0,0,1,.93.67,4.1,4.1,0,0,1,1.216,2.865,4.19,4.19,0,0,1-.332,1.662,4.907,4.907,0,0,1-.977,1.463,5.19,5.19,0,0,1-1.578,1.111,5.128,5.128,0,0,1-1.569.455,4.763,4.763,0,0,1-1.011.014l.386.826,6.645-3.117,1.437,3.083Zm-.1-1.38.314.589,6.741-4.136-.249-.535Zm-.343-2.657.233.5,6.411-3.007-.233-.5Zm-1.038-2.159.273.061a4.1,4.1,0,0,0,1.362.061,4.559,4.559,0,0,0,1.4-.407,4.636,4.636,0,0,0,1.409-.989,4.354,4.354,0,0,0,.866-1.295,3.642,3.642,0,0,0,.288-1.439,3.476,3.476,0,0,0-.335-1.455,3.438,3.438,0,0,0-.712-1.011,3.259,3.259,0,0,0-1-.666l-.162-.069,0-.06-.376-.118a4.013,4.013,0,0,0-1.52-.161,4.742,4.742,0,0,0-1.636.448,4.654,4.654,0,0,0-1.4.986,4.238,4.238,0,0,0-.868,1.3,3.676,3.676,0,0,0-.282,1.455,3.5,3.5,0,0,0,.331,1.449,3.386,3.386,0,0,0,2.273,1.884Zm3.919-8.778a1.078,1.078,0,0,0-.478.454,1.013,1.013,0,0,0-.071.609l.035.161a1.868,1.868,0,0,1,.156-.345,1.259,1.259,0,0,1,.542-.484Zm-3.109,8.038a3.573,3.573,0,0,1-.755-.078,2.913,2.913,0,0,1-1.081-.467,2.227,2.227,0,0,1-.745-.89h0a2.207,2.207,0,0,1-.2-1.127,3.012,3.012,0,0,1,.333-1.134,3.674,3.674,0,0,1,.777-1.01,4.38,4.38,0,0,1,1.145-.764,4.229,4.229,0,0,1,1.293-.373,3.656,3.656,0,0,1,1.251.066,2.963,2.963,0,0,1,1.068.483,2.235,2.235,0,0,1,.726.876,2.28,2.28,0,0,1,.212,1.135,2.887,2.887,0,0,1-.321,1.123,3.748,3.748,0,0,1-.757.99,4.18,4.18,0,0,1-1.116.751,4.417,4.417,0,0,1-1.321.387A4.306,4.306,0,0,1,1848.348,1350.765Zm-2.071-1.673a1.651,1.651,0,0,0,.559.669,2.353,2.353,0,0,0,.876.376,3.272,3.272,0,0,0,1.08.038,3.854,3.854,0,0,0,1.152-.338,3.647,3.647,0,0,0,.967-.65,3.193,3.193,0,0,0,.644-.84,2.325,2.325,0,0,0,.26-.9,1.711,1.711,0,0,0-.16-.859,1.681,1.681,0,0,0-.548-.659,2.425,2.425,0,0,0-.866-.39,3.089,3.089,0,0,0-1.058-.054,3.62,3.62,0,0,0-1.119.324,3.81,3.81,0,0,0-1,.665,3.13,3.13,0,0,0-.661.856,2.48,2.48,0,0,0-.273.923,1.629,1.629,0,0,0,.146.843Z" fill="red"/><path d="M1865.7,1352.845a4.29,4.29,0,0,1-1.4-.221,3.975,3.975,0,0,1-1.505-.93,5.114,5.114,0,0,1-1.049-1.5,4.727,4.727,0,0,1-.486-2.079,4.48,4.48,0,0,1,.405-1.817,4.71,4.71,0,0,1,1.059-1.454,5.662,5.662,0,0,1,1.472-1,6.077,6.077,0,0,1,1.8-.517,4.544,4.544,0,0,1,1.874.148,4.369,4.369,0,0,1,1.688.972,5.141,5.141,0,0,1,1.264,1.922l.1.247-6.947,3.257a2.251,2.251,0,0,0,.452.511,2.139,2.139,0,0,0,.84.423,2.854,2.854,0,0,0,1.06.055,4.144,4.144,0,0,0,1.229-.374,3.474,3.474,0,0,0,.981-.644,2.82,2.82,0,0,0,.532-.695,2.083,2.083,0,0,0,.218-.641,3.781,3.781,0,0,0,.047-.549l0-.253,2.135-.238,0,.309a5.685,5.685,0,0,1-.076.929,3.734,3.734,0,0,1-.41,1.169,5,5,0,0,1-.944,1.212,6.181,6.181,0,0,1-1.691,1.1,6.616,6.616,0,0,1-2.175.632C1866.018,1352.838,1865.858,1352.845,1865.7,1352.845Zm.893-8.993a4.158,4.158,0,0,0-.521.033,5.5,5.5,0,0,0-1.633.469,5.081,5.081,0,0,0-1.326.9,4.13,4.13,0,0,0-.933,1.281,3.9,3.9,0,0,0-.353,1.59,4.17,4.17,0,0,0,.434,1.83,4.528,4.528,0,0,0,.932,1.336,3.434,3.434,0,0,0,1.294.8,3.931,3.931,0,0,0,1.642.171,6.048,6.048,0,0,0,1.988-.582,5.627,5.627,0,0,0,1.537-1,4.448,4.448,0,0,0,.839-1.073,3.153,3.153,0,0,0,.351-.99c.029-.191.049-.366.06-.524l-1.012.113c-.009.115-.024.24-.044.379a2.627,2.627,0,0,1-.274.818,3.4,3.4,0,0,1-.635.836,4.053,4.053,0,0,1-1.14.755,4.7,4.7,0,0,1-1.4.422,3.383,3.383,0,0,1-1.27-.069,2.7,2.7,0,0,1-1.058-.534,2.908,2.908,0,0,1-.739-.943l-.13-.258,7-3.282a4.378,4.378,0,0,0-1.015-1.47,3.816,3.816,0,0,0-1.471-.85A3.932,3.932,0,0,0,1866.594,1343.852Zm-3.624,5.339-.095-.309a2.938,2.938,0,0,1-.118-1.25,3.025,3.025,0,0,1,.358-1.1,3.383,3.383,0,0,1,.715-.882,4.027,4.027,0,0,1,.959-.627h0a4.186,4.186,0,0,1,1.1-.335,3.668,3.668,0,0,1,1.178,0,3.056,3.056,0,0,1,1.1.408,2.533,2.533,0,0,1,.877.93l.15.265Zm2.057-3.659a3.464,3.464,0,0,0-.824.539,2.825,2.825,0,0,0-.6.735,2.505,2.505,0,0,0-.292.9,2.271,2.271,0,0,0,.021.7l5.054-2.357a1.849,1.849,0,0,0-.511-.471,2.513,2.513,0,0,0-.9-.333,3.117,3.117,0,0,0-1,0,3.639,3.639,0,0,0-.954.289Z" fill="red"/></g></svg>