<svg xmlns="http://www.w3.org/2000/svg" width="264.068" height="18.952" viewBox="0 0 264.068 18.952"><g transform="translate(-1613.805 -1914.079)"><rect width="264.068" height="18.952" transform="translate(1613.805 1914.079)" fill="#fff"/><path d="M1854.126,1928.463a5,5,0,0,1-1.584-.252,4.712,4.712,0,0,1-1.573-.889,4.468,4.468,0,0,1-1.54-3.3,4.732,4.732,0,0,1,.33-1.777,5.058,5.058,0,0,1,.981-1.552,5.12,5.12,0,0,1,3.453-1.61,5.016,5.016,0,0,1,1.82.247,4.684,4.684,0,0,1,1.572.889,4.336,4.336,0,0,1,1.122,1.486h0a4.357,4.357,0,0,1,.418,1.815,4.732,4.732,0,0,1-.33,1.777,5.047,5.047,0,0,1-.981,1.552,5.114,5.114,0,0,1-3.453,1.609C1854.282,1928.461,1854.2,1928.463,1854.126,1928.463Zm.305-8.824c-.071,0-.142,0-.214.005a4.56,4.56,0,0,0-3.062,1.428,4.483,4.483,0,0,0-.873,1.379,4.168,4.168,0,0,0-.29,1.566,3.906,3.906,0,0,0,1.341,2.877,4.179,4.179,0,0,0,1.386.784,4.5,4.5,0,0,0,1.618.218,4.562,4.562,0,0,0,3.062-1.428,4.5,4.5,0,0,0,.873-1.379,4.164,4.164,0,0,0,.29-1.566,3.784,3.784,0,0,0-.365-1.581h0a3.8,3.8,0,0,0-.976-1.3,4.166,4.166,0,0,0-1.386-.784A4.422,4.422,0,0,0,1854.431,1919.639Zm-.5,7.375a3.766,3.766,0,0,1-1.038-.141,3.384,3.384,0,0,1-1.14-.574,2.643,2.643,0,0,1-1.037-2.222,3.5,3.5,0,0,1,.289-1.248,3.9,3.9,0,0,1,.75-1.123,3.791,3.791,0,0,1,1.167-.836,3.839,3.839,0,0,1,1.407-.364,4.089,4.089,0,0,1,1.353.138,3.371,3.371,0,0,1,1.161.576,2.646,2.646,0,0,1,1.036,2.222,3.266,3.266,0,0,1-.31,1.255,4.089,4.089,0,0,1-.772,1.109,3.962,3.962,0,0,1-1.183.834,3.922,3.922,0,0,1-1.385.364C1854.131,1927.011,1854.031,1927.014,1853.933,1927.014Zm.658-5.954c-.075,0-.151,0-.227.007a3.294,3.294,0,0,0-1.2.312,3.245,3.245,0,0,0-1,.713,3.327,3.327,0,0,0-.643.96,2.932,2.932,0,0,0-.242,1.048,2.079,2.079,0,0,0,.818,1.754,2.826,2.826,0,0,0,.952.479,3.311,3.311,0,0,0,1.141.11,3.347,3.347,0,0,0,1.186-.313,3.435,3.435,0,0,0,1.017-.714,3.529,3.529,0,0,0,.666-.957,2.691,2.691,0,0,0,.258-1.04,2.1,2.1,0,0,0-.192-.978h0a2.092,2.092,0,0,0-.625-.776,2.808,2.808,0,0,0-.969-.479A3.488,3.488,0,0,0,1854.591,1921.06Z" fill="red"/><path d="M1835.81,1928.871a3.785,3.785,0,0,1-1.169-.183,3.973,3.973,0,0,1-1.429-.834,4.727,4.727,0,0,1-1.115-1.558l-2.075-4.407,1.948-.908,1.916,4.108a3.21,3.21,0,0,0,.627.905,2.482,2.482,0,0,0,1.922.739,3.316,3.316,0,0,0,1.236-.33,3.032,3.032,0,0,0,1.155-.885,3.432,3.432,0,0,0,.583-1.131,3.285,3.285,0,0,0,.126-1.13,2.573,2.573,0,0,0-.2-.878l-1.836-3.978,1.9-.886,3.753,8.049-1.919.894-.853-1.879c0,.032,0,.065-.005.1a4.3,4.3,0,0,1-1.229,2.773,4.987,4.987,0,0,1-2.94,1.4A3.828,3.828,0,0,1,1835.81,1928.871Zm-5.038-6.711,1.835,3.9a4.171,4.171,0,0,0,.978,1.376,3.43,3.43,0,0,0,1.228.72,3.263,3.263,0,0,0,1.339.138,4.174,4.174,0,0,0,1.341-.372,4.219,4.219,0,0,0,1.253-.862,3.829,3.829,0,0,0,.76-1.117,3.762,3.762,0,0,0,.27-.92,4.252,4.252,0,0,1-.5.838,3.58,3.58,0,0,1-1.366,1.054,3.826,3.826,0,0,1-1.449.382,3.088,3.088,0,0,1-1.292-.207,3.128,3.128,0,0,1-1.052-.7,3.741,3.741,0,0,1-.738-1.065l-1.679-3.6Zm9.4.6,1.339,2.949.894-.417-3.277-7.029-.884.412,1.6,3.469a2.661,2.661,0,0,1,.2.675Z" fill="red"/><path d="M1818.612,1928.545a4.482,4.482,0,0,1-1.282-.186,4.371,4.371,0,0,1-1.688-.972,5.154,5.154,0,0,1-1.264-1.922l-.1-.246,6.946-3.258a2.265,2.265,0,0,0-.451-.511,2.153,2.153,0,0,0-.84-.423,2.86,2.86,0,0,0-1.061-.055,4.14,4.14,0,0,0-1.229.374,3.474,3.474,0,0,0-.981.644,2.873,2.873,0,0,0-.532.7,2.077,2.077,0,0,0-.217.641,3.644,3.644,0,0,0-.047.549v.253l-2.134.238-.005-.309a5.669,5.669,0,0,1,.076-.929,3.716,3.716,0,0,1,.411-1.169,4.977,4.977,0,0,1,.944-1.212,6.18,6.18,0,0,1,1.691-1.1,6.62,6.62,0,0,1,2.175-.632,4.52,4.52,0,0,1,1.875.2,3.981,3.981,0,0,1,1.5.93,5.093,5.093,0,0,1,1.049,1.5,4.727,4.727,0,0,1,.487,2.079,4.5,4.5,0,0,1-.406,1.817,4.721,4.721,0,0,1-1.058,1.454,5.666,5.666,0,0,1-1.473,1,6.065,6.065,0,0,1-1.8.517A4.726,4.726,0,0,1,1818.612,1928.545ZM1815,1925.5a4.378,4.378,0,0,0,1.016,1.47,3.8,3.8,0,0,0,1.47.85,3.985,3.985,0,0,0,1.644.129,5.47,5.47,0,0,0,1.632-.469,5.068,5.068,0,0,0,1.326-.9,4.149,4.149,0,0,0,.934-1.281,3.921,3.921,0,0,0,.352-1.59,4.179,4.179,0,0,0-.433-1.83,4.537,4.537,0,0,0-.933-1.336,3.427,3.427,0,0,0-1.294-.8,3.947,3.947,0,0,0-1.642-.171,6.048,6.048,0,0,0-1.988.582,5.627,5.627,0,0,0-1.537,1,4.473,4.473,0,0,0-.839,1.073,3.17,3.17,0,0,0-.35.991c-.03.19-.05.365-.061.523l1.013-.113c.008-.114.023-.24.043-.379a2.656,2.656,0,0,1,.274-.818,3.419,3.419,0,0,1,.636-.836,4.038,4.038,0,0,1,1.14-.755,4.683,4.683,0,0,1,1.4-.422,3.384,3.384,0,0,1,1.27.069,2.688,2.688,0,0,1,1.058.534,2.9,2.9,0,0,1,.74.943l.129.258Zm3.7,1.7a3.51,3.51,0,0,1-.571-.046,3.037,3.037,0,0,1-1.1-.408,2.521,2.521,0,0,1-.876-.93l-.151-.265,6.228-2.9.094.309a2.943,2.943,0,0,1,.119,1.251,3.046,3.046,0,0,1-.359,1.1,3.364,3.364,0,0,1-.715.882,4.06,4.06,0,0,1-.959.628h0a4.222,4.222,0,0,1-1.1.334A3.79,3.79,0,0,1,1818.709,1927.2Zm-1.892-1.405a1.844,1.844,0,0,0,.511.471,2.513,2.513,0,0,0,.9.333,3.116,3.116,0,0,0,1,0,3.638,3.638,0,0,0,.954-.289,3.492,3.492,0,0,0,.825-.539,2.819,2.819,0,0,0,.6-.735,2.5,2.5,0,0,0,.292-.9,2.237,2.237,0,0,0-.021-.7Z" fill="red"/><path d="M1796.409,1930.013l-1.084-2.325-1.468.685-.68-1.458,1.468-.684q-.291-.621-.586-1.238-.359-.747-.708-1.5a3.648,3.648,0,0,0-.77-1.166,1.468,1.468,0,0,0-.755-.386,1.776,1.776,0,0,0-.831.083,9.282,9.282,0,0,0-.981.394l-.255.119-.837-1.794,1.035-.483a4.283,4.283,0,0,1,1.449-.4,3.361,3.361,0,0,1,1.421.181,3.564,3.564,0,0,1,1.269.811,4.881,4.881,0,0,1,1.005,1.467q.386.825.774,1.638.33.69.656,1.388l.535-.25.68,1.459-.535.249,1.084,2.324Zm-.812-3.072,1.084,2.324.866-.4-1.084-2.324.536-.25-.2-.438-.536.25-.119-.255q-.384-.825-.773-1.638t-.775-1.643a4.311,4.311,0,0,0-.887-1.3,3.015,3.015,0,0,0-1.067-.688,2.786,2.786,0,0,0-1.185-.149,3.709,3.709,0,0,0-1.258.345l-.525.245.362.778c.269-.117.533-.219.785-.3a2.34,2.34,0,0,1,1.092-.106,2.029,2.029,0,0,1,1.047.523,4.14,4.14,0,0,1,.9,1.349q.348.747.705,1.492t.708,1.5l.119.255-1.469.684.205.439Z" fill="red"/><path d="M1784.079,1929.524l-2.273-4.941c0,.032,0,.063,0,.094a4.215,4.215,0,0,1-.349,1.488,4.364,4.364,0,0,1-.877,1.286,4.822,4.822,0,0,1-1.423.981,4.741,4.741,0,0,1-1.518.421,3.824,3.824,0,0,1-1.566-.164,3.978,3.978,0,0,1-1.428-.835,4.728,4.728,0,0,1-1.114-1.558l-2.075-4.407,1.948-.908,1.916,4.108a3.13,3.13,0,0,0,.619.89,2.586,2.586,0,0,0,1.94.77,3.463,3.463,0,0,0,2.414-1.21,3.226,3.226,0,0,0,.569-1.129,3.289,3.289,0,0,0,.1-1.137,2.72,2.72,0,0,0-.209-.886l-1.835-3.979,1.916-.893,5.179,11.107Zm-2.49-6.757,2.764,6.008.911-.425-4.7-10.088-.9.419,1.6,3.469a2.751,2.751,0,0,1,.205.673Zm-9.387-.607,1.834,3.9a4.186,4.186,0,0,0,.978,1.377,3.434,3.434,0,0,0,1.227.72,3.248,3.248,0,0,0,1.336.139,4.16,4.16,0,0,0,1.339-.371,4.271,4.271,0,0,0,1.258-.864,3.787,3.787,0,0,0,.764-1.119,3.613,3.613,0,0,0,.241-.78,4.151,4.151,0,0,1-.441.721,4.027,4.027,0,0,1-2.853,1.432,3.152,3.152,0,0,1-2.348-.935,3.713,3.713,0,0,1-.731-1.05l-1.678-3.6Z" fill="red"/><path d="M1758.777,1929.584l-3.753-8.048,1.8-.84,1.247,2.822c0-.136.007-.272.015-.407a7.139,7.139,0,0,1,.311-1.744,4.758,4.758,0,0,1,.763-1.483,3.441,3.441,0,0,1,1.292-1.028,2.985,2.985,0,0,1,1.141-.285,3.027,3.027,0,0,1,1.106.151,2.9,2.9,0,0,1,.95.536,2.544,2.544,0,0,1,.671.878,2.343,2.343,0,0,1,.208,1.474,3.412,3.412,0,0,1-.586,1.31,6.458,6.458,0,0,1-1.065,1.139c-.408.347-.834.685-1.265,1s-.843.623-1.242.915a7.967,7.967,0,0,0-.813.673l.19.408,5.612-2.617.8,1.7Zm-3.005-7.777,3.277,7.03,6.357-2.964-.319-.683-5.612,2.617-.592-1.271.133-.139a7.854,7.854,0,0,1,1.022-.873q.6-.437,1.24-.913c.42-.311.836-.642,1.235-.981a5.84,5.84,0,0,0,.972-1.039,2.835,2.835,0,0,0,.492-1.092,1.775,1.775,0,0,0-.167-1.125,1.96,1.96,0,0,0-.524-.686,2.34,2.34,0,0,0-.767-.433,2.474,2.474,0,0,0-.9-.122,2.413,2.413,0,0,0-.927.232,2.913,2.913,0,0,0-1.085.862,4.223,4.223,0,0,0-.672,1.309,6.413,6.413,0,0,0-.233,1.051q.08-.227.173-.441a4.682,4.682,0,0,1,.739-1.187,3.255,3.255,0,0,1,1.1-.826,1.782,1.782,0,0,1,1.322-.117,1.48,1.48,0,0,1,.935.808h0a1.315,1.315,0,0,1,.065,1,2.667,2.667,0,0,1-.518.879,6.337,6.337,0,0,1-.848.805q-.481.384-.988.753t-.973.722a8.757,8.757,0,0,0-.786.663l-.283.275-.305-.653-.081.038-1.707-3.86Zm5.755-1.306a1.37,1.37,0,0,0-.581.141,2.7,2.7,0,0,0-.908.685,4.118,4.118,0,0,0-.65,1.044,6.139,6.139,0,0,0-.394,1.3,8.511,8.511,0,0,0-.143,1.282c.155-.134.327-.272.512-.412q.477-.363.982-.73t.968-.737a5.694,5.694,0,0,0,.772-.731,2.093,2.093,0,0,0,.411-.691.756.756,0,0,0-.041-.586.922.922,0,0,0-.594-.509A1.092,1.092,0,0,0,1761.527,1920.5Z" fill="red"/><path d="M1749.156,1930.013l-1.084-2.325-1.468.685-.68-1.458,1.468-.684q-.291-.621-.586-1.238-.359-.747-.708-1.5a3.648,3.648,0,0,0-.77-1.166,1.468,1.468,0,0,0-.755-.386,1.777,1.777,0,0,0-.831.083,9.293,9.293,0,0,0-.981.394l-.255.119-.837-1.794,1.035-.483a4.284,4.284,0,0,1,1.449-.4,3.361,3.361,0,0,1,1.421.181,3.563,3.563,0,0,1,1.269.811,4.885,4.885,0,0,1,1.005,1.467q.385.825.774,1.638.328.69.656,1.388l.535-.25.68,1.459-.535.249,1.084,2.324Zm-.812-3.072,1.084,2.324.866-.4-1.084-2.324.536-.25-.2-.438-.536.25-.119-.255q-.384-.825-.773-1.638t-.775-1.643a4.31,4.31,0,0,0-.887-1.3,3.015,3.015,0,0,0-1.067-.688,2.787,2.787,0,0,0-1.185-.149,3.72,3.72,0,0,0-1.259.345l-.525.245.363.778c.269-.117.533-.219.785-.3a2.34,2.34,0,0,1,1.092-.106,2.032,2.032,0,0,1,1.047.523,4.142,4.142,0,0,1,.905,1.349q.348.747.7,1.492t.708,1.5l.119.255-1.469.684.2.439Z" fill="red"/><path d="M1720.348,1928.463a5,5,0,0,1-1.584-.252,4.73,4.73,0,0,1-1.573-.889,4.471,4.471,0,0,1-1.539-3.3,4.712,4.712,0,0,1,.329-1.777,5.043,5.043,0,0,1,.982-1.552,5.12,5.12,0,0,1,3.452-1.61,5.014,5.014,0,0,1,1.82.247,4.69,4.69,0,0,1,1.573.889,4.344,4.344,0,0,1,1.121,1.486h0a4.34,4.34,0,0,1,.418,1.815,4.71,4.71,0,0,1-.329,1.777,5.068,5.068,0,0,1-.982,1.552,5.115,5.115,0,0,1-3.452,1.609C1720.505,1928.461,1720.426,1928.463,1720.348,1928.463Zm.306-8.824c-.071,0-.142,0-.214.005a4.555,4.555,0,0,0-3.062,1.428,4.5,4.5,0,0,0-.874,1.379,4.164,4.164,0,0,0-.29,1.566,3.91,3.91,0,0,0,1.342,2.877,4.169,4.169,0,0,0,1.386.784,4.5,4.5,0,0,0,1.617.218,4.556,4.556,0,0,0,3.062-1.428,4.5,4.5,0,0,0,.874-1.379,4.167,4.167,0,0,0,.29-1.566,3.785,3.785,0,0,0-.366-1.581h0a3.769,3.769,0,0,0-.976-1.3,4.158,4.158,0,0,0-1.386-.784A4.421,4.421,0,0,0,1720.654,1919.639Zm-.5,7.375a3.758,3.758,0,0,1-1.037-.141,3.387,3.387,0,0,1-1.141-.574,2.646,2.646,0,0,1-1.036-2.222,3.483,3.483,0,0,1,.288-1.248,3.9,3.9,0,0,1,.751-1.123,3.778,3.778,0,0,1,1.167-.836,3.833,3.833,0,0,1,1.406-.364,4.087,4.087,0,0,1,1.353.138,3.375,3.375,0,0,1,1.162.576,2.646,2.646,0,0,1,1.036,2.222,3.265,3.265,0,0,1-.311,1.255,4.085,4.085,0,0,1-.771,1.109,3.968,3.968,0,0,1-1.184.834,3.917,3.917,0,0,1-1.385.364C1720.353,1927.011,1720.254,1927.014,1720.155,1927.014Zm.659-5.954c-.075,0-.151,0-.228.007a3.383,3.383,0,0,0-2.2,1.025,3.323,3.323,0,0,0-.642.96,2.911,2.911,0,0,0-.243,1.048,2.08,2.08,0,0,0,.193.977,2.1,2.1,0,0,0,.625.777,2.826,2.826,0,0,0,.952.479,3.368,3.368,0,0,0,2.327-.2,3.407,3.407,0,0,0,1.017-.714,3.553,3.553,0,0,0,.667-.957,2.71,2.71,0,0,0,.258-1.04,2.1,2.1,0,0,0-.193-.978h0a2.093,2.093,0,0,0-.625-.776,2.8,2.8,0,0,0-.969-.479A3.482,3.482,0,0,0,1720.814,1921.06Z" fill="red"/><path d="M1702.909,1928.613a4.679,4.679,0,0,1-.593-.037,4.483,4.483,0,0,1-1.411-.427,4.232,4.232,0,0,1-1.259-.966l-.189-.208,1.416-1.289.189.2a2.612,2.612,0,0,0,1.522.809,3.282,3.282,0,0,0,1.887-.336,3.777,3.777,0,0,0,.977-.656,2.921,2.921,0,0,0,.669-.9,2.613,2.613,0,0,0,.25-1.087,2.745,2.745,0,0,0-.282-1.215,2.627,2.627,0,0,0-.74-.98,2.553,2.553,0,0,0-.971-.483,2.938,2.938,0,0,0-1.094-.051,3.778,3.778,0,0,0-1.092.318,3.471,3.471,0,0,0-1.482,1.221,2.481,2.481,0,0,0-.4,1.663l.027.272-1.942.253-.031-.286a4.06,4.06,0,0,1,.125-1.577,4.772,4.772,0,0,1,.635-1.354,5.152,5.152,0,0,1,1.012-1.1,6.076,6.076,0,0,1,1.276-.8,5.854,5.854,0,0,1,1.75-.5,4.731,4.731,0,0,1,1.795.114,4.327,4.327,0,0,1,1.623.835,4.58,4.58,0,0,1,1.244,1.66,4.627,4.627,0,0,1,.475,2.067,4.3,4.3,0,0,1-.434,1.824,5.021,5.021,0,0,1-1.1,1.462,6.027,6.027,0,0,1-1.524,1.023,5.9,5.9,0,0,1-1.447.462A4.955,4.955,0,0,1,1702.909,1928.613Zm-2.651-1.607a3.532,3.532,0,0,0,.895.638,3.9,3.9,0,0,0,1.233.374,4.3,4.3,0,0,0,1.3-.038,5.322,5.322,0,0,0,1.308-.418,5.457,5.457,0,0,0,1.382-.928,4.441,4.441,0,0,0,.98-1.3,3.749,3.749,0,0,0,.376-1.588,4.088,4.088,0,0,0-.423-1.815,4.03,4.03,0,0,0-1.087-1.461,3.761,3.761,0,0,0-1.413-.728,4.168,4.168,0,0,0-1.582-.1,5.3,5.3,0,0,0-1.583.456,5.5,5.5,0,0,0-1.158.726,4.6,4.6,0,0,0-.9.982,4.23,4.23,0,0,0-.56,1.2,3.375,3.375,0,0,0-.126,1.073l.831-.109a3.033,3.033,0,0,1,.5-1.754,4.029,4.029,0,0,1,1.716-1.423,4.331,4.331,0,0,1,1.253-.365,3.467,3.467,0,0,1,1.3.062,3.093,3.093,0,0,1,1.184.586,3.184,3.184,0,0,1,.9,1.185,3.3,3.3,0,0,1,.334,1.465,3.161,3.161,0,0,1-.3,1.318,3.5,3.5,0,0,1-.8,1.07,4.345,4.345,0,0,1-1.122.753,3.833,3.833,0,0,1-2.209.382,3.153,3.153,0,0,1-1.644-.784Z" fill="red"/><path d="M1685.913,1928.613a4.682,4.682,0,0,1-.593-.037,4.483,4.483,0,0,1-1.411-.427,4.232,4.232,0,0,1-1.259-.966l-.189-.208,1.416-1.289.189.2a2.612,2.612,0,0,0,1.522.809,3.283,3.283,0,0,0,1.887-.336,3.779,3.779,0,0,0,.977-.656,2.921,2.921,0,0,0,.669-.9,2.613,2.613,0,0,0,.25-1.087,2.745,2.745,0,0,0-.282-1.215,2.627,2.627,0,0,0-.74-.98,2.554,2.554,0,0,0-.971-.483,2.937,2.937,0,0,0-1.094-.051,3.768,3.768,0,0,0-1.092.318,3.472,3.472,0,0,0-1.482,1.221,2.482,2.482,0,0,0-.4,1.663l.027.272-1.942.253-.031-.286a4.065,4.065,0,0,1,.125-1.577,4.772,4.772,0,0,1,.635-1.354,5.155,5.155,0,0,1,1.012-1.1,6.079,6.079,0,0,1,1.276-.8,5.856,5.856,0,0,1,1.75-.5,4.733,4.733,0,0,1,1.8.114,4.327,4.327,0,0,1,1.623.835,4.58,4.58,0,0,1,1.244,1.66,4.627,4.627,0,0,1,.475,2.067,4.3,4.3,0,0,1-.434,1.824,5.019,5.019,0,0,1-1.1,1.462,6.025,6.025,0,0,1-1.524,1.023,5.9,5.9,0,0,1-1.447.462A4.955,4.955,0,0,1,1685.913,1928.613Zm-2.651-1.607a3.532,3.532,0,0,0,.9.638,3.9,3.9,0,0,0,1.233.374,4.3,4.3,0,0,0,1.3-.038,5.322,5.322,0,0,0,1.308-.418,5.46,5.46,0,0,0,1.382-.928,4.441,4.441,0,0,0,.98-1.3,3.751,3.751,0,0,0,.376-1.588,4.09,4.09,0,0,0-.423-1.815,4.03,4.03,0,0,0-1.087-1.461,3.761,3.761,0,0,0-1.413-.728,4.168,4.168,0,0,0-1.582-.1,5.3,5.3,0,0,0-1.583.456,5.5,5.5,0,0,0-1.158.726,4.608,4.608,0,0,0-.9.982,4.233,4.233,0,0,0-.56,1.2,3.375,3.375,0,0,0-.126,1.073l.831-.109a3.034,3.034,0,0,1,.5-1.754,4.029,4.029,0,0,1,1.716-1.423,4.33,4.33,0,0,1,1.253-.365,3.467,3.467,0,0,1,1.3.062,3.092,3.092,0,0,1,1.184.586,3.185,3.185,0,0,1,.9,1.185,3.3,3.3,0,0,1,.334,1.465,3.163,3.163,0,0,1-.3,1.318,3.507,3.507,0,0,1-.8,1.07,4.347,4.347,0,0,1-1.122.753,3.833,3.833,0,0,1-2.209.382,3.153,3.153,0,0,1-1.644-.784Z" fill="red"/><path d="M1667.071,1929.681l-1.867-3.96a4.508,4.508,0,0,1-.432-1.8,4.656,4.656,0,0,1,.29-1.759,4.752,4.752,0,0,1,.927-1.521,4.628,4.628,0,0,1,1.495-1.094,4.711,4.711,0,0,1,3.575-.181,4.558,4.558,0,0,1,1.528.913,4.616,4.616,0,0,1,1.094,1.492l1.835,3.979-1.869.872-1.852-3.971a2.691,2.691,0,0,0-1.454-1.37,2.453,2.453,0,0,0-.976-.163,2.749,2.749,0,0,0-1.888.88,2.553,2.553,0,0,0-.511.859,2.522,2.522,0,0,0-.134.984,2.76,2.76,0,0,0,.258,1l1.876,3.981Zm2.412-10.025c-.057,0-.114,0-.172,0a4.131,4.131,0,0,0-1.59.393,4.063,4.063,0,0,0-1.314.961,4.175,4.175,0,0,0-.818,1.34,4.122,4.122,0,0,0-.255,1.549,3.964,3.964,0,0,0,.379,1.58l1.63,3.457.871-.395-1.634-3.465a3.31,3.31,0,0,1-.309-1.21,3.058,3.058,0,0,1,.164-1.2,3.11,3.11,0,0,1,.623-1.048,3.311,3.311,0,0,1,2.29-1.068,3.006,3.006,0,0,1,1.2.2,3.255,3.255,0,0,1,1.759,1.656l1.614,3.461.852-.4-1.6-3.469a4.016,4.016,0,0,0-2.3-2.112A4.121,4.121,0,0,0,1669.483,1919.656Z" fill="red"/><path d="M1652.1,1929.466l-.952-2.043.351-.07a4.047,4.047,0,0,0,1.726-.74,3.754,3.754,0,0,0,1.009-1.161,3.063,3.063,0,0,0,.371-1.255,2.124,2.124,0,0,0-.154-1.028l-1.826-4,1.884-.878,3.753,8.049-1.935.9-.884-1.972q0,.1-.012.2a4.645,4.645,0,0,1-.413,1.579,4.3,4.3,0,0,1-1.009,1.358,5.007,5.007,0,0,1-1.666.976Zm-.144-1.642.433.93a4.235,4.235,0,0,0,1.239-.769,3.723,3.723,0,0,0,.88-1.18,4.067,4.067,0,0,0,.361-1.375c-.042.1-.088.191-.138.286a4.3,4.3,0,0,1-1.158,1.338A4.371,4.371,0,0,1,1651.957,1927.824Zm3.3-4.34,1.346,3.005.908-.424-3.278-7.029-.868.405,1.593,3.492a2.221,2.221,0,0,1,.178.608Z" fill="red"/><path d="M1637.186,1928.559h-.111a4.389,4.389,0,0,1-1.284-.216,3.316,3.316,0,0,1-1.141-.658l-.223-.195,1.415-1.462.2.187a1.742,1.742,0,0,0,1.244.447h.005a4.042,4.042,0,0,0,1.7-.414,9.116,9.116,0,0,0,.917-.491,3.752,3.752,0,0,0,.689-.528,1.686,1.686,0,0,0,.368-.512.42.42,0,0,0,0-.363.4.4,0,0,0-.237-.234,1.222,1.222,0,0,0-.5-.044,3.28,3.28,0,0,0-.683.148,8.025,8.025,0,0,0-.755.29c-.254.112-.5.226-.738.344s-.46.224-.645.31a9.186,9.186,0,0,1-1.239.472,4.507,4.507,0,0,1-1.274.195,2.2,2.2,0,0,1-2.079-1.386,2.546,2.546,0,0,1-.2-1.688,3.426,3.426,0,0,1,.715-1.377,5.419,5.419,0,0,1,1.206-1.054,10.965,10.965,0,0,1,1.311-.735,7.446,7.446,0,0,1,2.018-.655,5.24,5.24,0,0,1,1.6-.015,3.865,3.865,0,0,1,1.2.39,4.291,4.291,0,0,1,.8.546l.221.2-1.461,1.473-.2-.178a2.611,2.611,0,0,0-.448-.311,1.926,1.926,0,0,0-.659-.21,3.241,3.241,0,0,0-.964.024,5.037,5.037,0,0,0-1.3.434,9.248,9.248,0,0,0-.866.467,3.924,3.924,0,0,0-.753.583,1.781,1.781,0,0,0-.421.635.755.755,0,0,0,.046.6.511.511,0,0,0,.493.358,2.268,2.268,0,0,0,.98-.247l1.636-.762a10.271,10.271,0,0,1,1.334-.508,5.163,5.163,0,0,1,1.388-.232,2.808,2.808,0,0,1,1.279.262,2.094,2.094,0,0,1,.971,1.013,2.071,2.071,0,0,1,.16,1.382,3.144,3.144,0,0,1-.626,1.243,5.631,5.631,0,0,1-1.136,1.05,9.266,9.266,0,0,1-1.444.837,6.648,6.648,0,0,1-1.29.446A5.442,5.442,0,0,1,1637.186,1928.559Zm-1.933-1.115a2.686,2.686,0,0,0,.714.364,3.847,3.847,0,0,0,1.12.188,4.871,4.871,0,0,0,1.2-.128,6.073,6.073,0,0,0,1.179-.408,8.7,8.7,0,0,0,1.356-.785,5.1,5.1,0,0,0,1.024-.944,2.576,2.576,0,0,0,.516-1.02,1.5,1.5,0,0,0-.118-1.01,1.533,1.533,0,0,0-.706-.748,2.274,2.274,0,0,0-1.026-.208,4.576,4.576,0,0,0-1.237.209,9.691,9.691,0,0,0-1.259.478l-1.636.763a2.874,2.874,0,0,1-1.223.3,1.07,1.07,0,0,1-1-.684,1.3,1.3,0,0,1-.064-1.031,2.342,2.342,0,0,1,.55-.837,4.43,4.43,0,0,1,.861-.668,10.028,10.028,0,0,1,.919-.5,5.517,5.517,0,0,1,1.455-.479,3.776,3.776,0,0,1,1.135-.025,2.468,2.468,0,0,1,.853.278,3.83,3.83,0,0,1,.335.212l.665-.671a4.571,4.571,0,0,0-.463-.286,3.287,3.287,0,0,0-1.029-.329,4.648,4.648,0,0,0-1.423.017,6.856,6.856,0,0,0-1.861.608,10.248,10.248,0,0,0-1.243.7,4.909,4.909,0,0,0-1.083.944,2.883,2.883,0,0,0-.6,1.154,2,2,0,0,0,.162,1.316,1.781,1.781,0,0,0,.669.81,1.752,1.752,0,0,0,.9.246,3.693,3.693,0,0,0,1.107-.17,8.687,8.687,0,0,0,1.163-.444q.273-.127.634-.3t.76-.355a8.44,8.44,0,0,1,.808-.309,3.791,3.791,0,0,1,.8-.174,1.776,1.776,0,0,1,.73.072.958.958,0,0,1,.566.528.986.986,0,0,1,.01.823,2.207,2.207,0,0,1-.488.688,4.341,4.341,0,0,1-.791.609,9.623,9.623,0,0,1-.975.522,4.592,4.592,0,0,1-1.937.467h-.006a2.374,2.374,0,0,1-1.412-.422Z" fill="red"/></g></svg>