<svg xmlns="http://www.w3.org/2000/svg" width="19.41" height="253.704" viewBox="0 0 19.41 253.704"><g transform="translate(-6375.601 -1089.158)"><rect width="253.704" height="19.41" transform="translate(6375.601 1342.862) rotate(-90)" fill="#fff"/><path d="M6379.943,1324.114l-.88-1.886,2.324-1.084-.684-1.468,1.458-.679.684,1.468q.62-.291,1.238-.587.747-.357,1.5-.707a3.677,3.677,0,0,0,1.166-.771,1.467,1.467,0,0,0,.386-.754,1.772,1.772,0,0,0-.083-.831,9.186,9.186,0,0,0-.394-.982l-.119-.254,1.794-.837.483,1.034a4.29,4.29,0,0,1,.4,1.45,3.361,3.361,0,0,1-.181,1.421,3.561,3.561,0,0,1-.812,1.268,4.861,4.861,0,0,1-1.466,1.006q-.825.384-1.638.773-.69.33-1.388.656l.249.536-1.458.68-.249-.536Zm-.132-1.614.4.867,2.324-1.084.249.535.439-.2-.25-.536.255-.118q.825-.384,1.638-.773t1.643-.776a4.316,4.316,0,0,0,1.3-.886,3,3,0,0,0,.687-1.068,2.786,2.786,0,0,0,.15-1.184,3.719,3.719,0,0,0-.345-1.259l-.245-.525-.778.363c.117.269.219.532.3.785a2.331,2.331,0,0,1,.1,1.091,2.016,2.016,0,0,1-.523,1.047,4.12,4.12,0,0,1-1.348.905q-.747.349-1.492.706t-1.5.707l-.255.12-.684-1.469-.439.2.685,1.468Z" fill="red"/><path d="M6380.454,1311.831l-.9-1.933,4.94-2.273-.093,0a4.214,4.214,0,0,1-1.489-.348,4.369,4.369,0,0,1-1.285-.877,4.816,4.816,0,0,1-.981-1.423,4.718,4.718,0,0,1-.421-1.519,3.8,3.8,0,0,1,.164-1.566,3.98,3.98,0,0,1,.835-1.428,4.737,4.737,0,0,1,1.558-1.113l4.407-2.075.908,1.948-4.108,1.916a3.107,3.107,0,0,0-.89.619,2.581,2.581,0,0,0-.77,1.939,3.457,3.457,0,0,0,1.209,2.415,3.23,3.23,0,0,0,2.266.672,2.73,2.73,0,0,0,.887-.209l3.979-1.836.893,1.916Zm-.153-1.658.425.911,10.088-4.7-.419-.9-3.469,1.6a2.79,2.79,0,0,1-.673.2l.056.122Zm6.615-12.152-3.9,1.835a4.184,4.184,0,0,0-1.377.978,3.442,3.442,0,0,0-.72,1.226,3.252,3.252,0,0,0-.139,1.337,4.163,4.163,0,0,0,.371,1.338,4.252,4.252,0,0,0,.864,1.258,3.791,3.791,0,0,0,1.119.765,3.623,3.623,0,0,0,.78.241,4.177,4.177,0,0,1-.721-.442,4.025,4.025,0,0,1-1.432-2.853,3.15,3.15,0,0,1,.935-2.347,3.71,3.71,0,0,1,1.05-.731l3.6-1.678Z" fill="red"/><path d="M6382.738,1292.223l-.9-1.936,1.972-.883c-.065,0-.13-.008-.2-.013a4.6,4.6,0,0,1-1.579-.413,4.306,4.306,0,0,1-1.358-1.009,5,5,0,0,1-.976-1.665l-.09-.243,2.042-.952.071.35a4.037,4.037,0,0,0,.74,1.726,3.728,3.728,0,0,0,1.161,1.009,3.077,3.077,0,0,0,1.255.372,2.152,2.152,0,0,0,1.028-.154l4-1.826.878,1.884Zm-.151-1.656.423.908,7.03-3.277-.405-.869-3.492,1.593a2.226,2.226,0,0,1-.608.179l.057.12Zm-2.265-4.218a4.276,4.276,0,0,0,.768,1.24,3.755,3.755,0,0,0,1.18.879,4.081,4.081,0,0,0,1.376.362c-.1-.042-.191-.089-.286-.139a4.306,4.306,0,0,1-1.339-1.158,4.384,4.384,0,0,1-.77-1.617Z" fill="red"/><path d="M6385.522,1276.826a4.719,4.719,0,0,1-1.742-.33,5.042,5.042,0,0,1-1.552-.981,5.118,5.118,0,0,1-1.61-3.452,5.074,5.074,0,0,1,.246-1.82,4.747,4.747,0,0,1,.89-1.573,4.468,4.468,0,0,1,3.3-1.539,4.808,4.808,0,0,1,1.777.329,5.048,5.048,0,0,1,1.552.982,5.116,5.116,0,0,1,1.61,3.452,5.021,5.021,0,0,1-.247,1.82,4.69,4.69,0,0,1-.889,1.573,4.342,4.342,0,0,1-1.486,1.121h0a4.344,4.344,0,0,1-1.815.418Zm-.432-9.133h-.031a3.9,3.9,0,0,0-2.877,1.342,4.156,4.156,0,0,0-.784,1.385,4.5,4.5,0,0,0-.218,1.618,4.556,4.556,0,0,0,1.428,3.062,4.471,4.471,0,0,0,1.379.873,4.132,4.132,0,0,0,1.566.29,3.766,3.766,0,0,0,1.581-.365h0a3.791,3.791,0,0,0,1.3-.976,4.173,4.173,0,0,0,.784-1.386,4.486,4.486,0,0,0,.218-1.617,4.559,4.559,0,0,0-1.428-3.063,4.5,4.5,0,0,0-1.379-.873A4.172,4.172,0,0,0,6385.09,1267.693Zm.657,7.892-.113,0a3.262,3.262,0,0,1-1.255-.311,4.086,4.086,0,0,1-1.11-.772,3.978,3.978,0,0,1-.833-1.183,3.92,3.92,0,0,1-.364-1.385,3.844,3.844,0,0,1,.131-1.335,3.384,3.384,0,0,1,.574-1.141,2.647,2.647,0,0,1,2.222-1.036,3.493,3.493,0,0,1,1.248.288,3.9,3.9,0,0,1,1.123.75,3.947,3.947,0,0,1,1.2,2.574,4.133,4.133,0,0,1-.138,1.353,3.374,3.374,0,0,1-.576,1.162,2.642,2.642,0,0,1-2.109,1.038Zm-.861-6.6a2.076,2.076,0,0,0-1.664.82,2.824,2.824,0,0,0-.479.952,3.316,3.316,0,0,0-.11,1.141,3.5,3.5,0,0,0,1.027,2.2,3.52,3.52,0,0,0,.957.666,2.692,2.692,0,0,0,1.04.259,2.115,2.115,0,0,0,.978-.193h0a2.093,2.093,0,0,0,.776-.625,2.833,2.833,0,0,0,.479-.969,3.55,3.55,0,0,0,.119-1.169,3.311,3.311,0,0,0-.312-1.2,3.243,3.243,0,0,0-.713-1,3.342,3.342,0,0,0-.96-.643,2.933,2.933,0,0,0-1.048-.242Z" fill="red"/><path d="M6383.33,1260.995l-.872-1.869,3.971-1.852a2.658,2.658,0,0,0,.837-.608,2.7,2.7,0,0,0,.533-.846,2.447,2.447,0,0,0,.163-.976,2.755,2.755,0,0,0-.881-1.888,2.494,2.494,0,0,0-1.842-.645,2.758,2.758,0,0,0-1,.258l-3.981,1.876-.859-1.895,3.959-1.867a4.535,4.535,0,0,1,1.805-.433,4.679,4.679,0,0,1,1.759.291,4.737,4.737,0,0,1,1.52.927,4.615,4.615,0,0,1,1.1,1.495,4.708,4.708,0,0,1,.181,3.574,4.532,4.532,0,0,1-.914,1.529,4.592,4.592,0,0,1-1.492,1.094Zm-.125-1.6.4.852,3.469-1.6a4.049,4.049,0,0,0,1.31-.959,4.006,4.006,0,0,0,.8-1.341,4.149,4.149,0,0,0-.161-3.15,4.06,4.06,0,0,0-.961-1.314,4.188,4.188,0,0,0-1.341-.818,4.088,4.088,0,0,0-1.548-.255,3.966,3.966,0,0,0-1.58.379l-3.457,1.63.395.871,3.465-1.633a3.289,3.289,0,0,1,1.209-.31,3.061,3.061,0,0,1,1.2.164,3.113,3.113,0,0,1,1.048.623,3.313,3.313,0,0,1,1.068,2.29,3.016,3.016,0,0,1-.2,1.2,3.258,3.258,0,0,1-.644,1.022,3.217,3.217,0,0,1-1.012.737Z" fill="red"/><path d="M6385.356,1243.523a4.241,4.241,0,0,1-1.636-.325,4.781,4.781,0,0,1-1.477-.982,5.193,5.193,0,0,1-1.106-1.569,5.313,5.313,0,0,1-.5-1.831,4.705,4.705,0,0,1,.083-1.346,1.679,1.679,0,0,1-.512-.128,1.84,1.84,0,0,1-.879-1.01l-.119-.255,1.443-.673.11.278c.146.37.284.489.353.527.032.017.059.032.084.044a3.773,3.773,0,0,1,.67-.93,3.968,3.968,0,0,1,1.175-.829,4.033,4.033,0,0,1,1.69-.388,4.291,4.291,0,0,1,1.661.333,4.894,4.894,0,0,1,1.464.976,5.4,5.4,0,0,1,1.566,3.148,4.729,4.729,0,0,1,.014,1.01l.826-.385-3.117-6.646,3.083-1.437,4.71,7.678-1.587.848-4.275-7.126-.08.037,3.152,6.722-2.92,1.362a3.942,3.942,0,0,1-2.155,2.513,4.053,4.053,0,0,1-1.682.384Zm-3.879-6.647-.118.376a4.038,4.038,0,0,0-.161,1.52,4.751,4.751,0,0,0,.449,1.637,4.632,4.632,0,0,0,.986,1.4,4.227,4.227,0,0,0,1.3.868,3.713,3.713,0,0,0,1.455.282,3.483,3.483,0,0,0,1.449-.331l.119.255-.119-.255a3.382,3.382,0,0,0,1.883-2.273l.084-.366a4.11,4.11,0,0,0,.062-1.361,4.859,4.859,0,0,0-1.4-2.807,4.344,4.344,0,0,0-1.295-.865,3.536,3.536,0,0,0-3.905.758,3.274,3.274,0,0,0-.667,1l-.068.161Zm6.422-4.062,3.007,6.411.5-.233-3.007-6.411Zm1.581-.737,4.083,6.806.588-.315-4.135-6.741Zm-9.511,4.267a1.074,1.074,0,0,0,.454.478,1,1,0,0,0,.609.071l.16-.034a1.921,1.921,0,0,1-.345-.157,1.253,1.253,0,0,1-.483-.542Zm5.674,5.9c-.066,0-.132,0-.2-.008a3.049,3.049,0,0,1-1.133-.333,3.685,3.685,0,0,1-1.01-.778,4.363,4.363,0,0,1-.764-1.145,4.147,4.147,0,0,1-.373-1.293,3.628,3.628,0,0,1,.066-1.251,2.953,2.953,0,0,1,.483-1.067,2.239,2.239,0,0,1,.876-.727,2.289,2.289,0,0,1,1.134-.211,2.856,2.856,0,0,1,1.124.321,3.757,3.757,0,0,1,.99.756,4.206,4.206,0,0,1,.751,1.116,4.422,4.422,0,0,1,.387,1.322,3.837,3.837,0,0,1-.046,1.267,2.929,2.929,0,0,1-.467,1.082,2.248,2.248,0,0,1-.89.745h0A2.2,2.2,0,0,1,6385.643,1242.239Zm-1.085-6.257a1.7,1.7,0,0,0-.732.165,1.66,1.66,0,0,0-.659.548,2.4,2.4,0,0,0-.39.866,3.092,3.092,0,0,0-.054,1.057,3.636,3.636,0,0,0,.323,1.119,3.866,3.866,0,0,0,.666,1,3.142,3.142,0,0,0,.856.661,2.482,2.482,0,0,0,.923.272,1.656,1.656,0,0,0,1.511-.705,2.346,2.346,0,0,0,.377-.875,3.246,3.246,0,0,0,.037-1.081,3.834,3.834,0,0,0-.338-1.152,3.625,3.625,0,0,0-.65-.967,3.193,3.193,0,0,0-.839-.644,2.326,2.326,0,0,0-.9-.259C6384.642,1235.984,6384.6,1235.982,6384.558,1235.982Z" fill="red"/><path d="M6380.454,1227.93l-.9-1.933,4.94-2.273-.093,0a4.239,4.239,0,0,1-1.489-.349,4.369,4.369,0,0,1-1.285-.877,4.8,4.8,0,0,1-.981-1.423,4.719,4.719,0,0,1-.421-1.518,3.806,3.806,0,0,1,.164-1.567,3.968,3.968,0,0,1,.835-1.427,4.727,4.727,0,0,1,1.558-1.114l4.407-2.075.908,1.948-4.108,1.916a3.126,3.126,0,0,0-.89.619,2.582,2.582,0,0,0-.77,1.94,3.457,3.457,0,0,0,1.209,2.414,3.207,3.207,0,0,0,1.13.568,3.259,3.259,0,0,0,1.136.1,2.73,2.73,0,0,0,.887-.209l3.979-1.835.893,1.915Zm-.153-1.659.425.911,10.088-4.7-.419-.9-3.469,1.6a2.79,2.79,0,0,1-.673.2l.056.122Zm6.615-12.152-3.9,1.835a4.184,4.184,0,0,0-1.377.978,3.438,3.438,0,0,0-.72,1.227,3.245,3.245,0,0,0-.139,1.336,4.168,4.168,0,0,0,.371,1.339,4.244,4.244,0,0,0,.864,1.257,3.768,3.768,0,0,0,1.119.765,3.617,3.617,0,0,0,.78.241,4.117,4.117,0,0,1-.721-.442,4.021,4.021,0,0,1-1.432-2.852,3.151,3.151,0,0,1,.935-2.348,3.71,3.71,0,0,1,1.05-.731l3.6-1.678Z" fill="red"/><path d="M6385.522,1207.275a4.741,4.741,0,0,1-1.742-.329,5.064,5.064,0,0,1-1.552-.982,5.118,5.118,0,0,1-1.61-3.452,5.074,5.074,0,0,1,.246-1.82,4.757,4.757,0,0,1,.89-1.573,4.469,4.469,0,0,1,3.3-1.539,4.747,4.747,0,0,1,1.777.329,5.048,5.048,0,0,1,1.552.982,5.034,5.034,0,0,1,1.363,5.272,4.69,4.69,0,0,1-.889,1.573,4.344,4.344,0,0,1-1.486,1.121h0a4.345,4.345,0,0,1-1.815.418Zm-.432-9.133h-.031a3.911,3.911,0,0,0-2.877,1.342,4.151,4.151,0,0,0-.784,1.386,4.491,4.491,0,0,0-.218,1.617,4.556,4.556,0,0,0,1.428,3.062,4.492,4.492,0,0,0,1.379.874,4.151,4.151,0,0,0,1.566.29,3.784,3.784,0,0,0,1.581-.366h0a3.78,3.78,0,0,0,1.3-.976,4.163,4.163,0,0,0,.784-1.386,4.479,4.479,0,0,0,.218-1.617,4.554,4.554,0,0,0-1.428-3.062,4.485,4.485,0,0,0-1.379-.874A4.172,4.172,0,0,0,6385.09,1198.142Zm.657,7.892-.113,0a3.262,3.262,0,0,1-1.255-.311,4.079,4.079,0,0,1-1.11-.771,3.981,3.981,0,0,1-.833-1.184,3.92,3.92,0,0,1-.364-1.385,3.846,3.846,0,0,1,.131-1.335,3.394,3.394,0,0,1,.574-1.141,2.647,2.647,0,0,1,2.222-1.036,3.493,3.493,0,0,1,1.248.288,3.922,3.922,0,0,1,1.123.75,3.947,3.947,0,0,1,1.2,2.574,4.133,4.133,0,0,1-.138,1.353,3.374,3.374,0,0,1-.576,1.162,2.642,2.642,0,0,1-2.109,1.038Zm-.861-6.605a2.07,2.07,0,0,0-.887.2,2.091,2.091,0,0,0-.777.625,2.823,2.823,0,0,0-.479.952,3.316,3.316,0,0,0-.11,1.141,3.355,3.355,0,0,0,.313,1.186,3.39,3.39,0,0,0,.714,1.017,3.551,3.551,0,0,0,.957.667,2.708,2.708,0,0,0,1.04.258,2.09,2.09,0,0,0,.978-.193h0a2.092,2.092,0,0,0,.776-.625,2.832,2.832,0,0,0,.479-.969,3.546,3.546,0,0,0,.119-1.169,3.3,3.3,0,0,0-.312-1.2,3.243,3.243,0,0,0-.713-1,3.3,3.3,0,0,0-.96-.643,2.937,2.937,0,0,0-1.048-.243Z" fill="red"/><path d="M6383.33,1191.444l-.872-1.869,3.971-1.852a2.656,2.656,0,0,0,.837-.608,2.69,2.69,0,0,0,.533-.845,2.456,2.456,0,0,0,.163-.977,2.755,2.755,0,0,0-.881-1.888,2.549,2.549,0,0,0-.858-.511,2.5,2.5,0,0,0-.984-.133,2.737,2.737,0,0,0-1,.257l-3.981,1.877-.859-1.9,3.959-1.867a4.517,4.517,0,0,1,1.805-.432,4.641,4.641,0,0,1,1.759.291,4.734,4.734,0,0,1,1.52.926,4.616,4.616,0,0,1,1.1,1.495,4.711,4.711,0,0,1,.181,3.575,4.551,4.551,0,0,1-.914,1.529,4.6,4.6,0,0,1-1.492,1.093Zm-.125-1.6.4.852,3.469-1.6a4.049,4.049,0,0,0,1.31-.959,4,4,0,0,0,.8-1.341,4.165,4.165,0,0,0,.232-1.559,4.117,4.117,0,0,0-.393-1.59,4.064,4.064,0,0,0-.961-1.315,4.208,4.208,0,0,0-1.341-.818,4.109,4.109,0,0,0-1.548-.255,3.951,3.951,0,0,0-1.58.38l-3.457,1.63.395.87,3.465-1.633a3.308,3.308,0,0,1,1.209-.31,3.059,3.059,0,0,1,1.2.164,3.113,3.113,0,0,1,1.048.623,3.313,3.313,0,0,1,1.068,2.29,3.013,3.013,0,0,1-.2,1.2,3.258,3.258,0,0,1-.644,1.022,3.217,3.217,0,0,1-1.012.737Z" fill="red"/><path d="M6379.943,1175.376l-.88-1.886,2.324-1.084-.684-1.468,1.458-.68.684,1.468q.62-.291,1.238-.586.747-.359,1.5-.708a3.659,3.659,0,0,0,1.166-.77,1.466,1.466,0,0,0,.386-.755,1.773,1.773,0,0,0-.083-.831,9.257,9.257,0,0,0-.394-.981l-.119-.255,1.794-.837.483,1.035a4.285,4.285,0,0,1,.4,1.449,3.359,3.359,0,0,1-.181,1.421,3.556,3.556,0,0,1-.812,1.269,4.878,4.878,0,0,1-1.466,1.006q-.825.384-1.638.773-.69.33-1.388.656l.249.536-1.458.679-.249-.535Zm-.132-1.614.4.866,2.324-1.084.249.536.439-.2-.25-.536.255-.119q.825-.384,1.638-.773t1.643-.775a4.3,4.3,0,0,0,1.3-.887,3,3,0,0,0,.687-1.067,2.791,2.791,0,0,0,.15-1.185,3.713,3.713,0,0,0-.345-1.258l-.245-.525-.778.362c.117.27.219.533.3.785a2.335,2.335,0,0,1,.1,1.092,2.015,2.015,0,0,1-.523,1.047,4.15,4.15,0,0,1-1.348.905q-.747.348-1.492.7t-1.5.708l-.255.119-.684-1.469-.439.2.685,1.468Z" fill="red"/><path d="M6378.681,1153.653l-.894-1.917,11.152-5.122.879,1.885Zm-.145-1.641.417.9,10.117-4.682-.4-.868Z" fill="red"/><path d="M6380.229,1142.181l-.893-1.916.892-.417.894,1.917Zm1.514-.669-.894-1.916,8.064-3.76.9,1.933Zm-.146-1.643.418.9,7.051-3.27-.425-.912Z" fill="red"/><path d="M6378.906,1131.925l-1.521-3.262,1.549-.723.642,1.376,1.509-.7-.642-1.377,1.657-.773.642,1.377,6.392-2.981.88,1.886-6.393,2.981.371.8-1.656.772-.371-.795Zm-.774-2.991,1.046,2.244,3.059-1.427.37.8.638-.3-.371-.8,6.392-2.981-.4-.866-6.392,2.98-.642-1.376-.637.3.642,1.377-2.529,1.178-.642-1.376Z" fill="red"/><path d="M6385.428,1118.119h-.071a4.48,4.48,0,0,1-1.817-.406,4.722,4.722,0,0,1-1.454-1.058,5.666,5.666,0,0,1-1-1.473,6.08,6.08,0,0,1-.517-1.8,4.533,4.533,0,0,1,.148-1.874,4.361,4.361,0,0,1,.972-1.688,5.153,5.153,0,0,1,1.922-1.264l.246-.1,3.258,6.946a2.243,2.243,0,0,0,.51-.451,2.123,2.123,0,0,0,.423-.84,2.836,2.836,0,0,0,.056-1.06,4.127,4.127,0,0,0-.374-1.23,3.472,3.472,0,0,0-.644-.981,2.835,2.835,0,0,0-.695-.531,2.08,2.08,0,0,0-.642-.219,3.113,3.113,0,0,0-.548-.046h-.253l-.239-2.134.31-.005a5.469,5.469,0,0,1,.928.077,3.694,3.694,0,0,1,1.17.41,4.991,4.991,0,0,1,1.212.944,6.183,6.183,0,0,1,1.1,1.691,6.619,6.619,0,0,1,.632,2.175,4.524,4.524,0,0,1-.2,1.875,3.986,3.986,0,0,1-.93,1.5,5.065,5.065,0,0,1-1.5,1.049A4.758,4.758,0,0,1,6385.428,1118.119Zm-1.852-8.937a4.391,4.391,0,0,0-1.47,1.016,3.807,3.807,0,0,0-.85,1.471,3.972,3.972,0,0,0-.129,1.643,5.5,5.5,0,0,0,.468,1.632,5.084,5.084,0,0,0,.9,1.326,4.15,4.15,0,0,0,1.281.934,3.921,3.921,0,0,0,1.59.352,4.186,4.186,0,0,0,1.83-.433,4.547,4.547,0,0,0,1.336-.933,3.427,3.427,0,0,0,.8-1.294,3.944,3.944,0,0,0,.171-1.642,6.087,6.087,0,0,0-.582-1.988,5.6,5.6,0,0,0-1-1.536,4.429,4.429,0,0,0-1.072-.84,3.171,3.171,0,0,0-.991-.35c-.19-.029-.365-.05-.523-.061l.113,1.013c.114.008.24.023.379.043a2.647,2.647,0,0,1,.817.274,3.42,3.42,0,0,1,.837.636,4,4,0,0,1,.754,1.14,4.66,4.66,0,0,1,.423,1.4,3.383,3.383,0,0,1-.069,1.269,2.683,2.683,0,0,1-.535,1.059,2.894,2.894,0,0,1-.942.739l-.258.129Zm1.645,7.468a2.7,2.7,0,0,1-.348-.022,3.049,3.049,0,0,1-1.1-.359,3.38,3.38,0,0,1-.883-.715,4.071,4.071,0,0,1-.627-.959h0a4.2,4.2,0,0,1-.334-1.1,3.641,3.641,0,0,1,0-1.178,3.038,3.038,0,0,1,.408-1.1,2.519,2.519,0,0,1,.93-.876l.265-.151,2.9,6.228-.309.094A3.07,3.07,0,0,1,6385.221,1116.65Zm-2.447-2.293a3.5,3.5,0,0,0,.539.825,2.816,2.816,0,0,0,.735.6,2.481,2.481,0,0,0,.9.292,2.27,2.27,0,0,0,.7-.021l-2.357-5.054a1.845,1.845,0,0,0-.471.511,2.52,2.52,0,0,0-.333.9,3.105,3.105,0,0,0,0,1,3.658,3.658,0,0,0,.289.954Z" fill="red"/></g></svg>