<svg xmlns="http://www.w3.org/2000/svg" width="226.571" height="12.498" viewBox="0 0 226.571 12.498"><g transform="translate(-6559.319 -1358.353)"><path d="M6780.891,1369.3a5.007,5.007,0,0,1-1.584-.252,4.716,4.716,0,0,1-1.572-.889,4.467,4.467,0,0,1-1.54-3.3,4.726,4.726,0,0,1,.33-1.777,5.045,5.045,0,0,1,.981-1.552,5.122,5.122,0,0,1,3.452-1.61,5.03,5.03,0,0,1,1.82.246,4.711,4.711,0,0,1,1.573.89,4.337,4.337,0,0,1,1.121,1.486h0a4.34,4.34,0,0,1,.418,1.815,4.705,4.705,0,0,1-.329,1.776,5.061,5.061,0,0,1-.982,1.553,5.123,5.123,0,0,1-3.452,1.609Q6781.008,1369.3,6780.891,1369.3Zm.306-8.824c-.071,0-.142,0-.214.005a4.555,4.555,0,0,0-3.062,1.428,4.493,4.493,0,0,0-.873,1.379,4.153,4.153,0,0,0-.29,1.566,3.906,3.906,0,0,0,1.341,2.877,4.188,4.188,0,0,0,1.386.784,4.5,4.5,0,0,0,1.618.218,4.562,4.562,0,0,0,3.062-1.428,4.522,4.522,0,0,0,.873-1.38,4.163,4.163,0,0,0,.29-1.565,3.78,3.78,0,0,0-.366-1.581h0a3.775,3.775,0,0,0-.975-1.3,4.147,4.147,0,0,0-1.386-.784A4.43,4.43,0,0,0,6781.2,1360.477Zm-.5,7.375a3.756,3.756,0,0,1-1.037-.141,3.4,3.4,0,0,1-1.14-.574,2.644,2.644,0,0,1-1.037-2.222,3.51,3.51,0,0,1,.289-1.248,3.894,3.894,0,0,1,.75-1.124,3.943,3.943,0,0,1,2.574-1.2,4.113,4.113,0,0,1,1.353.139,3.38,3.38,0,0,1,1.161.576,2.643,2.643,0,0,1,1.036,2.221,3.243,3.243,0,0,1-.311,1.255,4.067,4.067,0,0,1-.771,1.11,3.977,3.977,0,0,1-1.184.834,3.937,3.937,0,0,1-1.384.364C6780.9,1367.849,6780.8,1367.852,6780.7,1367.852Zm.659-5.954c-.075,0-.151,0-.227.007a3.383,3.383,0,0,0-2.2,1.024,3.338,3.338,0,0,0-.643.961,2.937,2.937,0,0,0-.243,1.048,2.082,2.082,0,0,0,.819,1.754,2.839,2.839,0,0,0,.951.479,3.317,3.317,0,0,0,1.141.11,3.376,3.376,0,0,0,1.187-.313,3.42,3.42,0,0,0,1.016-.714,3.531,3.531,0,0,0,.667-.958,2.708,2.708,0,0,0,.258-1.039,2.084,2.084,0,0,0-.193-.978h0a2.084,2.084,0,0,0-.625-.776,2.792,2.792,0,0,0-.969-.479A3.474,3.474,0,0,0,6781.357,1361.9Z" fill="red"/><path d="M6762.575,1369.709a3.787,3.787,0,0,1-1.168-.183,3.983,3.983,0,0,1-1.43-.834,4.732,4.732,0,0,1-1.114-1.558l-2.075-4.407,1.948-.909,1.916,4.109a3.173,3.173,0,0,0,.627.905,2.557,2.557,0,0,0,.862.571,2.527,2.527,0,0,0,1.059.167,3.291,3.291,0,0,0,1.236-.33,3.023,3.023,0,0,0,1.156-.885,3.408,3.408,0,0,0,.583-1.13,3.267,3.267,0,0,0,.126-1.13,2.547,2.547,0,0,0-.2-.878l-1.835-3.978,1.9-.886,3.754,8.048-1.919.9-.853-1.879-.006.1a4.284,4.284,0,0,1-1.228,2.772,4.98,4.98,0,0,1-2.94,1.4A3.853,3.853,0,0,1,6762.575,1369.709Zm-5.038-6.711,1.835,3.9a4.176,4.176,0,0,0,.979,1.376,3.425,3.425,0,0,0,1.227.72,3.267,3.267,0,0,0,1.34.138,4.155,4.155,0,0,0,1.341-.373,4.2,4.2,0,0,0,1.253-.861,3.831,3.831,0,0,0,.76-1.117,3.749,3.749,0,0,0,.269-.921,4.173,4.173,0,0,1-.5.839,3.58,3.58,0,0,1-1.365,1.054,3.844,3.844,0,0,1-1.449.382,3.042,3.042,0,0,1-2.344-.9,3.767,3.767,0,0,1-.739-1.065l-1.678-3.6Zm9.4.6,1.339,2.95.894-.417-3.277-7.029-.884.412,1.6,3.469a2.644,2.644,0,0,1,.2.675Z" fill="red"/><path d="M6745.378,1369.383a4.48,4.48,0,0,1-1.282-.186,4.364,4.364,0,0,1-1.688-.972,5.143,5.143,0,0,1-1.264-1.922l-.1-.247,6.947-3.257a2.263,2.263,0,0,0-.452-.511,2.141,2.141,0,0,0-.84-.423,2.851,2.851,0,0,0-1.06-.055,4.135,4.135,0,0,0-1.229.374,3.472,3.472,0,0,0-.981.644,2.821,2.821,0,0,0-.532.695,2.082,2.082,0,0,0-.218.641,3.754,3.754,0,0,0-.047.549l0,.253-2.135.238,0-.309a5.721,5.721,0,0,1,.076-.929,3.744,3.744,0,0,1,.41-1.169,5,5,0,0,1,.944-1.212,6.185,6.185,0,0,1,1.691-1.1,6.617,6.617,0,0,1,2.175-.632,4.484,4.484,0,0,1,1.875.2,3.977,3.977,0,0,1,1.5.93,5.11,5.11,0,0,1,1.049,1.5,4.723,4.723,0,0,1,.486,2.079,4.476,4.476,0,0,1-.405,1.817,4.711,4.711,0,0,1-1.059,1.454,5.667,5.667,0,0,1-1.472,1,6.076,6.076,0,0,1-1.8.517A4.73,4.73,0,0,1,6745.378,1369.383Zm-3.608-3.045a4.377,4.377,0,0,0,1.015,1.47,3.813,3.813,0,0,0,1.471.85,3.983,3.983,0,0,0,1.643.129,5.5,5.5,0,0,0,1.633-.469,5.08,5.08,0,0,0,1.326-.9,4.133,4.133,0,0,0,.933-1.281,3.905,3.905,0,0,0,.353-1.59,4.175,4.175,0,0,0-.434-1.83,4.521,4.521,0,0,0-.932-1.336,3.431,3.431,0,0,0-1.294-.8,3.931,3.931,0,0,0-1.642-.171,6.047,6.047,0,0,0-1.988.582,5.632,5.632,0,0,0-1.537,1,4.444,4.444,0,0,0-.839,1.073,3.15,3.15,0,0,0-.351.99c-.029.191-.049.366-.06.524l1.012-.113c.009-.115.024-.24.044-.379a2.629,2.629,0,0,1,.274-.818,3.405,3.405,0,0,1,.635-.836,4.047,4.047,0,0,1,1.14-.755,4.7,4.7,0,0,1,1.4-.422,3.384,3.384,0,0,1,1.27.069,2.694,2.694,0,0,1,1.058.534,2.906,2.906,0,0,1,.739.943l.13.258Zm3.705,1.7a3.64,3.64,0,0,1-.571-.046,3.06,3.06,0,0,1-1.1-.408,2.536,2.536,0,0,1-.877-.93l-.15-.265,6.227-2.9.1.308a2.943,2.943,0,0,1,.118,1.251,3.021,3.021,0,0,1-.358,1.1,3.385,3.385,0,0,1-.715.882,4.027,4.027,0,0,1-.959.627h0a4.226,4.226,0,0,1-1.1.335A3.793,3.793,0,0,1,6745.475,1368.034Zm-1.892-1.406a1.813,1.813,0,0,0,.511.471,2.492,2.492,0,0,0,.9.334,3.117,3.117,0,0,0,1,0,3.675,3.675,0,0,0,.954-.289,3.463,3.463,0,0,0,.824-.539,2.817,2.817,0,0,0,.6-.736,2.494,2.494,0,0,0,.292-.9,2.274,2.274,0,0,0-.021-.7Z" fill="red"/><path d="M6723.174,1370.851l-1.083-2.325-1.468.685-.68-1.458,1.468-.684q-.292-.621-.586-1.238-.359-.747-.708-1.5a3.674,3.674,0,0,0-.77-1.166,1.464,1.464,0,0,0-.755-.386,1.773,1.773,0,0,0-.831.083,9.046,9.046,0,0,0-.982.394l-.254.119-.837-1.794,1.034-.483a4.3,4.3,0,0,1,1.45-.4,3.362,3.362,0,0,1,1.421.181,3.555,3.555,0,0,1,1.268.811,4.856,4.856,0,0,1,1.006,1.467q.385.825.774,1.638.328.69.656,1.388l.535-.25.68,1.459-.535.249,1.083,2.324Zm-.812-3.072,1.084,2.324.867-.4-1.084-2.324.536-.25-.205-.438-.535.25-.119-.255q-.384-.825-.773-1.638t-.776-1.643a4.331,4.331,0,0,0-.886-1.3,3.024,3.024,0,0,0-1.068-.687,2.8,2.8,0,0,0-1.184-.15,3.718,3.718,0,0,0-1.259.346l-.525.245.363.778c.269-.118.532-.219.785-.3a2.336,2.336,0,0,1,1.091-.106,2.017,2.017,0,0,1,1.048.523,4.146,4.146,0,0,1,.9,1.349q.348.747.705,1.492t.708,1.5l.119.255-1.469.684.205.439Z" fill="red"/><path d="M6710.844,1370.361l-2.272-4.94c0,.031,0,.062,0,.094a4.241,4.241,0,0,1-.349,1.488,4.356,4.356,0,0,1-.877,1.286,4.819,4.819,0,0,1-1.423.981,4.755,4.755,0,0,1-1.519.421,3.829,3.829,0,0,1-1.566-.164,3.993,3.993,0,0,1-1.428-.835,4.747,4.747,0,0,1-1.113-1.558l-2.075-4.407,1.948-.909,1.916,4.109a3.1,3.1,0,0,0,.619.89,2.582,2.582,0,0,0,1.94.77,3.464,3.464,0,0,0,2.414-1.21,3.228,3.228,0,0,0,.672-2.266,2.726,2.726,0,0,0-.209-.886l-1.835-3.979,1.915-.893,5.18,11.107Zm-2.489-6.756,2.764,6.008.911-.425-4.7-10.088-.9.419,1.6,3.469a2.773,2.773,0,0,1,.205.673Zm-9.388-.607,1.835,3.9a4.174,4.174,0,0,0,.978,1.376,3.447,3.447,0,0,0,1.226.721,3.251,3.251,0,0,0,1.337.139,4.167,4.167,0,0,0,1.339-.371,4.256,4.256,0,0,0,1.257-.864,3.809,3.809,0,0,0,.765-1.119,3.6,3.6,0,0,0,.241-.781,4.1,4.1,0,0,1-.442.722,4.021,4.021,0,0,1-2.852,1.431,3.141,3.141,0,0,1-2.348-.935,3.694,3.694,0,0,1-.731-1.049l-1.678-3.6Z" fill="red"/><path d="M6685.543,1370.422l-3.753-8.049,1.8-.839,1.248,2.822c0-.136.007-.272.014-.407a7.157,7.157,0,0,1,.312-1.744,4.781,4.781,0,0,1,.762-1.483,3.456,3.456,0,0,1,1.292-1.028,2.978,2.978,0,0,1,1.141-.285,3.023,3.023,0,0,1,1.106.151,2.9,2.9,0,0,1,.951.536,2.546,2.546,0,0,1,.671.878,2.343,2.343,0,0,1,.208,1.474,3.4,3.4,0,0,1-.586,1.309,6.469,6.469,0,0,1-1.065,1.14c-.409.347-.834.685-1.265,1s-.843.623-1.242.915a7.769,7.769,0,0,0-.813.673l.19.408,5.612-2.617.794,1.7Zm-3.006-7.777,3.278,7.03,6.357-2.964-.319-.683-5.612,2.617-.593-1.271.134-.139a7.805,7.805,0,0,1,1.022-.873q.6-.437,1.239-.913c.421-.312.837-.642,1.236-.981a5.858,5.858,0,0,0,.972-1.039,2.841,2.841,0,0,0,.491-1.092,1.768,1.768,0,0,0-.166-1.125,1.956,1.956,0,0,0-.524-.686,2.33,2.33,0,0,0-.768-.433,2.469,2.469,0,0,0-.9-.122,2.422,2.422,0,0,0-.928.232,2.9,2.9,0,0,0-1.084.862,4.219,4.219,0,0,0-.672,1.309,6.438,6.438,0,0,0-.233,1.051c.053-.151.11-.3.173-.441a4.635,4.635,0,0,1,.739-1.187,3.244,3.244,0,0,1,1.1-.826,1.777,1.777,0,0,1,1.322-.117,1.482,1.482,0,0,1,.935.808h0a1.319,1.319,0,0,1,.065,1,2.67,2.67,0,0,1-.519.879,6.292,6.292,0,0,1-.847.805q-.482.384-.989.753t-.972.722a8.549,8.549,0,0,0-.786.663l-.283.275-.3-.653-.081.038-1.707-3.86Zm5.756-1.306a1.379,1.379,0,0,0-.582.141,2.684,2.684,0,0,0-.907.685,4.086,4.086,0,0,0-.65,1.044,6.227,6.227,0,0,0-.4,1.3,8.624,8.624,0,0,0-.142,1.282c.155-.134.326-.272.511-.412q.478-.363.983-.73t.968-.737a5.708,5.708,0,0,0,.772-.731,2.129,2.129,0,0,0,.411-.691.757.757,0,0,0-.041-.586.925.925,0,0,0-.594-.509A1.093,1.093,0,0,0,6688.293,1361.339Z" fill="red"/><path d="M6675.921,1370.851l-1.083-2.325-1.468.685-.68-1.458,1.468-.684q-.292-.621-.587-1.238-.357-.747-.707-1.5a3.666,3.666,0,0,0-.77-1.166,1.468,1.468,0,0,0-.755-.386,1.775,1.775,0,0,0-.831.083,9.04,9.04,0,0,0-.982.394l-.254.119-.837-1.794,1.034-.483a4.292,4.292,0,0,1,1.45-.4,3.362,3.362,0,0,1,1.421.181,3.559,3.559,0,0,1,1.268.811,4.864,4.864,0,0,1,1.006,1.467q.385.825.773,1.638.33.69.657,1.388l.535-.25.68,1.459-.535.249,1.083,2.324Zm-.812-3.072,1.084,2.324.867-.4-1.084-2.324.536-.25-.205-.438-.536.25-.118-.255q-.384-.825-.773-1.638t-.776-1.643a4.322,4.322,0,0,0-.886-1.3,3.022,3.022,0,0,0-1.068-.687,2.8,2.8,0,0,0-1.184-.15,3.712,3.712,0,0,0-1.259.346l-.525.245.363.778c.269-.118.532-.219.785-.3a2.336,2.336,0,0,1,1.091-.106,2.017,2.017,0,0,1,1.048.523,4.146,4.146,0,0,1,.9,1.349q.348.747.705,1.492t.707,1.5l.12.255-1.469.684.2.439Z" fill="red"/><path d="M6647.114,1369.3a5.007,5.007,0,0,1-1.584-.252,4.718,4.718,0,0,1-1.573-.889,4.471,4.471,0,0,1-1.539-3.3,4.706,4.706,0,0,1,.329-1.777,5.039,5.039,0,0,1,.982-1.552,5.114,5.114,0,0,1,3.452-1.61,5.038,5.038,0,0,1,1.82.246,4.711,4.711,0,0,1,1.573.89,4.348,4.348,0,0,1,1.121,1.486h0a4.34,4.34,0,0,1,.418,1.815,4.725,4.725,0,0,1-.33,1.776,5.05,5.05,0,0,1-.981,1.553,5.125,5.125,0,0,1-3.452,1.609C6647.271,1369.3,6647.192,1369.3,6647.114,1369.3Zm.306-8.824c-.071,0-.143,0-.215.005a4.561,4.561,0,0,0-3.062,1.428,4.5,4.5,0,0,0-.873,1.379,4.172,4.172,0,0,0-.29,1.566,3.913,3.913,0,0,0,1.342,2.877,4.186,4.186,0,0,0,1.385.784,4.508,4.508,0,0,0,1.618.218,4.557,4.557,0,0,0,3.062-1.428,4.474,4.474,0,0,0,.873-1.38,4.125,4.125,0,0,0,.29-1.565,3.771,3.771,0,0,0-.365-1.581h0a3.783,3.783,0,0,0-.976-1.3,4.152,4.152,0,0,0-1.386-.784A4.427,4.427,0,0,0,6647.42,1360.477Zm-.5,7.375a3.756,3.756,0,0,1-1.037-.141,3.407,3.407,0,0,1-1.141-.574,2.646,2.646,0,0,1-1.036-2.222,3.478,3.478,0,0,1,.288-1.248,3.9,3.9,0,0,1,.75-1.124,3.949,3.949,0,0,1,2.574-1.2,4.108,4.108,0,0,1,1.353.139,3.374,3.374,0,0,1,1.162.576,2.643,2.643,0,0,1,1.036,2.221,3.261,3.261,0,0,1-.311,1.255,4.081,4.081,0,0,1-.772,1.11,3.985,3.985,0,0,1-1.183.834,3.945,3.945,0,0,1-1.385.364C6647.119,1367.849,6647.019,1367.852,6646.921,1367.852Zm.659-5.954c-.076,0-.152,0-.228.007a3.383,3.383,0,0,0-2.2,1.024,3.346,3.346,0,0,0-.643.961,2.935,2.935,0,0,0-.242,1.048,2.079,2.079,0,0,0,.818,1.754,2.851,2.851,0,0,0,.952.479,3.316,3.316,0,0,0,1.141.11,3.366,3.366,0,0,0,1.186-.313,3.416,3.416,0,0,0,1.017-.714,3.531,3.531,0,0,0,.667-.958,2.7,2.7,0,0,0,.257-1.039,2.108,2.108,0,0,0-.192-.978h0a2.094,2.094,0,0,0-.625-.776,2.813,2.813,0,0,0-.969-.479A3.482,3.482,0,0,0,6647.58,1361.9Z" fill="red"/><path d="M6629.674,1369.451a4.678,4.678,0,0,1-.593-.037,4.49,4.49,0,0,1-1.411-.427,4.228,4.228,0,0,1-1.258-.966l-.19-.208,1.416-1.289.19.2a2.607,2.607,0,0,0,1.522.809,3.281,3.281,0,0,0,1.887-.336,3.773,3.773,0,0,0,.977-.656,2.931,2.931,0,0,0,.669-.9,2.61,2.61,0,0,0,.25-1.087,2.733,2.733,0,0,0-.283-1.215,2.638,2.638,0,0,0-.739-.981,2.559,2.559,0,0,0-.971-.482,2.946,2.946,0,0,0-1.1-.051,3.8,3.8,0,0,0-1.091.317,3.474,3.474,0,0,0-1.482,1.222,2.479,2.479,0,0,0-.4,1.663l.027.272-1.942.253-.031-.286a4.06,4.06,0,0,1,.125-1.577,4.739,4.739,0,0,1,.635-1.354,5.165,5.165,0,0,1,1.011-1.1,6.127,6.127,0,0,1,1.276-.8,5.855,5.855,0,0,1,1.751-.5,4.737,4.737,0,0,1,1.8.114,4.346,4.346,0,0,1,1.623.834,4.593,4.593,0,0,1,1.244,1.661,4.649,4.649,0,0,1,.475,2.066,4.288,4.288,0,0,1-.435,1.824,4.974,4.974,0,0,1-1.1,1.462,6.035,6.035,0,0,1-1.524,1.024,5.9,5.9,0,0,1-1.447.462A4.963,4.963,0,0,1,6629.674,1369.451Zm-2.651-1.607a3.577,3.577,0,0,0,.9.638,3.9,3.9,0,0,0,1.233.374,4.33,4.33,0,0,0,1.3-.038,5.343,5.343,0,0,0,1.308-.418,5.493,5.493,0,0,0,1.382-.928,4.455,4.455,0,0,0,.98-1.3,3.769,3.769,0,0,0,.376-1.588,4.086,4.086,0,0,0-.423-1.815,4.037,4.037,0,0,0-1.087-1.461,3.76,3.76,0,0,0-1.414-.728,4.162,4.162,0,0,0-1.581-.1,5.328,5.328,0,0,0-1.583.455,5.589,5.589,0,0,0-1.158.726,4.589,4.589,0,0,0-.9.983,4.179,4.179,0,0,0-.56,1.2,3.393,3.393,0,0,0-.127,1.073l.832-.109a3.032,3.032,0,0,1,.5-1.754,4.017,4.017,0,0,1,1.716-1.423,4.3,4.3,0,0,1,1.253-.365,3.466,3.466,0,0,1,1.3.062,3.1,3.1,0,0,1,1.184.586,3.168,3.168,0,0,1,.9,1.185,3.3,3.3,0,0,1,.335,1.465,3.176,3.176,0,0,1-.3,1.318,3.52,3.52,0,0,1-.795,1.07,4.36,4.36,0,0,1-1.122.753,3.833,3.833,0,0,1-2.209.382,3.146,3.146,0,0,1-1.644-.784Z" fill="red"/><path d="M6612.678,1369.451a4.681,4.681,0,0,1-.593-.037,4.49,4.49,0,0,1-1.411-.427,4.228,4.228,0,0,1-1.258-.966l-.19-.208,1.416-1.289.19.2a2.607,2.607,0,0,0,1.522.809,3.285,3.285,0,0,0,1.887-.336,3.77,3.77,0,0,0,.977-.656,2.956,2.956,0,0,0,.669-.9,2.625,2.625,0,0,0,.25-1.087,2.74,2.74,0,0,0-.283-1.215,2.637,2.637,0,0,0-.739-.981,2.565,2.565,0,0,0-.971-.482,2.946,2.946,0,0,0-1.1-.051,3.8,3.8,0,0,0-1.091.317,3.477,3.477,0,0,0-1.482,1.222,2.474,2.474,0,0,0-.4,1.663l.027.272-1.942.253-.031-.286a4.06,4.06,0,0,1,.125-1.577,4.739,4.739,0,0,1,.635-1.354,5.14,5.14,0,0,1,1.011-1.1,6.13,6.13,0,0,1,1.276-.8,5.851,5.851,0,0,1,1.751-.5,4.736,4.736,0,0,1,1.795.114,4.342,4.342,0,0,1,1.623.834,4.587,4.587,0,0,1,1.244,1.661,4.649,4.649,0,0,1,.475,2.066,4.288,4.288,0,0,1-.435,1.824,4.966,4.966,0,0,1-1.1,1.462,6.023,6.023,0,0,1-1.525,1.024,5.874,5.874,0,0,1-1.446.462A4.953,4.953,0,0,1,6612.678,1369.451Zm-2.651-1.607a3.586,3.586,0,0,0,.9.638,3.9,3.9,0,0,0,1.233.374,4.33,4.33,0,0,0,1.3-.038,5.343,5.343,0,0,0,1.308-.418,5.493,5.493,0,0,0,1.382-.928,4.447,4.447,0,0,0,.98-1.3,3.754,3.754,0,0,0,.376-1.588,4.086,4.086,0,0,0-.423-1.815,4.037,4.037,0,0,0-1.087-1.461,3.76,3.76,0,0,0-1.414-.728,4.161,4.161,0,0,0-1.581-.1,5.332,5.332,0,0,0-1.583.455,5.589,5.589,0,0,0-1.158.726,4.6,4.6,0,0,0-.9.983,4.179,4.179,0,0,0-.56,1.2,3.421,3.421,0,0,0-.127,1.073l.832-.109a3.035,3.035,0,0,1,.5-1.754,4.018,4.018,0,0,1,1.716-1.423,4.289,4.289,0,0,1,1.253-.365,3.466,3.466,0,0,1,1.3.062,3.1,3.1,0,0,1,1.184.586,3.168,3.168,0,0,1,.9,1.185,3.3,3.3,0,0,1,.335,1.465,3.184,3.184,0,0,1-.3,1.318,3.52,3.52,0,0,1-.795,1.07,4.36,4.36,0,0,1-1.122.753,3.833,3.833,0,0,1-2.209.382,3.146,3.146,0,0,1-1.644-.784Z" fill="red"/><path d="M6593.837,1370.519l-1.867-3.96a4.5,4.5,0,0,1-.433-1.8,4.682,4.682,0,0,1,.291-1.76,4.762,4.762,0,0,1,.927-1.52,4.783,4.783,0,0,1,3.3-1.539,4.716,4.716,0,0,1,1.768.264,4.571,4.571,0,0,1,2.623,2.405l1.835,3.979-1.87.872-1.852-3.971a2.652,2.652,0,0,0-.607-.837,2.7,2.7,0,0,0-.846-.533,2.456,2.456,0,0,0-.976-.163,2.744,2.744,0,0,0-1.888.88,2.553,2.553,0,0,0-.511.859,2.5,2.5,0,0,0-.134.984,2.744,2.744,0,0,0,.258,1l1.876,3.981Zm2.411-10.025c-.056,0-.113,0-.171,0a4.133,4.133,0,0,0-1.59.393,4.079,4.079,0,0,0-1.315.961,4.194,4.194,0,0,0-.817,1.34,4.115,4.115,0,0,0-.256,1.549,3.958,3.958,0,0,0,.38,1.579l1.63,3.458.871-.395-1.634-3.465a3.324,3.324,0,0,1-.31-1.21,3.062,3.062,0,0,1,.787-2.25,3.3,3.3,0,0,1,2.291-1.068,3.011,3.011,0,0,1,1.2.2,3.235,3.235,0,0,1,1.021.643,3.193,3.193,0,0,1,.737,1.013l1.614,3.461.853-.4-1.6-3.469a4.011,4.011,0,0,0-2.3-2.112A4.125,4.125,0,0,0,6596.248,1360.494Z" fill="red"/><path d="M6578.867,1370.3l-.952-2.043.351-.07a4.042,4.042,0,0,0,1.725-.74,3.749,3.749,0,0,0,1.01-1.161,3.061,3.061,0,0,0,.371-1.256,2.123,2.123,0,0,0-.154-1.028l-1.826-4,1.884-.878,3.753,8.048-1.936.9-.883-1.972c0,.065-.007.13-.012.194a4.659,4.659,0,0,1-.413,1.58,4.3,4.3,0,0,1-1.01,1.358,4.992,4.992,0,0,1-1.665.976Zm-.144-1.642.433.93a4.248,4.248,0,0,0,1.239-.769,3.716,3.716,0,0,0,.879-1.18,4.04,4.04,0,0,0,.362-1.375c-.042.1-.088.191-.139.286a4.3,4.3,0,0,1-1.157,1.338A4.372,4.372,0,0,1,6578.723,1368.662Zm3.3-4.34,1.345,3.005.909-.424-3.278-7.029-.869.405,1.594,3.492a2.23,2.23,0,0,1,.178.608Z" fill="red"/><path d="M6563.951,1369.4h-.11a4.351,4.351,0,0,1-1.284-.217,3.31,3.31,0,0,1-1.142-.657l-.222-.195,1.415-1.463.2.188a1.741,1.741,0,0,0,1.244.447h0a4.035,4.035,0,0,0,1.7-.414,8.964,8.964,0,0,0,.918-.491,3.816,3.816,0,0,0,.689-.528,1.682,1.682,0,0,0,.368-.512.418.418,0,0,0,0-.363.4.4,0,0,0-.237-.234,1.223,1.223,0,0,0-.5-.044,3.283,3.283,0,0,0-.683.148,8.015,8.015,0,0,0-.755.29c-.254.112-.5.226-.739.344s-.459.224-.644.31a9.3,9.3,0,0,1-1.239.472,4.51,4.51,0,0,1-1.274.195,2.2,2.2,0,0,1-2.08-1.386,2.556,2.556,0,0,1-.2-1.688,3.458,3.458,0,0,1,.715-1.378,5.463,5.463,0,0,1,1.207-1.053,10.824,10.824,0,0,1,1.311-.735,7.44,7.44,0,0,1,2.018-.655,5.234,5.234,0,0,1,1.6-.015,3.868,3.868,0,0,1,1.205.39,4.283,4.283,0,0,1,.8.546l.221.2-1.461,1.473-.2-.178a2.65,2.65,0,0,0-.448-.311,1.914,1.914,0,0,0-.659-.21,3.245,3.245,0,0,0-.964.024,5.03,5.03,0,0,0-1.3.434,9.19,9.19,0,0,0-.866.467,3.911,3.911,0,0,0-.753.583,1.783,1.783,0,0,0-.421.634.744.744,0,0,0,.046.6.51.51,0,0,0,.493.359,2.27,2.27,0,0,0,.98-.247l1.636-.763a10.357,10.357,0,0,1,1.334-.507,5.162,5.162,0,0,1,1.388-.232,2.8,2.8,0,0,1,1.278.262,2.094,2.094,0,0,1,.972,1.012,2.066,2.066,0,0,1,.159,1.383,3.141,3.141,0,0,1-.625,1.243,5.619,5.619,0,0,1-1.136,1.05,9.366,9.366,0,0,1-1.444.837,6.633,6.633,0,0,1-1.29.445A5.394,5.394,0,0,1,6563.951,1369.4Zm-1.932-1.115a2.663,2.663,0,0,0,.714.363,3.816,3.816,0,0,0,1.12.189,4.862,4.862,0,0,0,1.2-.128,6.056,6.056,0,0,0,1.18-.408,8.69,8.69,0,0,0,1.356-.785,5.1,5.1,0,0,0,1.024-.944,2.6,2.6,0,0,0,.516-1.021,1.5,1.5,0,0,0-.119-1.009,1.522,1.522,0,0,0-.7-.748,2.274,2.274,0,0,0-1.026-.208,4.606,4.606,0,0,0-1.237.208,9.772,9.772,0,0,0-1.26.479l-1.635.763a2.876,2.876,0,0,1-1.224.3,1.07,1.07,0,0,1-1-.684,1.306,1.306,0,0,1-.064-1.032,2.348,2.348,0,0,1,.55-.836,4.418,4.418,0,0,1,.861-.668,9.811,9.811,0,0,1,.919-.5,5.57,5.57,0,0,1,1.455-.48,3.775,3.775,0,0,1,1.135-.024,2.483,2.483,0,0,1,.853.278,3.941,3.941,0,0,1,.335.212l.665-.671a4.626,4.626,0,0,0-.463-.286,3.285,3.285,0,0,0-1.029-.329,4.65,4.65,0,0,0-1.423.017,6.837,6.837,0,0,0-1.861.608,10.177,10.177,0,0,0-1.243.7,4.895,4.895,0,0,0-1.083.944,2.888,2.888,0,0,0-.6,1.154,2,2,0,0,0,.162,1.316,1.782,1.782,0,0,0,.668.81,1.754,1.754,0,0,0,.9.246,3.669,3.669,0,0,0,1.108-.171,8.57,8.57,0,0,0,1.163-.443q.273-.127.634-.305c.245-.121.5-.238.76-.354a8.415,8.415,0,0,1,.808-.309,3.773,3.773,0,0,1,.8-.174,1.759,1.759,0,0,1,.73.072.959.959,0,0,1,.566.528.984.984,0,0,1,.01.822,2.219,2.219,0,0,1-.488.689,4.328,4.328,0,0,1-.792.609,9.767,9.767,0,0,1-.974.522,4.61,4.61,0,0,1-1.937.467h-.006a2.368,2.368,0,0,1-1.412-.423Z" fill="red"/></g></svg>