<svg xmlns="http://www.w3.org/2000/svg" width="288.781" height="19.37" viewBox="0 0 288.781 19.37"><g transform="translate(-6528.214 -1059)"><rect width="288.781" height="19.37" transform="translate(6528.214 1059)" fill="#fff"/><path d="M6552.106,1075.224l-5.143-11.031,7-3.263a5.225,5.225,0,0,1,1.407-.44,3.82,3.82,0,0,1,1.344.018,2.842,2.842,0,0,1,1.178.534,2.94,2.94,0,0,1,.861,1.11,2.662,2.662,0,0,1,.269,1.765,2.946,2.946,0,0,1-.67,1.277c-.053.059-.107.116-.162.171.13-.016.263-.028.4-.035a3.152,3.152,0,0,1,1.061.129,2.847,2.847,0,0,1,1,.545,3.079,3.079,0,0,1,.8,1.091,3.131,3.131,0,0,1,.125,2.791,4.664,4.664,0,0,1-2.345,2.018Zm-4.4-10.758,4.668,10.011,6.612-3.083a4.135,4.135,0,0,0,2.077-1.756,2.565,2.565,0,0,0-.13-2.3,2.523,2.523,0,0,0-.648-.9,2.3,2.3,0,0,0-.8-.439,2.6,2.6,0,0,0-.873-.106,4.562,4.562,0,0,0-.876.128,5.675,5.675,0,0,0-.754.246,4.7,4.7,0,0,0-.5.23l-.264.15-.271-.576.255-.119c.2-.094.477-.234.828-.423a3.346,3.346,0,0,0,.9-.71,2.407,2.407,0,0,0,.541-1.038,2.122,2.122,0,0,0-.233-1.39,2.375,2.375,0,0,0-.693-.9,2.283,2.283,0,0,0-.947-.43,3.255,3.255,0,0,0-1.146-.013,4.7,4.7,0,0,0-1.257.393Zm5.074,8.9-1.885-4.042,5.683-2.65a5.123,5.123,0,0,1,.972-.344,2.617,2.617,0,0,1,.981-.061,1.94,1.94,0,0,1,.9.363,2.232,2.232,0,0,1,.684.883,2.125,2.125,0,0,1,.116,1.736,2.836,2.836,0,0,1-1.565,1.372Zm-1.138-3.77,1.41,3.023,5.372-2.505a2.373,2.373,0,0,0,1.281-1.072,1.567,1.567,0,0,0-.1-1.29,1.671,1.671,0,0,0-.5-.665,1.388,1.388,0,0,0-.642-.261,2.074,2.074,0,0,0-.772.05,4.659,4.659,0,0,0-.867.308Zm-1.123-1.077-1.692-3.63,5.745-2.679a3.3,3.3,0,0,1,.869-.272,2.361,2.361,0,0,1,.848.007,1.884,1.884,0,0,1,.74.322,1.683,1.683,0,0,1,.535.664,1.83,1.83,0,0,1,.182,1.165,2.227,2.227,0,0,1-.4.879,2.6,2.6,0,0,1-.666.613,5.537,5.537,0,0,1-.6.337Zm-.945-3.358,1.217,2.61,5.052-2.355a5.213,5.213,0,0,0,.535-.3,1.994,1.994,0,0,0,.52-.479,1.648,1.648,0,0,0,.3-.657,1.292,1.292,0,0,0-.142-.807,1.134,1.134,0,0,0-.355-.447,1.306,1.306,0,0,0-.521-.226,1.843,1.843,0,0,0-.647,0,2.755,2.755,0,0,0-.722.227Z" fill="red"/><path d="M6571.72,1073.178l-3.744-8.072,1.916-.893,3.76,8.064Zm-3-7.8,3.27,7.051.912-.425-3.285-7.045Zm-1-.893-.415-.893,1.916-.893.416.892Z" fill="red"/><path d="M6582.487,1074.151l-3.753-8.049,1.936-.9.883,1.973c0-.065.007-.13.013-.195a4.6,4.6,0,0,1,.413-1.579,4.3,4.3,0,0,1,1.009-1.358,4.994,4.994,0,0,1,1.665-.976l.243-.09.952,2.042-.35.071a4.046,4.046,0,0,0-1.726.74,3.727,3.727,0,0,0-1.009,1.161,3.073,3.073,0,0,0-.372,1.255,2.148,2.148,0,0,0,.154,1.028l1.826,4Zm-3-7.777,3.277,7.03.869-.405-1.593-3.492a2.227,2.227,0,0,1-.179-.609l-.12.058-1.346-3.005Zm5.126-2.688a4.273,4.273,0,0,0-1.24.768,3.755,3.755,0,0,0-.879,1.18,4.084,4.084,0,0,0-.362,1.376c.042-.1.088-.191.139-.286a4.3,4.3,0,0,1,1.158-1.339,4.372,4.372,0,0,1,1.617-.77Z" fill="red"/><path d="M6599.021,1072.586a3.33,3.33,0,0,1-1.124-.193,3.577,3.577,0,0,1-1.268-.812,4.863,4.863,0,0,1-1.006-1.467q-.384-.824-.773-1.638-.33-.688-.657-1.388l-.535.25-.68-1.458.536-.249-1.084-2.325,1.886-.879,1.084,2.324,1.467-.684.68,1.458-1.467.684q.289.619.586,1.238.357.747.707,1.5a3.676,3.676,0,0,0,.77,1.166,1.476,1.476,0,0,0,.755.386,1.774,1.774,0,0,0,.831-.083,9.2,9.2,0,0,0,.982-.394l.254-.119.837,1.794-1.034.482a4.271,4.271,0,0,1-1.45.4C6599.219,1072.582,6599.119,1072.586,6599.021,1072.586Zm-4.555-6.245.118.255q.384.825.773,1.638t.776,1.643a4.314,4.314,0,0,0,.886,1.3,3,3,0,0,0,1.068.687,2.8,2.8,0,0,0,1.184.15,3.707,3.707,0,0,0,1.259-.345l.525-.245-.363-.778c-.269.117-.532.219-.785.3a2.336,2.336,0,0,1-1.091.1,2.018,2.018,0,0,1-1.048-.523,4.152,4.152,0,0,1-.905-1.348q-.348-.749-.7-1.492t-.707-1.5l-.12-.255,1.469-.684-.2-.439-1.468.685-1.084-2.325-.867.405,1.084,2.324-.536.249.205.439Z" fill="red"/><path d="M6609.892,1074.925l-5.179-11.107,1.933-.9,2.273,4.94c0-.031,0-.062,0-.093a4.224,4.224,0,0,1,.348-1.489,4.359,4.359,0,0,1,.877-1.285,4.819,4.819,0,0,1,1.423-.981,4.728,4.728,0,0,1,1.519-.421,3.791,3.791,0,0,1,1.566.164,3.983,3.983,0,0,1,1.428.835,4.758,4.758,0,0,1,1.114,1.558l2.074,4.407-1.948.908-1.916-4.108a3.116,3.116,0,0,0-.619-.89,2.645,2.645,0,0,0-.867-.581,2.7,2.7,0,0,0-1.072-.19,3.465,3.465,0,0,0-2.415,1.21,3.228,3.228,0,0,0-.672,2.266,2.72,2.72,0,0,0,.209.887l1.835,3.979Zm-4.432-10.835,4.7,10.088.9-.419-1.6-3.469a2.879,2.879,0,0,1-.205-.673l-.122.056-2.764-6.008Zm7.448,1.037a3.147,3.147,0,0,1,2.279.936,3.705,3.705,0,0,1,.731,1.05l1.678,3.6.927-.432-1.835-3.9a4.189,4.189,0,0,0-.978-1.377,3.423,3.423,0,0,0-1.226-.72,3.25,3.25,0,0,0-1.337-.139,4.152,4.152,0,0,0-1.338.371,4.227,4.227,0,0,0-1.258.864,3.8,3.8,0,0,0-.765,1.118,3.62,3.62,0,0,0-.241.781,4.183,4.183,0,0,1,.442-.721,4.027,4.027,0,0,1,2.853-1.432Z" fill="red"/><path d="M6638.558,1073.178l-3.744-8.072,1.916-.893,3.76,8.064Zm-3-7.8,3.27,7.051.912-.425-3.285-7.045Zm-1-.893-.416-.893,1.916-.893.417.892Z" fill="red"/><path d="M6650.48,1073.57a4.287,4.287,0,0,1-.7-.054,3.875,3.875,0,0,1-1.206-.39,4.259,4.259,0,0,1-.8-.546l-.221-.2,1.46-1.473.2.178a2.656,2.656,0,0,0,.449.311,1.9,1.9,0,0,0,.659.21,3.238,3.238,0,0,0,.963-.024,5.047,5.047,0,0,0,1.3-.434,9.3,9.3,0,0,0,.865-.467,3.881,3.881,0,0,0,.753-.583,1.8,1.8,0,0,0,.422-.634.755.755,0,0,0-.046-.6.512.512,0,0,0-.494-.359,2.425,2.425,0,0,0-.98.247l-1.636.763a10.264,10.264,0,0,1-1.333.507,5.219,5.219,0,0,1-1.389.233,2.838,2.838,0,0,1-1.278-.263,2.186,2.186,0,0,1-1.131-2.4,3.14,3.14,0,0,1,.625-1.243,5.646,5.646,0,0,1,1.137-1.05,9.333,9.333,0,0,1,1.443-.837,6.619,6.619,0,0,1,1.291-.445,5.379,5.379,0,0,1,1.337-.143,4.367,4.367,0,0,1,1.285.217,3.31,3.31,0,0,1,1.141.657l.222.2-1.414,1.463-.2-.188a1.747,1.747,0,0,0-1.245-.447,3.888,3.888,0,0,0-1.7.414,9.2,9.2,0,0,0-.918.491,3.88,3.88,0,0,0-.689.528,1.662,1.662,0,0,0-.367.512.415.415,0,0,0,0,.363.4.4,0,0,0,.238.234,1.2,1.2,0,0,0,.5.044,3.216,3.216,0,0,0,.684-.148c.255-.084.509-.181.754-.29s.5-.226.739-.344.46-.223.645-.31a9.164,9.164,0,0,1,1.239-.472,4.329,4.329,0,0,1,1.273-.2,2.2,2.2,0,0,1,2.08,1.386,2.559,2.559,0,0,1,.2,1.688,3.445,3.445,0,0,1-.715,1.378,5.471,5.471,0,0,1-1.207,1.053,10.874,10.874,0,0,1-1.31.735,7.446,7.446,0,0,1-2.018.655A6.266,6.266,0,0,1,6650.48,1073.57Zm-2.1-1.224a4.671,4.671,0,0,0,.463.286,3.3,3.3,0,0,0,1.029.329,4.647,4.647,0,0,0,1.423-.017,6.893,6.893,0,0,0,1.862-.607,10.42,10.42,0,0,0,1.242-.7,4.881,4.881,0,0,0,1.083-.944,2.879,2.879,0,0,0,.6-1.154,2,2,0,0,0-.163-1.316,1.776,1.776,0,0,0-.668-.81,1.751,1.751,0,0,0-.9-.246,3.678,3.678,0,0,0-1.107.171,8.5,8.5,0,0,0-1.163.443c-.183.085-.394.187-.635.305s-.5.239-.759.354-.534.22-.808.31a3.787,3.787,0,0,1-.806.173,1.764,1.764,0,0,1-.73-.072.957.957,0,0,1-.565-.528.982.982,0,0,1-.011-.822,2.23,2.23,0,0,1,.489-.689,4.3,4.3,0,0,1,.791-.609,9.674,9.674,0,0,1,.975-.522,4.605,4.605,0,0,1,1.937-.467h0a2.375,2.375,0,0,1,1.413.423L6654,1065a2.674,2.674,0,0,0-.715-.363,3.814,3.814,0,0,0-1.119-.188,4.879,4.879,0,0,0-1.2.127,6.054,6.054,0,0,0-1.18.408,8.745,8.745,0,0,0-1.356.786,5.074,5.074,0,0,0-1.023.943,2.59,2.59,0,0,0-.517,1.021,1.5,1.5,0,0,0,.119,1.009,1.529,1.529,0,0,0,.705.748,2.3,2.3,0,0,0,1.027.208,4.614,4.614,0,0,0,1.236-.208,9.624,9.624,0,0,0,1.26-.479l1.636-.763a2.805,2.805,0,0,1,1.223-.3,1.07,1.07,0,0,1,1,.684,1.31,1.31,0,0,1,.064,1.032,2.346,2.346,0,0,1-.55.836,4.523,4.523,0,0,1-.862.669,9.885,9.885,0,0,1-.918.495,5.576,5.576,0,0,1-1.456.48,3.772,3.772,0,0,1-1.134.024,2.479,2.479,0,0,1-.854-.278,3.84,3.84,0,0,1-.334-.212Z" fill="red"/><path d="M6677.887,1073.872a2.986,2.986,0,0,1-.961-.155,2.9,2.9,0,0,1-.95-.535,2.542,2.542,0,0,1-.671-.879,2.338,2.338,0,0,1-.208-1.474,3.414,3.414,0,0,1,.586-1.309,6.433,6.433,0,0,1,1.065-1.139c.408-.347.834-.685,1.264-1.005s.844-.623,1.242-.914a7.886,7.886,0,0,0,.814-.674l-.19-.408-5.613,2.617-.794-1.7,7.376-3.44,3.754,8.049-1.8.84-1.247-2.822c0,.136-.007.272-.015.407a7.211,7.211,0,0,1-.311,1.744,4.776,4.776,0,0,1-.763,1.483,3.459,3.459,0,0,1-1.292,1.028,3,3,0,0,1-1.141.285Zm2.262-9.239.593,1.271-.133.139a7.928,7.928,0,0,1-1.023.873q-.6.437-1.239.912c-.42.312-.836.642-1.235.981a5.87,5.87,0,0,0-.972,1.039,2.848,2.848,0,0,0-.492,1.093,1.764,1.764,0,0,0,.167,1.124,1.95,1.95,0,0,0,.524.687,2.34,2.34,0,0,0,.767.432,2.468,2.468,0,0,0,.9.123,2.442,2.442,0,0,0,.927-.233,2.9,2.9,0,0,0,1.085-.861,4.206,4.206,0,0,0,.671-1.309,6.186,6.186,0,0,0,.233-1.052c-.052.152-.11.3-.172.442a4.654,4.654,0,0,1-.74,1.187,3.269,3.269,0,0,1-1.1.826,1.777,1.777,0,0,1-1.322.116,1.475,1.475,0,0,1-.935-.807h0a1.31,1.31,0,0,1-.065-1,2.662,2.662,0,0,1,.518-.878,6.346,6.346,0,0,1,.847-.8q.481-.384.989-.753t.973-.722a8.659,8.659,0,0,0,.785-.664l.284-.274.3.653.082-.039,1.707,3.86.769-.359-3.277-7.029-6.357,2.964.318.683Zm-2.979,6.745a.925.925,0,0,0,.594.509,1.224,1.224,0,0,0,.915-.09,2.7,2.7,0,0,0,.908-.684,4.072,4.072,0,0,0,.649-1.044,6.046,6.046,0,0,0,.4-1.3,8.481,8.481,0,0,0,.143-1.282c-.156.134-.327.272-.512.413q-.478.363-.982.729t-.969.738a5.676,5.676,0,0,0-.771.731,2.084,2.084,0,0,0-.411.69.76.76,0,0,0,.041.587Z" fill="red"/><path d="M6705.854,1073.391a4.66,4.66,0,0,1-1.184-.152,4.328,4.328,0,0,1-1.623-.835,4.577,4.577,0,0,1-1.244-1.66,4.627,4.627,0,0,1-.475-2.067,4.292,4.292,0,0,1,.434-1.824,4.986,4.986,0,0,1,1.1-1.462,5.993,5.993,0,0,1,1.524-1.023,5.9,5.9,0,0,1,1.447-.462,4.863,4.863,0,0,1,1.472-.042,4.457,4.457,0,0,1,1.411.427,4.235,4.235,0,0,1,1.259.966l.189.208-1.416,1.288-.189-.2a2.611,2.611,0,0,0-1.522-.808,3.283,3.283,0,0,0-1.887.336,3.781,3.781,0,0,0-.977.655,2.957,2.957,0,0,0-.669.9,2.633,2.633,0,0,0-.25,1.087,2.758,2.758,0,0,0,.282,1.216,2.626,2.626,0,0,0,.74.98,2.553,2.553,0,0,0,.971.483,2.94,2.94,0,0,0,1.094.051,3.771,3.771,0,0,0,1.092-.318,3.488,3.488,0,0,0,1.482-1.221,2.482,2.482,0,0,0,.4-1.664l-.027-.271,1.942-.253.031.285a4.076,4.076,0,0,1-.125,1.578,4.768,4.768,0,0,1-.635,1.354,5.153,5.153,0,0,1-1.012,1.1,6.079,6.079,0,0,1-1.276.8,5.852,5.852,0,0,1-1.75.5A4.852,4.852,0,0,1,6705.854,1073.391Zm.862-9a4.41,4.41,0,0,0-.78.07,5.372,5.372,0,0,0-1.308.418,5.459,5.459,0,0,0-1.382.929,4.431,4.431,0,0,0-.98,1.3,3.734,3.734,0,0,0-.376,1.587,4.087,4.087,0,0,0,.423,1.816,4.015,4.015,0,0,0,1.087,1.46,3.78,3.78,0,0,0,1.413.729,4.165,4.165,0,0,0,1.582.1,5.275,5.275,0,0,0,1.583-.455,5.543,5.543,0,0,0,1.158-.726,4.62,4.62,0,0,0,.9-.982,4.231,4.231,0,0,0,.56-1.195,3.4,3.4,0,0,0,.126-1.073l-.831.109a3.043,3.043,0,0,1-.5,1.754,4.043,4.043,0,0,1-1.716,1.423,4.362,4.362,0,0,1-1.253.365,3.49,3.49,0,0,1-1.3-.062,3.093,3.093,0,0,1-1.184-.587,3.183,3.183,0,0,1-.9-1.184,3.307,3.307,0,0,1-.334-1.465,3.166,3.166,0,0,1,.3-1.318,3.523,3.523,0,0,1,.795-1.071,4.367,4.367,0,0,1,1.122-.752,3.82,3.82,0,0,1,2.209-.382,3.147,3.147,0,0,1,1.644.784l.6-.544a3.537,3.537,0,0,0-.9-.637,3.9,3.9,0,0,0-1.233-.374A4.126,4.126,0,0,0,6706.716,1064.389Z" fill="red"/><path d="M6721.05,1074.925l-5.179-11.107,1.933-.9,2.273,4.94c0-.031,0-.062,0-.093a4.213,4.213,0,0,1,.348-1.489,4.349,4.349,0,0,1,.877-1.285,4.819,4.819,0,0,1,1.423-.981,4.724,4.724,0,0,1,1.519-.421,3.794,3.794,0,0,1,1.566.164,3.991,3.991,0,0,1,1.428.835,4.734,4.734,0,0,1,1.113,1.558l2.075,4.407-1.948.908-1.916-4.108a3.1,3.1,0,0,0-.619-.89,2.648,2.648,0,0,0-.867-.581,2.7,2.7,0,0,0-1.072-.19,3.465,3.465,0,0,0-2.415,1.21,3.228,3.228,0,0,0-.672,2.266,2.732,2.732,0,0,0,.209.887l1.835,3.979Zm-4.432-10.835,4.7,10.088.9-.419-1.6-3.469a2.789,2.789,0,0,1-.205-.673l-.122.056-2.764-6.008Zm7.448,1.037a3.15,3.15,0,0,1,2.279.936,3.705,3.705,0,0,1,.731,1.05l1.678,3.6.927-.432-1.835-3.9a4.189,4.189,0,0,0-.978-1.377,3.427,3.427,0,0,0-1.226-.72,3.251,3.251,0,0,0-1.337-.139,4.158,4.158,0,0,0-1.338.371,4.224,4.224,0,0,0-1.258.864,3.806,3.806,0,0,0-.765,1.118,3.619,3.619,0,0,0-.241.781,4.123,4.123,0,0,1,.442-.721,3.643,3.643,0,0,1,1.393-1.066,3.606,3.606,0,0,1,1.46-.366Z" fill="red"/><path d="M6740.143,1073.872a2.987,2.987,0,0,1-.961-.155,2.9,2.9,0,0,1-.95-.535,2.548,2.548,0,0,1-.671-.879,2.341,2.341,0,0,1-.208-1.474,3.414,3.414,0,0,1,.586-1.309,6.433,6.433,0,0,1,1.065-1.139c.408-.347.834-.685,1.265-1.005s.843-.623,1.242-.914a7.867,7.867,0,0,0,.813-.674l-.19-.408-5.612,2.617-.795-1.7,7.377-3.44,3.753,8.049-1.8.84-1.247-2.822c0,.136-.007.272-.014.407a7.211,7.211,0,0,1-.312,1.744,4.754,4.754,0,0,1-.763,1.483,3.467,3.467,0,0,1-1.292,1.028,3.005,3.005,0,0,1-1.141.285Zm2.263-9.239.592,1.271-.133.139a7.855,7.855,0,0,1-1.022.873q-.6.437-1.24.912c-.42.312-.836.642-1.235.981a5.856,5.856,0,0,0-.972,1.039,2.848,2.848,0,0,0-.492,1.093,1.774,1.774,0,0,0,.167,1.124,1.957,1.957,0,0,0,.524.687,2.333,2.333,0,0,0,.767.432,2.477,2.477,0,0,0,.9.123,2.433,2.433,0,0,0,.927-.233,2.9,2.9,0,0,0,1.085-.861,4.241,4.241,0,0,0,.672-1.309,6.43,6.43,0,0,0,.233-1.052q-.08.228-.173.442a4.679,4.679,0,0,1-.739,1.187,3.268,3.268,0,0,1-1.1.826,1.777,1.777,0,0,1-1.322.116,1.478,1.478,0,0,1-.935-.807h0a1.324,1.324,0,0,1-.065-1,2.664,2.664,0,0,1,.518-.878,6.293,6.293,0,0,1,.848-.8q.482-.384.989-.753t.972-.722a8.739,8.739,0,0,0,.786-.664l.283-.274.3.653.081-.039,1.707,3.86.769-.359-3.277-7.029-6.357,2.964.319.683Zm-2.98,6.745a.925.925,0,0,0,.594.509,1.224,1.224,0,0,0,.915-.09,2.7,2.7,0,0,0,.908-.684,4.089,4.089,0,0,0,.65-1.044,6.157,6.157,0,0,0,.394-1.3,8.482,8.482,0,0,0,.143-1.282c-.155.134-.327.272-.512.413q-.477.363-.982.729t-.968.738a5.716,5.716,0,0,0-.772.731,2.109,2.109,0,0,0-.411.69.76.76,0,0,0,.041.587Z" fill="red"/><path d="M6755.7,1074.925l-3.754-8.049,1.919-.9.853,1.88.006-.1a4.284,4.284,0,0,1,1.228-2.772,4.971,4.971,0,0,1,2.94-1.4,3.84,3.84,0,0,1,1.569.162,4,4,0,0,1,1.43.835,4.722,4.722,0,0,1,1.114,1.558l2.075,4.407-1.948.908-1.916-4.108a3.139,3.139,0,0,0-.627-.9,2.48,2.48,0,0,0-1.921-.739,3.291,3.291,0,0,0-1.236.33,3.045,3.045,0,0,0-1.156.885,3.44,3.44,0,0,0-.583,1.131,3.292,3.292,0,0,0-.126,1.13,2.546,2.546,0,0,0,.2.877l1.835,3.979Zm-3.006-7.777,3.277,7.03.884-.412-1.6-3.469a2.676,2.676,0,0,1-.2-.675l-.127.059-1.339-2.95Zm6.1-2.006a3.048,3.048,0,0,1,1.139.21,3.108,3.108,0,0,1,1.051.7,3.758,3.758,0,0,1,.739,1.065l1.678,3.6.927-.432-1.835-3.9a4.19,4.19,0,0,0-.979-1.377,3.438,3.438,0,0,0-1.227-.719,3.27,3.27,0,0,0-1.34-.139,4.416,4.416,0,0,0-2.594,1.235,3.794,3.794,0,0,0-.76,1.117,3.754,3.754,0,0,0-.269.92,4.166,4.166,0,0,1,.5-.838,3.583,3.583,0,0,1,1.365-1.055,3.867,3.867,0,0,1,1.449-.382Q6758.722,1065.142,6758.8,1065.142Z" fill="red"/><path d="M6775.788,1078.307l-.848-1.587,7.126-4.275-.037-.08-6.722,3.152-1.362-2.92a3.938,3.938,0,0,1-2.513-2.156,4.051,4.051,0,0,1-.384-1.681,4.248,4.248,0,0,1,.325-1.676,4.793,4.793,0,0,1,.981-1.477,5.223,5.223,0,0,1,1.57-1.106,5.323,5.323,0,0,1,1.831-.5,4.689,4.689,0,0,1,1.346.083,1.732,1.732,0,0,1,.127-.513,1.849,1.849,0,0,1,1.011-.878l.255-.119.673,1.443-.278.109a.99.99,0,0,0-.527.354c-.017.032-.032.059-.044.084a3.814,3.814,0,0,1,.93.669,3.988,3.988,0,0,1,.829,1.176,4.03,4.03,0,0,1,.388,1.689,4.174,4.174,0,0,1-.333,1.662,4.883,4.883,0,0,1-.976,1.464,5.187,5.187,0,0,1-1.579,1.11,5.131,5.131,0,0,1-1.569.456,4.807,4.807,0,0,1-1.01.014l.385.826,6.645-3.117,1.438,3.083Zm-.1-1.381.315.589,6.741-4.135-.25-.536Zm-.342-2.656.233.5,6.411-3.007-.233-.5Zm-1.039-2.159.274.06a4.07,4.07,0,0,0,1.361.061,4.841,4.841,0,0,0,2.807-1.4,4.327,4.327,0,0,0,.865-1.294,3.6,3.6,0,0,0,.288-1.439,3.541,3.541,0,0,0-1.046-2.466,3.274,3.274,0,0,0-1-.667l-.161-.068,0-.061-.376-.118a4.036,4.036,0,0,0-1.52-.161,4.768,4.768,0,0,0-1.637.448,4.66,4.66,0,0,0-1.4.987,4.221,4.221,0,0,0-.867,1.3,3.677,3.677,0,0,0-.282,1.455,3.5,3.5,0,0,0,.331,1.449,3.383,3.383,0,0,0,2.272,1.883Zm3.92-8.778a1.078,1.078,0,0,0-.478.453,1,1,0,0,0-.071.61l.034.16a1.831,1.831,0,0,1,.157-.345,1.244,1.244,0,0,1,.542-.483Zm-3.11,8.037a3.626,3.626,0,0,1-.754-.077,2.926,2.926,0,0,1-1.082-.467,2.239,2.239,0,0,1-.745-.891h0a2.209,2.209,0,0,1-.2-1.127,3.054,3.054,0,0,1,.333-1.133,3.681,3.681,0,0,1,.777-1.01,4.405,4.405,0,0,1,1.146-.765,4.183,4.183,0,0,1,1.293-.372,3.632,3.632,0,0,1,1.251.066,2.961,2.961,0,0,1,1.068.482,2.263,2.263,0,0,1,.726.877,2.286,2.286,0,0,1,.211,1.134,2.874,2.874,0,0,1-.321,1.124,3.765,3.765,0,0,1-.756.99,4.221,4.221,0,0,1-1.116.751,4.387,4.387,0,0,1-1.322.386A4.082,4.082,0,0,1,6775.117,1071.37Zm-2.071-1.672a1.642,1.642,0,0,0,.56.668,2.351,2.351,0,0,0,.875.377,3.28,3.28,0,0,0,1.081.037,3.839,3.839,0,0,0,1.152-.338,3.634,3.634,0,0,0,.967-.65,3.176,3.176,0,0,0,.643-.84,2.306,2.306,0,0,0,.26-.9,1.7,1.7,0,0,0-.16-.859,1.666,1.666,0,0,0-.548-.659,2.4,2.4,0,0,0-.866-.39,3.081,3.081,0,0,0-1.057-.054,3.635,3.635,0,0,0-1.119.323,3.848,3.848,0,0,0-1,.666,3.134,3.134,0,0,0-.661.856,2.481,2.481,0,0,0-.272.923,1.63,1.63,0,0,0,.145.843Z" fill="red"/><path d="M6792.471,1073.451a4.265,4.265,0,0,1-1.4-.222,3.964,3.964,0,0,1-1.5-.929,5.093,5.093,0,0,1-1.05-1.5,4.719,4.719,0,0,1-.486-2.078,4.475,4.475,0,0,1,.4-1.817,4.735,4.735,0,0,1,1.059-1.454,5.664,5.664,0,0,1,1.473-1,6.1,6.1,0,0,1,1.8-.518,4.532,4.532,0,0,1,1.875.149,4.357,4.357,0,0,1,1.688.972,5.148,5.148,0,0,1,1.264,1.922l.1.246-6.946,3.258a2.249,2.249,0,0,0,.451.51,2.129,2.129,0,0,0,.84.423,2.834,2.834,0,0,0,1.06.056,4.132,4.132,0,0,0,1.229-.374,3.462,3.462,0,0,0,.981-.644,2.852,2.852,0,0,0,.532-.695,2.07,2.07,0,0,0,.218-.642,3.731,3.731,0,0,0,.047-.548v-.253l2.134-.239,0,.31a5.666,5.666,0,0,1-.077.928,3.736,3.736,0,0,1-.41,1.17,4.983,4.983,0,0,1-.944,1.212,6.158,6.158,0,0,1-1.691,1.1,6.593,6.593,0,0,1-2.175.633C6792.787,1073.444,6792.627,1073.451,6792.471,1073.451Zm.892-8.994a4.176,4.176,0,0,0-.521.033,5.522,5.522,0,0,0-1.632.469,5.147,5.147,0,0,0-1.327.9,4.17,4.17,0,0,0-.933,1.282,3.914,3.914,0,0,0-.353,1.59,4.183,4.183,0,0,0,.434,1.83,4.546,4.546,0,0,0,.933,1.336,3.413,3.413,0,0,0,1.294.8,3.95,3.95,0,0,0,1.642.172,6.1,6.1,0,0,0,1.987-.582,5.619,5.619,0,0,0,1.537-1,4.4,4.4,0,0,0,.839-1.072,3.154,3.154,0,0,0,.351-.991c.029-.19.05-.365.061-.523l-1.013.113c-.009.114-.023.24-.043.379a2.649,2.649,0,0,1-.275.817,3.4,3.4,0,0,1-.635.837,4.029,4.029,0,0,1-1.14.754,4.715,4.715,0,0,1-1.4.423,3.4,3.4,0,0,1-1.269-.069,2.69,2.69,0,0,1-1.059-.535,2.9,2.9,0,0,1-.739-.942l-.129-.258,7-3.282a4.4,4.4,0,0,0-1.016-1.47,3.8,3.8,0,0,0-1.471-.85A3.931,3.931,0,0,0,6793.363,1064.457Zm-3.624,5.34-.095-.309a2.949,2.949,0,0,1-.118-1.251,3.06,3.06,0,0,1,.359-1.1,3.39,3.39,0,0,1,.715-.883,4,4,0,0,1,.959-.627h0a4.209,4.209,0,0,1,1.1-.334,3.633,3.633,0,0,1,1.177,0,3.033,3.033,0,0,1,1.1.408,2.529,2.529,0,0,1,.876.93l.151.265Zm2.058-3.659a3.436,3.436,0,0,0-.825.539,2.8,2.8,0,0,0-.6.735,2.5,2.5,0,0,0-.293.9,2.28,2.28,0,0,0,.022.7l5.054-2.357a1.884,1.884,0,0,0-.511-.471,2.493,2.493,0,0,0-.9-.333,3.083,3.083,0,0,0-1,0,3.624,3.624,0,0,0-.954.289Z" fill="red"/></g></svg>