<svg xmlns="http://www.w3.org/2000/svg" width="5.81" height="46.149" viewBox="0 0 5.81 46.149"><g transform="translate(-4022.2 -972.892)"><path d="M4026.084,1013.247a2.525,2.525,0,0,1,.847.455,2.831,2.831,0,0,1,.6.682,3.038,3.038,0,0,1,.359.838,3.584,3.584,0,0,1,.12.918,3.307,3.307,0,0,1-.178,1.07,2.706,2.706,0,0,1-.533.93,2.636,2.636,0,0,1-.9.653,3.348,3.348,0,0,1-2.558-.012,2.717,2.717,0,0,1-.918-.682,2.817,2.817,0,0,1-.542-.955,3.4,3.4,0,0,1-.177-1.078,3.36,3.36,0,0,1,.124-.914,2.866,2.866,0,0,1,.372-.814,2.709,2.709,0,0,1,.62-.657,2.671,2.671,0,0,1,.868-.434l.305,1.009a2.483,2.483,0,0,0-.492.239,1.717,1.717,0,0,0-.413.372,1.754,1.754,0,0,0-.281.525,2.176,2.176,0,0,0-.1.7,2,2,0,0,0,.132.723,1.749,1.749,0,0,0,.381.6,1.819,1.819,0,0,0,.611.409,2.112,2.112,0,0,0,.826.153,1.959,1.959,0,0,0,.827-.161,1.638,1.638,0,0,0,.57-.426,1.757,1.757,0,0,0,.331-.595,2.165,2.165,0,0,0,.107-.678,2.142,2.142,0,0,0-.1-.682,2.1,2.1,0,0,0-.268-.545,1.638,1.638,0,0,0-.385-.393,1.894,1.894,0,0,0-.442-.239Z" fill="red"/><path d="M4025.117,1012.314a2.842,2.842,0,0,1-1.132-.227,2.9,2.9,0,0,1-.926-.628,2.984,2.984,0,0,1-.628-.951,3.073,3.073,0,0,1-.231-1.2,3.159,3.159,0,0,1,.231-1.219,2.956,2.956,0,0,1,.628-.959,2.9,2.9,0,0,1,.926-.628,2.826,2.826,0,0,1,1.132-.227,2.781,2.781,0,0,1,1.12.227,2.881,2.881,0,0,1,1.546,1.587,3.208,3.208,0,0,1,.227,1.219,3.1,3.1,0,0,1-.227,1.194,2.933,2.933,0,0,1-1.546,1.583A2.75,2.75,0,0,1,4025.117,1012.314Zm0-.967a1.627,1.627,0,0,0,.711-.161,1.982,1.982,0,0,0,.6-.438,2.14,2.14,0,0,0,.413-2.244,2.032,2.032,0,0,0-.413-.645,1.97,1.97,0,0,0-.6-.429,1.667,1.667,0,0,0-.711-.157,1.687,1.687,0,0,0-.719.157,1.981,1.981,0,0,0-.6.429,2.089,2.089,0,0,0-.566,1.439,2.109,2.109,0,0,0,.566,1.45,1.993,1.993,0,0,0,.6.438A1.647,1.647,0,0,0,4025.117,1011.347Z" fill="red"/><path d="M4022.349,1003.858l5.587.042v1.115l-5.687-.008.008-2.323,5.555-2.818-5.563-.008.008-1.157,5.679.041v2.3Z" fill="red"/><path d="M4022.266,992.112h.958v2.207h4.72V995.4h-4.72v2.282h-.958Z" fill="red"/><path d="M4026.175,987.414v2.769l1.769.661v1.108l-5.7-2.05v-2.223l5.7-2.042v1.117Zm-1.041,2.414v-2.067l-2.761,1.009v.041Z" fill="red"/><path d="M4026.084,979.174a2.542,2.542,0,0,1,.847.454,2.833,2.833,0,0,1,.6.682,3.057,3.057,0,0,1,.359.839,3.579,3.579,0,0,1,.12.918,3.307,3.307,0,0,1-.178,1.07,2.706,2.706,0,0,1-.533.93,2.635,2.635,0,0,1-.9.653,3.354,3.354,0,0,1-2.558-.013,2.69,2.69,0,0,1-.918-.682,2.813,2.813,0,0,1-.542-.954,3.4,3.4,0,0,1-.177-1.078,3.355,3.355,0,0,1,.124-.914,2.853,2.853,0,0,1,.372-.814,2.71,2.71,0,0,1,.62-.657,2.672,2.672,0,0,1,.868-.434l.305,1.008a2.543,2.543,0,0,0-.492.24,1.677,1.677,0,0,0-.413.372,1.743,1.743,0,0,0-.281.525,2.175,2.175,0,0,0-.1.7,1.987,1.987,0,0,0,.132.723,1.739,1.739,0,0,0,.381.6,1.806,1.806,0,0,0,.611.41,2.112,2.112,0,0,0,.826.152,1.96,1.96,0,0,0,.827-.16,1.638,1.638,0,0,0,.57-.426,1.757,1.757,0,0,0,.331-.6,2.173,2.173,0,0,0,.107-.678,2.142,2.142,0,0,0-.1-.682,2.1,2.1,0,0,0-.268-.545,1.619,1.619,0,0,0-.385-.393,1.9,1.9,0,0,0-.442-.24Z" fill="red"/><path d="M4022.266,972.892h.958V975.1h4.72v1.082h-4.72v2.282h-.958Z" fill="red"/></g></svg>