<svg xmlns="http://www.w3.org/2000/svg" width="25" height="24.958" viewBox="0 0 25 24.958"><g transform="translate(-4322.605 -1266.122)"><path d="M4344.3,1266.122h-18.373c-2.2,0-3.32,1.148-3.32,3.347v18.336a2.926,2.926,0,0,0,3.2,3.275H4344.3a2.97,2.97,0,0,0,3.307-3.31v-18.384A2.953,2.953,0,0,0,4344.3,1266.122Zm-2.021,2.812c2.481,0,2.481,0,2.481,2.481,0,2.417,0,2.417-2.433,2.417-2.457,0-2.457,0-2.457-2.451S4339.868,1268.934,4342.277,1268.934Zm-7.167,4.815a4.838,4.838,0,1,1-4.855,4.793A4.895,4.895,0,0,1,4335.11,1273.749Zm9.648,13c-.025,1.169-.325,1.495-1.484,1.495h-16.336c-1.145,0-1.47-.326-1.47-1.495,0-2.992,0-6.057-.042-9.1,0-.86.23-1.051,1.04-1.016,1.147.073,1.156.03,1.03,1.14a7.686,7.686,0,0,0,6.023,8.35,7.658,7.658,0,0,0,9.1-8.941c-.075-.43.019-.519.41-.519,1.726-.135,1.726-.164,1.726,1.623Z" fill="red" fill-rule="evenodd"/></g></svg>