<svg xmlns="http://www.w3.org/2000/svg" width="5.689" height="30.78" viewBox="0 0 5.689 30.78"><g transform="translate(-4355.493 -980.689)"><path d="M4361.083,981.844l-5.582-.041v-1.114l5.681.008-.008,2.32-5.549,2.815,5.557.009-.008,1.156-5.673-.042v-2.3Z" fill="red"/><path d="M4357.582,990.991V989.9l3.6-1.965v1.214l-3.492,1.89,3.492,1.9v1.238l-5.681-3.063v-1.247Z" fill="red"/><path d="M4356.443,995.943h1.692v-1.668h.257v1.668h1.634v.248h-1.634v1.668h-.257v-1.668h-1.692Z" fill="red"/><path d="M4361.182,998.915V1000h-4.6v4.17H4355.5v-5.252Z" fill="red"/><path d="M4357.261,1009.693v-2.767l-1.768-.66v-1.107l5.689,2.048v2.221l-5.689,2.041v-1.116Zm1.04-2.411v2.065l2.758-1.008v-.042Z" fill="red"/></g></svg>