<svg xmlns="http://www.w3.org/2000/svg" width="19.41" height="253.704" viewBox="0 0 19.41 253.704"><g transform="translate(-1588.414 -1509.144)"><rect width="253.704" height="19.41" transform="translate(1588.414 1762.848) rotate(-90)" fill="#fff"/><path d="M1591.918,1744.1l-.879-1.886,2.324-1.084-.685-1.468,1.459-.68.684,1.468q.619-.289,1.238-.586.747-.357,1.5-.707a3.672,3.672,0,0,0,1.167-.771,1.469,1.469,0,0,0,.386-.754,1.78,1.78,0,0,0-.083-.832,9.325,9.325,0,0,0-.4-.981l-.118-.255,1.794-.837.482,1.035a4.273,4.273,0,0,1,.4,1.45,3.366,3.366,0,0,1-.181,1.421,3.587,3.587,0,0,1-.812,1.268,4.859,4.859,0,0,1-1.467,1.006q-.823.384-1.638.773-.688.33-1.388.656l.25.536-1.458.68-.249-.536Zm-.132-1.614.4.867,2.325-1.084.249.535.439-.2-.25-.536.255-.119q.825-.383,1.638-.772t1.643-.776a4.309,4.309,0,0,0,1.3-.886,3.011,3.011,0,0,0,.687-1.068,2.8,2.8,0,0,0,.15-1.184,3.714,3.714,0,0,0-.345-1.259l-.245-.525-.778.363c.117.269.219.532.3.785a2.335,2.335,0,0,1,.1,1.091,2.014,2.014,0,0,1-.523,1.047,4.116,4.116,0,0,1-1.348.905q-.748.35-1.492.706t-1.5.707l-.255.119-.685-1.468-.438.2.685,1.468Z" fill="red"/><path d="M1592.43,1731.817l-.9-1.933,4.94-2.273-.093,0a4.217,4.217,0,0,1-1.489-.349,4.338,4.338,0,0,1-1.285-.876,4.815,4.815,0,0,1-.981-1.423,4.73,4.73,0,0,1-.421-1.519,3.806,3.806,0,0,1,.163-1.566,3.994,3.994,0,0,1,.836-1.428,4.741,4.741,0,0,1,1.558-1.114l4.407-2.074.908,1.948-4.108,1.915a3.151,3.151,0,0,0-.891.62,2.592,2.592,0,0,0-.77,1.939,3.464,3.464,0,0,0,1.21,2.415,3.227,3.227,0,0,0,2.266.672,2.76,2.76,0,0,0,.887-.209l3.979-1.836.893,1.916Zm-.153-1.658.425.911,10.087-4.7-.418-.9-3.469,1.6a2.855,2.855,0,0,1-.673.2l.056.121Zm6.615-12.152-3.9,1.835a4.186,4.186,0,0,0-1.377.978,3.426,3.426,0,0,0-.72,1.226,3.271,3.271,0,0,0-.14,1.337,4.428,4.428,0,0,0,1.236,2.6,3.767,3.767,0,0,0,1.118.764,3.574,3.574,0,0,0,.781.242,4.122,4.122,0,0,1-.721-.442,4.016,4.016,0,0,1-1.432-2.853,3.147,3.147,0,0,1,.935-2.347,3.684,3.684,0,0,1,1.05-.731l3.6-1.678Z" fill="red"/><path d="M1594.714,1712.209l-.9-1.936,1.973-.883c-.065,0-.13-.008-.2-.013a4.6,4.6,0,0,1-1.579-.413,4.288,4.288,0,0,1-1.358-1.009,5,5,0,0,1-.976-1.665l-.09-.243,2.042-.952.071.35a4.048,4.048,0,0,0,.74,1.726,3.73,3.73,0,0,0,1.161,1.009,3.079,3.079,0,0,0,1.255.372,2.15,2.15,0,0,0,1.028-.154l4-1.826.878,1.884Zm-.152-1.656.424.908,7.029-3.277-.405-.869-3.491,1.593a2.219,2.219,0,0,1-.609.179l.058.12Zm-2.264-4.218a4.269,4.269,0,0,0,.768,1.24,3.752,3.752,0,0,0,1.18.879,4.051,4.051,0,0,0,1.376.361c-.1-.041-.191-.088-.286-.138a4.3,4.3,0,0,1-1.339-1.158,4.373,4.373,0,0,1-.77-1.617Z" fill="red"/><path d="M1597.5,1696.812a4.714,4.714,0,0,1-1.742-.33,5.047,5.047,0,0,1-1.552-.981,5.121,5.121,0,0,1-1.61-3.452,5.061,5.061,0,0,1,.246-1.82,4.7,4.7,0,0,1,.89-1.573,4.473,4.473,0,0,1,3.3-1.54,4.826,4.826,0,0,1,1.777.33,5.052,5.052,0,0,1,1.552.982,5.108,5.108,0,0,1,1.609,3.452,5.019,5.019,0,0,1-.246,1.82,4.722,4.722,0,0,1-.889,1.573,4.34,4.34,0,0,1-1.487,1.121h0a4.352,4.352,0,0,1-1.814.418Zm-.432-9.133h-.031a3.9,3.9,0,0,0-2.877,1.342,4.148,4.148,0,0,0-.784,1.385,4.5,4.5,0,0,0-.218,1.618,4.557,4.557,0,0,0,1.428,3.062,4.462,4.462,0,0,0,1.379.873,4.129,4.129,0,0,0,1.565.29,3.77,3.77,0,0,0,1.582-.365h0a3.779,3.779,0,0,0,1.3-.976,4.152,4.152,0,0,0,.785-1.386,4.482,4.482,0,0,0,.217-1.618,4.553,4.553,0,0,0-1.427-3.062,4.483,4.483,0,0,0-1.379-.873A4.172,4.172,0,0,0,1597.066,1687.679Zm.657,7.892c-.038,0-.075,0-.113,0a3.261,3.261,0,0,1-1.255-.31,4.087,4.087,0,0,1-1.11-.772,4.059,4.059,0,0,1-1.2-2.568,3.864,3.864,0,0,1,.13-1.335,3.379,3.379,0,0,1,.575-1.141,2.646,2.646,0,0,1,2.222-1.036,3.493,3.493,0,0,1,1.248.288,3.894,3.894,0,0,1,1.123.75,3.782,3.782,0,0,1,.836,1.168,3.827,3.827,0,0,1,.364,1.406,4.136,4.136,0,0,1-.138,1.353,3.36,3.36,0,0,1-.577,1.162,2.639,2.639,0,0,1-2.108,1.038Zm-.861-6.605a2.078,2.078,0,0,0-1.664.82,2.826,2.826,0,0,0-.479.952,3.368,3.368,0,0,0,.2,2.327,3.4,3.4,0,0,0,.714,1.017,3.529,3.529,0,0,0,.957.666,2.688,2.688,0,0,0,1.039.258,2.106,2.106,0,0,0,.979-.192h0a2.081,2.081,0,0,0,.775-.625,2.81,2.81,0,0,0,.48-.969,3.559,3.559,0,0,0,.119-1.169,3.3,3.3,0,0,0-.313-1.2,3.225,3.225,0,0,0-.712-1,3.349,3.349,0,0,0-.96-.643,2.937,2.937,0,0,0-1.048-.242C1596.922,1688.966,1596.892,1688.966,1596.862,1688.966Z" fill="red"/><path d="M1595.306,1680.981l-.872-1.869,3.971-1.852a2.7,2.7,0,0,0,1.37-1.454,2.457,2.457,0,0,0,.163-.976,2.756,2.756,0,0,0-.881-1.888,2.556,2.556,0,0,0-.859-.511,2.512,2.512,0,0,0-.983-.134,2.755,2.755,0,0,0-1,.258l-3.982,1.876-.858-1.9,3.959-1.867a4.519,4.519,0,0,1,1.805-.433,4.68,4.68,0,0,1,1.759.291,4.746,4.746,0,0,1,1.52.927,4.63,4.63,0,0,1,1.1,1.495,4.708,4.708,0,0,1,.181,3.574,4.577,4.577,0,0,1-2.406,2.623Zm-.125-1.6.4.852,3.469-1.6a4.008,4.008,0,0,0,2.112-2.3,4.147,4.147,0,0,0-.161-3.149,4.062,4.062,0,0,0-.961-1.314,4.171,4.171,0,0,0-1.341-.818,4.1,4.1,0,0,0-1.549-.255,3.964,3.964,0,0,0-1.579.379l-3.457,1.63.394.871,3.466-1.633a3.285,3.285,0,0,1,1.209-.31,3.06,3.06,0,0,1,1.2.164,3.114,3.114,0,0,1,1.048.623,3.311,3.311,0,0,1,1.068,2.29,3.02,3.02,0,0,1-.2,1.2,3.264,3.264,0,0,1-1.656,1.759Z" fill="red"/><path d="M1597.331,1663.509a4.238,4.238,0,0,1-1.635-.325,4.792,4.792,0,0,1-1.477-.982,5.178,5.178,0,0,1-1.106-1.57,5.331,5.331,0,0,1-.5-1.83,4.717,4.717,0,0,1,.084-1.346,1.7,1.7,0,0,1-.513-.128,1.842,1.842,0,0,1-.878-1.01l-.119-.255,1.442-.673.11.278a.987.987,0,0,0,.354.527l.083.044a3.832,3.832,0,0,1,.67-.93,3.987,3.987,0,0,1,1.176-.829,4.029,4.029,0,0,1,1.689-.388,4.291,4.291,0,0,1,1.662.333,4.907,4.907,0,0,1,1.464.976,5.194,5.194,0,0,1,1.11,1.578,5.128,5.128,0,0,1,.456,1.57,4.745,4.745,0,0,1,.014,1.01l.826-.385-3.117-6.646,3.082-1.437,4.711,7.678-1.588.848-4.274-7.126-.08.037,3.152,6.722-2.92,1.362a3.947,3.947,0,0,1-2.156,2.513,4.045,4.045,0,0,1-1.681.384Zm-3.878-6.647-.118.376a4.038,4.038,0,0,0-.161,1.52,4.746,4.746,0,0,0,.449,1.637,4.613,4.613,0,0,0,.986,1.4,4.208,4.208,0,0,0,1.3.868,3.71,3.71,0,0,0,1.455.282,3.479,3.479,0,0,0,1.448-.331l.119.255-.119-.255a3.379,3.379,0,0,0,1.884-2.273l.084-.366a4.065,4.065,0,0,0,.061-1.361,4.588,4.588,0,0,0-.406-1.4,4.642,4.642,0,0,0-.99-1.409,4.323,4.323,0,0,0-1.3-.865,3.522,3.522,0,0,0-2.893.046,3.437,3.437,0,0,0-1.011.712,3.253,3.253,0,0,0-.667,1l-.068.161Zm6.422-4.062,3.007,6.411.5-.233-3.007-6.411Zm1.581-.737,4.082,6.806.589-.315-4.136-6.741Zm-9.511,4.267a1.078,1.078,0,0,0,.453.478,1,1,0,0,0,.61.071l.16-.035a1.834,1.834,0,0,1-.345-.156,1.251,1.251,0,0,1-.483-.542Zm5.673,5.9q-.1,0-.2-.009a3.031,3.031,0,0,1-1.133-.332,3.669,3.669,0,0,1-1.011-.778,4.412,4.412,0,0,1-.764-1.145,4.182,4.182,0,0,1-.372-1.293,3.629,3.629,0,0,1,.066-1.251,2.962,2.962,0,0,1,.482-1.068,2.25,2.25,0,0,1,.876-.726,2.3,2.3,0,0,1,1.135-.212,2.869,2.869,0,0,1,1.124.322,3.754,3.754,0,0,1,.989.756,4.2,4.2,0,0,1,.752,1.116,4.388,4.388,0,0,1,.386,1.322,3.8,3.8,0,0,1-.046,1.267,2.923,2.923,0,0,1-.466,1.082,2.235,2.235,0,0,1-.891.744h0A2.179,2.179,0,0,1,1597.618,1662.225Zm-1.084-6.257a1.692,1.692,0,0,0-.732.165,1.664,1.664,0,0,0-.659.547,2.412,2.412,0,0,0-.39.867,3.082,3.082,0,0,0-.054,1.057,3.633,3.633,0,0,0,.323,1.119,3.836,3.836,0,0,0,.666,1,3.108,3.108,0,0,0,.855.66,2.47,2.47,0,0,0,.924.273,1.629,1.629,0,0,0,.843-.145,1.65,1.65,0,0,0,.668-.56,2.354,2.354,0,0,0,.377-.875,3.276,3.276,0,0,0,.037-1.081,3.83,3.83,0,0,0-.338-1.152,3.639,3.639,0,0,0-.65-.967,3.193,3.193,0,0,0-.84-.644,2.3,2.3,0,0,0-.9-.259C1596.618,1655.97,1596.576,1655.968,1596.534,1655.968Z" fill="red"/><path d="M1592.43,1647.916l-.9-1.934,4.94-2.272-.093,0a4.239,4.239,0,0,1-1.489-.349,4.36,4.36,0,0,1-1.285-.877,4.8,4.8,0,0,1-.981-1.423,4.732,4.732,0,0,1-.421-1.518,3.809,3.809,0,0,1,.163-1.567,3.99,3.99,0,0,1,.836-1.427,4.725,4.725,0,0,1,1.558-1.114l4.407-2.075.908,1.948-4.108,1.916a3.128,3.128,0,0,0-.891.619,2.592,2.592,0,0,0-.77,1.94,3.464,3.464,0,0,0,1.21,2.414,3.222,3.222,0,0,0,1.129.568,3.262,3.262,0,0,0,1.137.1,2.734,2.734,0,0,0,.887-.209l3.979-1.835.893,1.915Zm-.153-1.659.425.911,10.087-4.7-.418-.9-3.469,1.6a2.81,2.81,0,0,1-.673.2l.056.122Zm6.615-12.152-3.9,1.835a4.188,4.188,0,0,0-1.377.978,3.425,3.425,0,0,0-.72,1.226,3.271,3.271,0,0,0-.14,1.337,4.421,4.421,0,0,0,1.236,2.6,3.791,3.791,0,0,0,1.118.765,3.626,3.626,0,0,0,.781.241,4.129,4.129,0,0,1-.721-.442,4.012,4.012,0,0,1-1.432-2.852,3.152,3.152,0,0,1,.935-2.348,3.687,3.687,0,0,1,1.05-.731l3.6-1.678Z" fill="red"/><path d="M1597.5,1627.261a4.714,4.714,0,0,1-1.742-.33,5.044,5.044,0,0,1-1.552-.981,5.121,5.121,0,0,1-1.61-3.452,5.061,5.061,0,0,1,.246-1.82,4.705,4.705,0,0,1,.89-1.573,4.466,4.466,0,0,1,3.3-1.539,4.744,4.744,0,0,1,1.777.329,5.054,5.054,0,0,1,1.552.982,5.042,5.042,0,0,1,1.363,5.272,4.725,4.725,0,0,1-.889,1.573,4.341,4.341,0,0,1-1.487,1.121h0a4.337,4.337,0,0,1-1.814.418Zm-.432-9.133h-.031a3.91,3.91,0,0,0-2.877,1.342,4.154,4.154,0,0,0-.784,1.386,4.5,4.5,0,0,0-.218,1.617,4.557,4.557,0,0,0,1.428,3.062,4.46,4.46,0,0,0,1.379.873,4.13,4.13,0,0,0,1.565.291,3.786,3.786,0,0,0,1.582-.366h0a3.78,3.78,0,0,0,1.3-.976,4.144,4.144,0,0,0,.785-1.386,4.477,4.477,0,0,0,.217-1.617,4.554,4.554,0,0,0-1.427-3.063,4.5,4.5,0,0,0-1.379-.873A4.172,4.172,0,0,0,1597.066,1618.128Zm.657,7.892-.113,0a3.263,3.263,0,0,1-1.255-.311,4.089,4.089,0,0,1-1.11-.772,4.06,4.06,0,0,1-1.2-2.568,3.867,3.867,0,0,1,.13-1.335,3.389,3.389,0,0,1,.575-1.141,2.646,2.646,0,0,1,2.222-1.036,3.493,3.493,0,0,1,1.248.288,3.9,3.9,0,0,1,1.123.75,3.949,3.949,0,0,1,1.2,2.574,4.132,4.132,0,0,1-.138,1.353,3.36,3.36,0,0,1-.577,1.162,2.639,2.639,0,0,1-2.108,1.038Zm-.861-6.6a2.083,2.083,0,0,0-.887.194,2.108,2.108,0,0,0-.777.626,2.827,2.827,0,0,0-.479.952,3.368,3.368,0,0,0,.2,2.327,3.389,3.389,0,0,0,.714,1.017,3.555,3.555,0,0,0,.957.667,2.706,2.706,0,0,0,1.039.258,2.106,2.106,0,0,0,.979-.193h0a2.081,2.081,0,0,0,.775-.625,2.809,2.809,0,0,0,.48-.969,3.559,3.559,0,0,0,.119-1.169,3.286,3.286,0,0,0-.313-1.2,3.219,3.219,0,0,0-.712-1,3.346,3.346,0,0,0-.96-.643,2.935,2.935,0,0,0-1.048-.242Z" fill="red"/><path d="M1595.306,1611.43l-.872-1.869,3.971-1.852a2.649,2.649,0,0,0,.836-.608,2.681,2.681,0,0,0,.534-.845,2.462,2.462,0,0,0,.163-.977,2.756,2.756,0,0,0-.881-1.888,2.556,2.556,0,0,0-.859-.511,2.512,2.512,0,0,0-.983-.134,2.755,2.755,0,0,0-1,.258l-3.982,1.877-.858-1.9,3.959-1.867a4.515,4.515,0,0,1,1.805-.432,4.639,4.639,0,0,1,1.759.291,4.723,4.723,0,0,1,1.52.926,4.63,4.63,0,0,1,1.1,1.495,4.711,4.711,0,0,1,.181,3.575,4.579,4.579,0,0,1-2.406,2.622Zm-.125-1.6.4.852,3.469-1.6a4.01,4.01,0,0,0,2.112-2.3,4.147,4.147,0,0,0-.161-3.149,4.054,4.054,0,0,0-.961-1.315,4.2,4.2,0,0,0-1.341-.818,4.113,4.113,0,0,0-1.549-.255,3.947,3.947,0,0,0-1.579.38l-3.457,1.629.394.871,3.466-1.633a3.283,3.283,0,0,1,1.209-.31,3.057,3.057,0,0,1,1.2.164,3.112,3.112,0,0,1,1.048.623,3.311,3.311,0,0,1,1.068,2.29,3.017,3.017,0,0,1-.2,1.2,3.263,3.263,0,0,1-1.656,1.759Z" fill="red"/><path d="M1591.918,1595.362l-.879-1.886,2.324-1.084-.685-1.468,1.459-.68.684,1.468q.619-.291,1.238-.586.747-.359,1.5-.708a3.653,3.653,0,0,0,1.167-.77,1.467,1.467,0,0,0,.386-.755,1.776,1.776,0,0,0-.083-.831,9.324,9.324,0,0,0-.4-.981l-.118-.255,1.794-.837.482,1.035a4.267,4.267,0,0,1,.4,1.449,3.362,3.362,0,0,1-.181,1.421,3.582,3.582,0,0,1-.812,1.269,4.855,4.855,0,0,1-1.467,1.005q-.823.386-1.638.774-.688.328-1.388.656l.25.536-1.458.679-.249-.535Zm-.132-1.614.4.866,2.325-1.084.249.536.439-.205-.25-.535.255-.119q.825-.384,1.638-.773t1.643-.775a4.293,4.293,0,0,0,1.3-.887,3,3,0,0,0,.687-1.067,2.8,2.8,0,0,0,.15-1.185,3.708,3.708,0,0,0-.345-1.258l-.245-.526-.778.363c.117.269.219.533.3.785a2.339,2.339,0,0,1,.1,1.092,2.017,2.017,0,0,1-.523,1.047,4.146,4.146,0,0,1-1.348.905q-.748.348-1.492.705t-1.5.708l-.255.119-.685-1.469-.438.205.685,1.468Z" fill="red"/><path d="M1590.657,1573.639l-.894-1.917,11.152-5.122.879,1.885Zm-.146-1.642.418.9,10.117-4.681-.4-.868Z" fill="red"/><path d="M1592.2,1562.167l-.893-1.916.892-.417.894,1.917Zm1.513-.669-.893-1.916,8.064-3.76.9,1.932Zm-.146-1.643.419.9,7.051-3.271-.425-.911Z" fill="red"/><path d="M1590.882,1551.911l-1.522-3.262,1.55-.723.642,1.376,1.509-.7-.642-1.377,1.657-.773.641,1.377,6.393-2.981.879,1.886-6.392,2.981.371.795-1.657.773-.37-.8Zm-.774-2.991,1.046,2.243,3.059-1.426.37.795.638-.3-.372-.8,6.393-2.981-.4-.866-6.393,2.98-.641-1.376-.638.3.643,1.377-2.529,1.178-.642-1.376Z" fill="red"/><path d="M1597.4,1538.1h-.072a4.474,4.474,0,0,1-1.816-.406,4.708,4.708,0,0,1-1.454-1.058,5.64,5.64,0,0,1-1-1.473,6.04,6.04,0,0,1-.518-1.8,4.546,4.546,0,0,1,.148-1.874,4.37,4.37,0,0,1,.973-1.688,5.15,5.15,0,0,1,1.921-1.264l.247-.1,3.258,6.946a2.282,2.282,0,0,0,.51-.451,2.137,2.137,0,0,0,.423-.84,2.838,2.838,0,0,0,.056-1.061,4.169,4.169,0,0,0-.374-1.229,3.5,3.5,0,0,0-.644-.981,2.9,2.9,0,0,0-.7-.532,2.122,2.122,0,0,0-.642-.218,3.022,3.022,0,0,0-.548-.046h-.253l-.239-2.134.31-.005a5.47,5.47,0,0,1,.928.077,3.712,3.712,0,0,1,1.17.409,5.041,5.041,0,0,1,1.212.945,6.156,6.156,0,0,1,1.1,1.691,6.6,6.6,0,0,1,.633,2.175,4.5,4.5,0,0,1-.2,1.875,3.977,3.977,0,0,1-.929,1.5,5.082,5.082,0,0,1-1.5,1.049A4.759,4.759,0,0,1,1597.4,1538.1Zm-1.852-8.937a4.384,4.384,0,0,0-1.47,1.016,3.8,3.8,0,0,0-.85,1.47,3.98,3.98,0,0,0-.13,1.643,5.526,5.526,0,0,0,.469,1.633,5.109,5.109,0,0,0,.9,1.326,4.157,4.157,0,0,0,1.28.934,3.926,3.926,0,0,0,1.59.352,4.185,4.185,0,0,0,1.831-.433,4.54,4.54,0,0,0,1.336-.933,3.411,3.411,0,0,0,.8-1.294,3.943,3.943,0,0,0,.172-1.642,6.073,6.073,0,0,0-.583-1.988,5.6,5.6,0,0,0-1-1.537,4.45,4.45,0,0,0-1.072-.839,3.211,3.211,0,0,0-.991-.351c-.19-.029-.365-.049-.523-.06l.113,1.013c.114.008.24.023.379.043a2.661,2.661,0,0,1,.817.274,3.392,3.392,0,0,1,.836.636,3.993,3.993,0,0,1,.755,1.14,4.682,4.682,0,0,1,.423,1.4,3.4,3.4,0,0,1-.069,1.27,2.689,2.689,0,0,1-.535,1.059,2.906,2.906,0,0,1-.942.739l-.259.129Zm1.645,7.468a2.684,2.684,0,0,1-.348-.022,3.046,3.046,0,0,1-1.1-.359,3.386,3.386,0,0,1-.883-.715,4.007,4.007,0,0,1-.627-.959h0a4.222,4.222,0,0,1-.334-1.1,3.665,3.665,0,0,1-.005-1.178,3.057,3.057,0,0,1,.409-1.1,2.515,2.515,0,0,1,.93-.876l.265-.151,2.9,6.228-.309.094A3.07,3.07,0,0,1,1597.2,1536.636Zm-2.447-2.293a3.462,3.462,0,0,0,.539.825,2.8,2.8,0,0,0,.735.6,2.5,2.5,0,0,0,.9.292,2.276,2.276,0,0,0,.7-.021l-2.357-5.054a1.847,1.847,0,0,0-.471.511,2.5,2.5,0,0,0-.333.9,3.062,3.062,0,0,0,0,1,3.639,3.639,0,0,0,.289.954Z" fill="red"/></g></svg>